<svg xmlns="http://www.w3.org/2000/svg" xmlns:xlink="http://www.w3.org/1999/xlink" viewBox="0 0 248.4 506.073"><defs><style>.a,.f{fill:#3b3b43;}.a{stroke:#5e6167;stroke-miterlimit:10;stroke-width:4px;}.b{fill:#292929;}.b,.c{opacity:0.8;}.c{fill:#0b0b0b;}.d{fill:#1e1f21;}.e{fill:url(#a);}</style><linearGradient id="a" x1="0.5" x2="0.5" y2="1" gradientUnits="objectBoundingBox"><stop offset="0" stop-color="#ff8f3c"/><stop offset="1" stop-color="#ff9f5a"/></linearGradient></defs><g transform="translate(-865 -80)"><rect class="a" width="241.436" height="502.073" rx="26" transform="translate(867 82)"/><rect class="b" width="88.649" height="4.085" rx="2.043" transform="translate(943.394 93.643)"/><rect class="b" width="88.649" height="4.902" rx="2.451" transform="translate(943.394 565.69)"/><rect class="c" width="9.192" height="9.192" rx="4.596" transform="translate(898.252 98.545)"/><rect class="d" width="217.333" height="434.667" rx="18" transform="translate(879.052 116.724)"/><path class="e" d="M0,0H1A2,2,0,0,1,3,2V38a2,2,0,0,1-2,2H0a0,0,0,0,1,0,0V0A0,0,0,0,1,0,0Z" transform="translate(1110.4 178.761)"/><path class="f" d="M0,0H.919a2,2,0,0,1,2,2V74a2,2,0,0,1-2,2H0a0,0,0,0,1,0,0V0A0,0,0,0,1,0,0Z" transform="translate(1110.4 251.761)"/></g></svg>