<svg xmlns="http://www.w3.org/2000/svg" xmlns:xlink="http://www.w3.org/1999/xlink" viewBox="0 0 625 384"><defs><style>.a,.c,.d{fill:#fff;}.b{fill:url(#a);}.c{opacity:0.44;}.d{fill-rule:evenodd;}</style><linearGradient id="a" x2="1" gradientUnits="objectBoundingBox"><stop offset="0" stop-color="#f1e6d1"/><stop offset="1" stop-color="#8ad1e4"/></linearGradient></defs><g transform="translate(-678 -124)"><rect class="a" width="625" height="383.603" rx="5" transform="translate(678 124.397)"/><path class="b" d="M5,0H620a5,5,0,0,1,5,5V40.4a0,0,0,0,1,0,0H0a0,0,0,0,1,0,0V5A5,5,0,0,1,5,0Z" transform="translate(678 124)"/><rect class="c" width="479.167" height="29.646" rx="14.823" transform="translate(775.005 129.538)"/><g transform="translate(693.299 138.66)"><path class="a" d="M10.215,5.848a.83.83,0,0,1-.808.892H4.517L6.548,8.772a.853.853,0,0,1,0,1.244l-.518.518a.877.877,0,0,1-.622.249.976.976,0,0,1-.622-.249L.249,6.035A.878.878,0,0,1,0,5.412.978.978,0,0,1,.249,4.79L4.766.27a.851.851,0,0,1,1.243,0l.518.518A.9.9,0,0,1,6.8,1.41a.9.9,0,0,1-.269.622L4.5,4.065h4.89a.83.83,0,0,1,.808.892v.892Z" transform="translate(0)"/></g><g transform="translate(711.854 138.66)"><path class="a" d="M9.966,6.023,5.44,10.535a.881.881,0,0,1-.623.248.98.98,0,0,1-.623-.248l-.519-.517a.849.849,0,0,1,0-1.242L5.71,6.747H.81A.83.83,0,0,1,0,5.857v-.89a.83.83,0,0,1,.81-.89h4.9L3.675,2.049a.9.9,0,0,1-.27-.621.9.9,0,0,1,.27-.621L4.194.29A.842.842,0,0,1,4.817,0,.9.9,0,0,1,5.44.269L9.966,4.781a.9.9,0,0,1,0,1.242Z" transform="translate(0 0)"/></g><path class="a" d="M4.575,11.684A5.125,5.125,0,0,1,5.1,1.469V.09A.1.1,0,0,1,5.266.021l2.84,2.086a.087.087,0,0,1,0,.141L5.266,4.333A.1.1,0,0,1,5.1,4.264V2.887a3.712,3.712,0,1,0,3.728,4.3.707.707,0,0,1,1.4.212,5.139,5.139,0,0,1-5.655,4.282Zm0,0" transform="translate(729.718 138.335)"/><g transform="translate(747.703 138.334)"><path class="a" d="M11.225,3.457V.665H9.7v1.6L6.908,0,0,5.517H1.926V11.5h10.03V5.517h1.926Zm0,7.379H8.7V6.182H5.114v4.653H2.59V5.185L6.908,1.728l4.317,3.457Zm0,0"/></g><path class="d" d="M11.463,10.086,8.91,7.531C8.9,7.519,8.88,7.507,8.869,7.5A4.833,4.833,0,1,0,4.831,9.669a4.77,4.77,0,0,0,2.653-.8c.012.012.023.029.035.041l2.553,2.555a.988.988,0,0,0,1.391,0,.965.965,0,0,0,0-1.38ZM4.831,7.995a3.16,3.16,0,1,1,3.158-3.16,3.16,3.16,0,0,1-3.158,3.16Zm0,0" transform="translate(784.143 138.334)"/><path class="a" d="M6.6,12.134l-.922-.922C2.253,8.166,0,6.144,0,3.635A3.585,3.585,0,0,1,3.635,0,3.986,3.986,0,0,1,6.6,1.382,3.974,3.974,0,0,1,9.549,0a3.585,3.585,0,0,1,3.635,3.635c0,2.509-2.253,4.557-5.657,7.577Zm0,0" transform="translate(1231.06 138.334)"/><g transform="translate(1271.75 139.638)"><path class="a" d="M16.755,1.544a.218.218,0,0,0,.215-.215V.215A.212.212,0,0,0,16.755,0H.215A.218.218,0,0,0,0,.215V1.329a.212.212,0,0,0,.215.215Zm0,0" transform="translate(0 0)"/><path class="a" d="M0,112.629a.212.212,0,0,0,.215.215h16.54a.218.218,0,0,0,.215-.215v-1.113a.212.212,0,0,0-.215-.215H.215a.218.218,0,0,0-.215.215Zm0,0" transform="translate(0 -107.439)"/><path class="a" d="M0,223.929a.212.212,0,0,0,.215.215h16.54a.218.218,0,0,0,.215-.215v-1.113a.212.212,0,0,0-.215-.215H.215a.218.218,0,0,0-.215.215Zm0,0" transform="translate(0 -214.879)"/></g></g></svg>