<svg xmlns="http://www.w3.org/2000/svg" xmlns:xlink="http://www.w3.org/1999/xlink" viewBox="0 0 251.037 502.073"><defs><style>.a{fill:url(#a);}.b{fill:url(#b);}.c{fill:url(#c);}.d{fill:url(#d);}.e{fill:url(#k);}.f{fill:url(#l);}.g{fill:url(#m);}.h,.j,.k{fill:#f3f3f3;}.i{fill:#fff;}.j{stroke:#f9f8f8;}.k{stroke:#d9d9d9;}.l{fill:#e2e2e2;}.m,.n{fill-rule:evenodd;}.n{fill:rgba(0,0,0,0.5);}.o,.q{fill:none;}.o{stroke:#a3a3a3;opacity:0.999;}.p{stroke:none;}</style><linearGradient id="a" x1="0.5" x2="0.5" y2="1" gradientUnits="objectBoundingBox"><stop offset="0" stop-color="#fff"/><stop offset="1" stop-color="#e3e3e3"/></linearGradient><linearGradient id="b" x1="0.5" x2="0.5" y2="1" gradientUnits="objectBoundingBox"><stop offset="0" stop-color="#f6f6f6"/><stop offset="1" stop-color="#ececec"/></linearGradient><linearGradient id="c" x1="0.5" x2="0.5" y2="1" gradientUnits="objectBoundingBox"><stop offset="0" stop-color="#fff"/><stop offset="1" stop-color="#e5e5e5"/></linearGradient><linearGradient id="d" x1="1" y1="0.377" x2="0" y2="0.377" gradientUnits="objectBoundingBox"><stop offset="0" stop-color="#fff" stop-opacity="0"/><stop offset="0.322" stop-color="#fdfdfd" stop-opacity="0"/><stop offset="1" stop-color="#dadada"/></linearGradient><linearGradient id="k" x1="0.5" x2="0.5" y2="1" gradientUnits="objectBoundingBox"><stop offset="0" stop-color="#fff"/><stop offset="1" stop-color="#f6f6f6"/></linearGradient><linearGradient id="l" x1="0.5" x2="0.5" y2="1" gradientUnits="objectBoundingBox"><stop offset="0" stop-color="#f3f3f3"/><stop offset="1" stop-color="#fff"/></linearGradient><linearGradient id="m" x1="0.5" x2="0.5" y2="1" gradientUnits="objectBoundingBox"><stop offset="0" stop-color="#fff"/><stop offset="1" stop-color="#f3f3f3"/></linearGradient></defs><g transform="translate(-864 -114)"><path class="a" d="M33.277,0h180.4A33.277,33.277,0,0,1,246.95,33.277V468.8a33.277,33.277,0,0,1-33.277,33.277H33.277A33.277,33.277,0,0,1,0,468.8V33.277A33.277,33.277,0,0,1,33.277,0Z" transform="translate(865.751 114)"/><path class="b" d="M27.439,0H210.17a27.439,27.439,0,0,1,27.439,27.439V465.293a27.439,27.439,0,0,1-27.439,27.439H27.439A27.439,27.439,0,0,1,0,465.293V27.439A27.439,27.439,0,0,1,27.439,0Z" transform="translate(870.422 118.67)"/><g transform="translate(1112.118 230.761)"><g transform="translate(0)"><path class="c" d="M0,0H.919a2,2,0,0,1,2,2V54.045a2,2,0,0,1-2,2H0a0,0,0,0,1,0,0V0A0,0,0,0,1,0,0Z"/><path class="d" d="M0,0H.919a2,2,0,0,1,2,2V54.045a2,2,0,0,1-2,2H0a0,0,0,0,1,0,0V0A0,0,0,0,1,0,0Z"/></g></g><g transform="translate(864 219.085)"><path class="c" d="M2,0h.919a0,0,0,0,1,0,0V35.028a0,0,0,0,1,0,0H2a2,2,0,0,1-2-2V2A2,2,0,0,1,2,0Z"/><path class="d" d="M0,0H.919a2,2,0,0,1,2,2V33.028a2,2,0,0,1-2,2H0a0,0,0,0,1,0,0V0A0,0,0,0,1,0,0Z" transform="translate(2.919 35.028) rotate(180)"/></g><g transform="translate(864 264.622)"><path class="c" d="M2,0h.919a0,0,0,0,1,0,0V35.028a0,0,0,0,1,0,0H2a2,2,0,0,1-2-2V2A2,2,0,0,1,2,0Z"/><path class="d" d="M0,0H.919a2,2,0,0,1,2,2V33.028a2,2,0,0,1-2,2H0a0,0,0,0,1,0,0V0A0,0,0,0,1,0,0Z" transform="translate(2.919 35.028) rotate(180)"/></g><g transform="translate(864 182.305)"><path class="c" d="M1,0H2.919a0,0,0,0,1,0,0V18.682a0,0,0,0,1,0,0H1a1,1,0,0,1-1-1V1A1,1,0,0,1,1,0Z"/><path class="d" d="M0,0H1.919a1,1,0,0,1,1,1V17.682a1,1,0,0,1-1,1H0a0,0,0,0,1,0,0V0A0,0,0,0,1,0,0Z" transform="translate(2.919 18.682) rotate(180)"/></g><path class="e" d="M25.687,0H207.251a25.687,25.687,0,0,1,25.687,25.687V462.374a25.687,25.687,0,0,1-25.687,25.688H25.687A25.687,25.687,0,0,1,0,462.374V25.687A25.687,25.687,0,0,1,25.687,0Z" transform="translate(872.757 121.006)"/><g transform="translate(1014.622 128.595)"><ellipse class="f" cx="4.379" cy="4.379" rx="4.379" ry="4.379" transform="translate(0 0)"/><circle class="g" cx="3.795" cy="3.795" r="3.795" transform="translate(0.584 0.584)"/><ellipse class="h" cx="2.627" cy="2.627" rx="2.627" ry="2.627" transform="translate(1.751 1.751)"/><ellipse class="i" cx="0.876" cy="0.584" rx="0.876" ry="0.584" transform="translate(3.503 1.751)"/></g><path class="j" d="M2.543.5H34.653a2.043,2.043,0,0,1,0,4.087H2.543A2.043,2.043,0,0,1,2.543.5Z" transform="translate(970.628 130.722)"/><path class="k" d="M196.742,474.05H22.185A22.21,22.21,0,0,1,0,451.866V22.185A22.21,22.21,0,0,1,22.185,0H45.69a3.977,3.977,0,0,1,3.053,3.019c.1.422.2.975.313,1.615.224,1.231.5,2.758.914,4.3.534,2,2.893,8.516,10.817,8.6,2.989.031,21.626.037,36.735.037,27.793,0,59.683-.022,61.175-.037,7.925-.082,10.283-6.6,10.817-8.6.414-1.547.692-3.076.915-4.3.117-.643.217-1.192.312-1.612A3.849,3.849,0,0,1,173.768,0h22.974a22.21,22.21,0,0,1,22.185,22.185V451.866A22.21,22.21,0,0,1,196.742,474.05Z" transform="translate(879.763 128.011)"/><path class="l" d="M1.46,0H74.435a1.46,1.46,0,0,1,0,2.919H1.46A1.46,1.46,0,1,1,1.46,0Z" transform="translate(951.571 592.137)"/><path d="M-5.547.12c1.1,0,1.856-.588,1.856-1.442A1.245,1.245,0,0,0-4.741-2.577v-.058a1.089,1.089,0,0,0,.848-1.087c0-.779-.687-1.33-1.654-1.33S-7.2-4.5-7.2-3.722a1.1,1.1,0,0,0,.848,1.087v.058A1.259,1.259,0,0,0-7.4-1.319C-7.4-.468-6.645.12-5.547.12Zm0-.636c-.632,0-1.07-.355-1.07-.868s.438-.872,1.07-.872,1.07.355,1.07.872S-4.915-.516-5.547-.516Zm0-2.365a.8.8,0,0,1-.9-.766.8.8,0,0,1,.9-.776.8.8,0,0,1,.9.776A.8.8,0,0,1-5.547-2.881ZM-2.136-.537a.494.494,0,0,0,.5-.509.494.494,0,0,0-.5-.509.5.5,0,0,0-.5.509A.5.5,0,0,0-2.136-.537Zm0-2.581a.494.494,0,0,0,.5-.509.492.492,0,0,0-.5-.509.494.494,0,0,0-.5.509A.5.5,0,0,0-2.136-3.117Zm1.62-.39v.01H.208v-.01a.849.849,0,0,1,.909-.882.829.829,0,0,1,.9.79c0,.362-.161.622-.82,1.309L-.475-.554V0H2.847V-.687H.591V-.745l1.1-1.111c.827-.837,1.08-1.265,1.08-1.788A1.484,1.484,0,0,0,1.142-5.052,1.538,1.538,0,0,0-.516-3.507ZM6.036,0h.738V-.954h.68v-.684h-.68V-4.932H5.684C4.806-3.616,4.071-2.471,3.63-1.665v.711H6.036ZM4.365-1.668C4.946-2.676,5.513-3.551,6-4.259h.044V-1.62H4.365Z" transform="translate(906.259 144.607)"/><path class="m" d="M67.875,6.585A5.705,5.705,0,0,1,71.57,7.931l.687-.742A6.525,6.525,0,0,0,63.5,7.185l.685.743a5.7,5.7,0,0,1,3.69-1.342Zm0,2.14a3.467,3.467,0,0,1,2.221.8l.727-.785a4.508,4.508,0,0,0-5.892,0l.725.786a3.466,3.466,0,0,1,2.219-.8Zm1.494,1.582a2.288,2.288,0,0,0-2.988,0l1.493,1.616,1.495-1.615Z" transform="translate(1000.745 133.604)"/><path class="m" d="M8.214.336A.343.343,0,0,1,8.56,0H9.578a.339.339,0,0,1,.346.336v5.75a.343.343,0,0,1-.346.336H8.56a.339.339,0,0,1-.346-.336ZM5.476,2.031a.345.345,0,0,1,.346-.34H6.841a.347.347,0,0,1,.346.34V6.082a.345.345,0,0,1-.346.34H5.822a.347.347,0,0,1-.346-.34ZM2.738,3.379a.343.343,0,0,1,.346-.336H4.1a.338.338,0,0,1,.346.336V6.086a.343.343,0,0,1-.346.336H3.084a.338.338,0,0,1-.346-.336ZM0,4.729a.343.343,0,0,1,.346-.335H1.365a.338.338,0,0,1,.346.335V6.088a.343.343,0,0,1-.346.335H.346A.338.338,0,0,1,0,6.088Z" transform="translate(1050.818 139.104)"/><path class="n" d="M23,3.5a1.082,1.082,0,0,1,0,2.061Z" transform="translate(1065.637 137.966)"/><rect width="10.444" height="5" rx="2.5" transform="translate(1077.026 140)"/><g class="o" transform="translate(1076.909 139.79)"><rect class="p" width="11.17" height="5.585" rx="2.5"/><rect class="q" x="0.5" y="0.5" width="10.17" height="4.585" rx="2"/></g></g></svg>