<svg xmlns="http://www.w3.org/2000/svg" xmlns:xlink="http://www.w3.org/1999/xlink" viewBox="0 0 251.036 502.073"><defs><style>.a{fill:url(#a);}.b{fill:url(#b);}.c{fill:url(#c);}.d,.f{fill:#f3f3f3;}.e{fill:#fff;}.f{stroke:#f9f8f8;}.g{fill:#e2e2e2;}</style><linearGradient id="a" x1="0.5" x2="0.5" y2="1" gradientUnits="objectBoundingBox"><stop offset="0" stop-color="#fff"/><stop offset="1" stop-color="#e3e3e3"/></linearGradient><linearGradient id="b" x1="0.5" x2="0.5" y2="1" gradientUnits="objectBoundingBox"><stop offset="0" stop-color="#f3f3f3"/><stop offset="1" stop-color="#fff"/></linearGradient><linearGradient id="c" x1="0.5" x2="0.5" y2="1" gradientUnits="objectBoundingBox"><stop offset="0" stop-color="#fff"/><stop offset="1" stop-color="#f3f3f3"/></linearGradient></defs><g transform="translate(-1142 -114)"><path class="a" d="M215.673,502.073H35.277A33.249,33.249,0,0,1,2,468.8V185.65a2,2,0,0,1-2-2V152.622a2,2,0,0,1,2-2V140.113a2,2,0,0,1-2-2V107.085a2,2,0,0,1,2-2v-18.1H1a1,1,0,0,1-1-1V69.305a1,1,0,0,1,1-1H2V33.277A33.25,33.25,0,0,1,35.277,0h180.4A33.249,33.249,0,0,1,248.95,33.277v83.485h.086a2,2,0,0,1,2,2v52.045a2,2,0,0,1-2,2h-.086V468.8a33.249,33.249,0,0,1-33.277,33.277ZM38.184,14.011A22.21,22.21,0,0,0,16,36.2V465.877a22.21,22.21,0,0,0,22.185,22.185H212.742a22.21,22.21,0,0,0,22.185-22.185V36.2a22.21,22.21,0,0,0-22.185-22.185H189.768a3.856,3.856,0,0,0-3.027,3.02c-.094.418-.194.966-.31,1.6l0,.009c-.222,1.225-.5,2.75-.915,4.3-.534,2-2.891,8.517-10.816,8.6-1.489.015-33.379.037-61.176.037-15.112,0-33.751-.006-36.733-.037-7.926-.082-10.284-6.6-10.818-8.6-.409-1.524-.685-3.038-.906-4.255l-.008-.047-.023-.128c-.107-.586-.2-1.093-.29-1.486a3.977,3.977,0,0,0-3.054-3.02Z" transform="translate(1142 114)"/><g transform="translate(-3536.128 -104)"><g transform="translate(4820.622 228.595)"><ellipse class="b" cx="4.379" cy="4.379" rx="4.379" ry="4.379" transform="translate(0 0)"/><circle class="c" cx="3.795" cy="3.795" r="3.795" transform="translate(0.584 0.584)"/><ellipse class="d" cx="2.627" cy="2.627" rx="2.627" ry="2.627" transform="translate(1.751 1.751)"/><ellipse class="e" cx="0.876" cy="0.584" rx="0.876" ry="0.584" transform="translate(3.503 1.751)"/></g><path class="f" d="M2.543.5H34.653a2.043,2.043,0,0,1,0,4.087H2.543A2.043,2.043,0,0,1,2.543.5Z" transform="translate(4776.628 230.722)"/></g><path class="g" d="M1.46,0H74.435a1.46,1.46,0,0,1,0,2.919H1.46A1.46,1.46,0,1,1,1.46,0Z" transform="translate(1230 588.137)"/></g></svg>