<svg xmlns="http://www.w3.org/2000/svg" viewBox="0 0 134.145 78.319"><defs><style>.a{fill:#f8993a;}.b{fill:none;stroke:#fffbf8;stroke-miterlimit:10;}.c{fill:#cc454b;}.d{fill:#151514;}.e{fill:#b72634;}.f{fill:#cb424e;}.g{fill:#b32a2c;}.h{fill:#ad2125;}</style></defs><g transform="translate(0 0)"><g transform="translate(13.339 26.996)"><path class="a" d="M52.96,67.01a16.7,16.7,0,0,0-1.214,2.932,5.945,5.945,0,0,0-.257,3.39,12.992,12.992,0,0,1-.193,2.775c.065.478-.637.75-1.322.59a8.581,8.581,0,0,0-2.4-.338,11.969,11.969,0,0,1-2.357.346,16.2,16.2,0,0,0-2.4-.451c-.994,0-2.353.459-3.215.421a16.7,16.7,0,0,1-2.25.074,5.377,5.377,0,0,0-1.64-.029c-.778.009-1.856-.038-2.718-.076s-1.256.075-.778-.985a6.435,6.435,0,0,0,.676-2.606,21.624,21.624,0,0,1,.348-3.009,15.7,15.7,0,0,1,.329-2.577c.281-.506.15-1.462.882-2.381,0,0,18.27.109,18.795-.041S53.646,66.067,52.96,67.01Z" transform="translate(-32.015 -64.932)"/><path class="b" d="M79.46,64.893c-.478,1.187-2.052,3.854-2.452,3.268s.072-2.743.133-3.179" transform="translate(-58.167 -64.85)"/><path class="b" d="M72.614,64.992c-.478,1.187-2.052,3.854-2.452,3.268s.072-2.743.133-3.179" transform="translate(-54.174 -64.908)"/><path class="b" d="M65.6,64.79c-.478,1.187-2.052,3.854-2.452,3.268s.072-2.743.133-3.179" transform="translate(-50.08 -64.79)"/><path class="b" d="M59.21,64.812c-.478,1.187-2.052,3.854-2.452,3.268s.072-2.743.133-3.179" transform="translate(-46.355 -64.803)"/><path class="b" d="M52.6,65.044c-.478,1.187-2.052,3.854-2.452,3.268s.072-2.743.133-3.179" transform="translate(-42.501 -64.938)"/><path class="b" d="M46.211,65.19c-.478,1.187-2.052,3.854-2.452,3.268s.072-2.743.133-3.179" transform="translate(-38.772 -65.023)"/><path class="b" d="M39.744,65.228c-.478,1.187-2.052,3.854-2.452,3.268s.072-2.743.133-3.179" transform="translate(-35 -65.045)"/></g><path class="c" d="M232.141,38s22.151-19.679,32.953,2.437l-2.045,4.419s-4.943-21.569-31.436-2.016Z" transform="translate(-135.108 -17.463)"/><g transform="translate(1.61 0)"><path class="d" d="M96.815,122.053h5.542V143.81h13.137v4.768H96.815Zm34.247,22.567a6.329,6.329,0,0,0,5.228-2.43,10.859,10.859,0,0,0,1.935-6.91,10.861,10.861,0,0,0-1.935-6.9,6.321,6.321,0,0,0-5.228-2.438,6.407,6.407,0,0,0-5.255,2.43,10.748,10.748,0,0,0-1.962,6.91,10.748,10.748,0,0,0,1.962,6.91A6.409,6.409,0,0,0,131.062,144.62Zm12.7-9.34q0,7.144-4.013,10.942a11.568,11.568,0,0,1-8.688,3.1,11.567,11.567,0,0,1-8.692-3.1q-4.031-3.8-4.031-10.942,0-7.289,4.031-10.942a11.567,11.567,0,0,1,8.692-3.1,11.566,11.566,0,0,1,8.69,3.1Q143.763,127.993,143.762,135.28Zm22.062-4.948a5.193,5.193,0,0,0-3.068-3.8,7.556,7.556,0,0,0-3.042-.594,6.606,6.606,0,0,0-5.263,2.421,11,11,0,0,0-2.061,7.279q0,4.894,2.231,6.929A7.327,7.327,0,0,0,159.7,144.6a6.553,6.553,0,0,0,4.571-1.61,6.963,6.963,0,0,0,2.2-4.22h-6.142v-4.427H171.37v14.233H167.7l-.558-3.311a12.7,12.7,0,0,1-2.878,2.663,10.127,10.127,0,0,1-5.4,1.357,11.218,11.218,0,0,1-8.638-3.66,13.93,13.93,0,0,1-3.51-10.042,14.742,14.742,0,0,1,3.544-10.329,12.081,12.081,0,0,1,9.378-3.894,12.256,12.256,0,0,1,8.125,2.564,9.537,9.537,0,0,1,3.518,6.4ZM188.39,144.62a6.329,6.329,0,0,0,5.227-2.43,10.856,10.856,0,0,0,1.939-6.91,10.861,10.861,0,0,0-1.935-6.9,6.321,6.321,0,0,0-5.227-2.438,6.407,6.407,0,0,0-5.255,2.43,10.749,10.749,0,0,0-1.956,6.91,10.749,10.749,0,0,0,1.956,6.91,6.407,6.407,0,0,0,5.255,2.43h0Zm12.71-9.34q0,7.144-4.013,10.942a13.75,13.75,0,0,1-17.384,0q-4.031-3.8-4.031-10.942,0-7.289,4.031-10.942a13.748,13.748,0,0,1,17.384,0Q201.1,127.993,201.1,135.28Z" transform="translate(-82.669 -121.216)"/><rect class="d" width="3.544" height="11.34" transform="translate(123.321 1.14)"/><rect class="d" width="3.544" height="11.34" transform="translate(0 1.14)"/><rect class="d" width="3.544" height="11.34" transform="translate(128.991 1.14)"/><rect class="d" width="3.544" height="11.34" transform="translate(5.67 1.14)"/></g><g transform="translate(0 17.637)"><path class="e" d="M2.832,153.542s52.312-9.859,84.4-17.868l-1.737-4.48S7.25,148.829,1.607,149.6C-1.539,150.053.512,153.914,2.832,153.542Z" transform="translate(0 -94.167)"/><path class="f" d="M201.556,110.991l10.987-5.891,1.738,5.13-12.339,5.69L201,112.26A1.122,1.122,0,0,1,201.556,110.991Z" transform="translate(-117.229 -78.946)"/><path class="g" d="M203.31,123.1l2.18,5.555a.845.845,0,0,0,1.079.483l11.487-4.252-2.407-7.477Z" transform="translate(-118.598 -86.128)"/><path class="h" d="M234.511,73.42s34.23-11.185,29.012-30.507c0,0,5.623,6.129,4.364,10.155s-5.226,14.86-30.026,25.846Z" transform="translate(-136.798 -42.67)"/><path class="g" d="M235.291,128.6s-1.93-1.478-2.239-2.334-8.715-30.308-9.29-34.11a29,29,0,0,0-.885-4.59l13.881,41.094S236.348,129.5,235.291,128.6Z" transform="translate(-130.012 -68.719)"/><path class="c" d="M230.458,42.33s-5.721,3.489-7.288,7.526c-1.635,4.215-1.152,11.244-.54,13.217S235,99.08,235.843,102.626a6.364,6.364,0,0,0,4.709-.164s-16.67-40.661-16.522-43.8c0,0-.342-5.159,2.227-8.571l2.453-2.181c.029-.022,5.6-3,5.618-3.033Z" transform="translate(-129.533 -42.33)"/></g></g></svg>