<svg xmlns="http://www.w3.org/2000/svg" xmlns:xlink="http://www.w3.org/1999/xlink" viewBox="0 0 647.185 417.001"><defs><style>.a{opacity:0.402;fill:url(#a);}</style><linearGradient id="a" x1="0.432" y1="0.208" x2="0.987" y2="1" gradientUnits="objectBoundingBox"><stop offset="0" stop-color="#68c8fa"/><stop offset="1" stop-color="#77b6d6"/></linearGradient></defs><path class="a" d="M-2500.49,317.5c-12.5-15.2-19.6-36.447-37.753-43.84-15.827-6.357-33.558.667-49.26,7.335a74.207,74.207,0,0,1-39.736,4.64c-6.348-1.165-12.937-3.421-16.949-8.536-5.35-6.606-5.018-16.526-1.033-24s11.028-12.919,18.374-17.195a86.258,86.258,0,0,1,23.979-9.638c7.206-1.589,16.744.337,22.92-3.634,5.414-3.484,8.6-9.407,11.137-15.325,5.3-12.525,8.014-26.176,15.662-37.388a38.429,38.429,0,0,1,7.519-8.131c7.929-6.421,18.322-9.62,27.244-5.35,10.149,4.906,14.393,17.3,14.273,28.589-.171,18.539-9.007,34.96,2,52.042,5.5,8.541,12.375,14.17,19.334,21.016,7.307,7.593,12.949,18.851,17.193,28.541,3.436,7.9,6.095,16.424,4.771,24.96a24.177,24.177,0,0,1-1.67,5.912Zm-219.165,0a97.56,97.56,0,0,1-2.885-12.572c-.9-5.4-1.6-10.9-3.8-15.9-9.9-22.753-32.831-21.622-53.93-20.491a158.235,158.235,0,0,1-19.37.291c-22.3-1.6-53.8-10.3-65.7-31-3.5-6.1-4.8-14.6.2-19.5,2.5-2.5,6.2-3.5,9.6-4.5,9.4-2.6,18.8-5.6,27-10.9,7.8-5,14.8-12.1,23.9-13.7,29-5.2,20.6,21.6,37,33.6,4.9,3.6,11.4,4.2,17.5,4.2a78.037,78.037,0,0,0,27.7-5.2,124.338,124.338,0,0,0,22.1-11.7c14.4-9.3,28.7-20.2,45.9-23.6a20.426,20.426,0,0,1,9.2-.1c7.8,2.2,11.5,12.1,9.3,19.9-2.7,9.5-11,14.4-17.4,20.9-7,7.2-14.2,14.6-18.5,23.8-3.7,8-8.6,15.7-9.5,24.5a14.321,14.321,0,0,0,.6,6.5c1.4,3.7,5.1,6,8.9,7.1,5.6,1.6,11.6,1,17.4.4,5.8-.5,11.9-.8,17.3,1.4s9.9,7.7,9.1,13.5c-.7,5.2-5.3,8.9-9.6,11.9q-.875.592-1.758,1.172Zm328.515-16.071c-7.6-1-15.5-3.5-20.5-9.3-7.7-8.9-5.9-22.4-2.7-33.7s7.5-23.4,3.6-34.5c-4.3-12.3-17.7-16.2-29.6-17.5-10.5-1.2-21.2-.6-31.4-3.4-3.8-1-8.1-3.2-8.6-7.1-.5-3.7,2.6-6.8,5.6-9.1,8.3-6.4,17.8-11.2,25.8-18s14.8-16.1,15.1-26.6a17.818,17.818,0,0,0-2.1-9.4c-3.6-6.4-11.7-8.8-19-9.1-2.467-.1-4.945-.045-7.414.011-4.941.111-9.853.222-14.586-.911-3.8-.9-7.7-3-9.2-6.6-3.1-7.8,5.4-14.5,11.4-17.9,8.4-5.1,15.2-3.8,24.5-4.7,31.6-3.2,62.7-6.7,93.8-.7,4.7.9,9.5,2,13.3,4.8q.23.176.455.361v18.489c-1.353,1.1-2.833,2.09-4.255,3.05a198.46,198.46,0,0,0-27.3,21.9c-3.5,3.4-7.2,7.9-5.9,12.6,1.4,4.7,7,6.6,11.9,7.5a174.556,174.556,0,0,0,25.555,2.836v45.582a125.336,125.336,0,0,0-10.756,11.383,36.22,36.22,0,0,0-6.6,10.3,33.013,33.013,0,0,0-1.6,12.9c.5,9.5,5.7,17.4,6.8,26.3.9,7.4-1.5,16.5-6.4,22.1-5.684,6.485-14.573,8.8-23.383,8.8A54.185,54.185,0,0,1-2391.139,301.429Zm-492.7-119.7c-2.8-3.6-3.9-8.1-5-12.4-1.8-7.4-3.7-14.8-5.5-22.2-1.5-5.9-3.1-12-7.2-16.4-18.5-19.8-53.1,23.8-68.5,31.8-4.3,2.2-9.6,3.8-14.1.5-4-3-6-9.1-5.7-14.3s2.4-9.7,4.5-13.9a286.6,286.6,0,0,1,28.5-45.2c9-11.7,19.7-28.3,34.6-32.5,6.2-1.8,14.3-.8,17,5,2.2,4.7.1,10.8,3,15.1,8.8,12.9,36.4-7,38-17.7a17.793,17.793,0,0,0-10.3-18.4c-3.6-1.5-8-2-10.5-5-2.5-3.1-2.1-7.8.1-11.2s5.6-5.6,9.1-7.6a150.45,150.45,0,0,1,37.3-14.8c12.6-3.3,23.1-7.4,36.4-4,16.1,4.1,20.5,15.7,13,31-11.1,22.6-35.9,40.3-36.6,67.4a49.538,49.538,0,0,0,11.9,32.9c8,9.3,18.9,14.1,16.9,28.4-.8,5.3-3.5,10.7-8.4,12.9-5.1,2.3-11,.5-16.1-1.7-7.6-3.4-17.6-24.9-26-20.7-3.3,1.7-4.8,5.7-5,9.4s.6,7.4.4,11.1a20.276,20.276,0,0,1-11.8,17.3,17.078,17.078,0,0,1-6.7,1.34A17.006,17.006,0,0,1-2883.839,181.728Zm246.5-32.4c-.9-1.2-1.7-2.4-2.5-3.7a70.741,70.741,0,0,1-10.4-37.7c.1-8.8,2.8-18.8,10.8-22.4,3.617-1.64,7.617-1.618,11.64-1.6a36.942,36.942,0,0,0,9.159-.7c10.6-2.6,16.5-14.2,17.9-25.1.5-4.2.6-8.6-.9-12.6-1.4-4-4.6-7.5-8.7-8.5a20.356,20.356,0,0,0-6.964-.17,29.149,29.149,0,0,1-4.836.17c-10.4-.9-16.7-13.2-15-23.5s8.8-18.8,15.7-26.6c16.1-18.2,32.3-36.6,49.4-53.9,8.9-8.9,27-12.3,35.9-1.8,9.8,11.5,6,29.6-.3,41.8-3,5.7-4.9,12.3-8.1,17.9-4.5,7.9-11,16.1-6.3,25.5a16.566,16.566,0,0,0,14,8.9c7.8.2,14.8-5.3,19.1-11.8,3-4.5,5.1-9.5,8.6-13.5,6.5-7.3,17.6-10,26.9-6.8a27.623,27.623,0,0,1,17.8,21.6c1.3,8-1,16.3-4.2,23.8-4.7,11.1-12,21.6-22.4,27.6-8.6,5-18.8,6.6-27.9,10.7a48.479,48.479,0,0,0-10.4,6.2c-18.2,14.1-24.5,38.5-35.9,58.3-8.1,13.9-21.1,26.7-37.1,27.5q-.776.039-1.547.039C-2617.272,168.967-2629.346,160.307-2637.339,149.329Zm260.4-84.5c-3.2-1.1-6.1-4.2-5.9-7.8s3.1-6.3,5.8-8.5c10.2-7.9,21.3-16,28.5-27.1a79.444,79.444,0,0,0,5.855-10.7V54.9c-7.811,3.912-15.656,7.664-24.055,9.727a26.587,26.587,0,0,1-6.031.836A13.086,13.086,0,0,1-2376.94,64.829Zm-51.2-27.6c-1.5-3.1-1.5-6.8-1.4-10.3.2-9.8.9-19.7-1.6-29.1-4.3-16.4-18.9-29.5-35.7-32.1-9.3-1.4-20.1-.3-26.9-6.9-7.9-7.7-5.8-24-.1-32.4,7.4-10.8,25.9-17.3,37.9-20.6,12.147-3.343,24.759-4.758,37.4-5.329h28.5c7.839.7,15.534,2.475,21.5,6.629,21.6,15,14.7,50.6,8.5,70.8-4.4,14.1-6.1,29.4-13.9,42.2-7.2,11.8-18.7,21.2-32.2,24.3a29.23,29.23,0,0,1-6.288.689C-2418.93,45.118-2425.431,42.872-2428.139,37.229Z" transform="translate(2989.869 99.5)"/></svg>