<svg xmlns="http://www.w3.org/2000/svg" xmlns:xlink="http://www.w3.org/1999/xlink" viewBox="0 0 251.257 238.882"><defs><style>.a{opacity:0.283;fill:url(#a);}</style><linearGradient id="a" x1="0.064" y1="-0.039" x2="0.807" y2="1.001" gradientUnits="objectBoundingBox"><stop offset="0" stop-color="#59d178"/><stop offset="1" stop-color="#61d87f"/></linearGradient></defs><path class="a" d="M-2818.9-1874.6l-28.393-22.183a3.977,3.977,0,0,1-1.548-3.658,4.127,4.127,0,0,1,2.47-3.163l33.418-13.447a3.691,3.691,0,0,1,3.91.509,3.891,3.891,0,0,1,1.5,3.718l-5.024,35.631a3.77,3.77,0,0,1-2.471,3.162,3.833,3.833,0,0,1-1.01.27,3.632,3.632,0,0,1-.445.027A3.9,3.9,0,0,1-2818.9-1874.6Zm-95.567-5.152-28.393-22.182a4.169,4.169,0,0,1-1-1.1v-4.062a4.169,4.169,0,0,1,1.917-1.656l33.417-13.447a3.694,3.694,0,0,1,3.911.509,3.891,3.891,0,0,1,1.5,3.718l-5.023,35.631a3.771,3.771,0,0,1-2.471,3.162,3.867,3.867,0,0,1-1.011.27,3.658,3.658,0,0,1-.442.027A3.9,3.9,0,0,1-2914.467-1879.753ZM-2766-1902.789l-28.392-22.184a3.978,3.978,0,0,1-1.549-3.658,4.123,4.123,0,0,1,2.47-3.162l33.418-13.447a3.691,3.691,0,0,1,3.911.509,3.9,3.9,0,0,1,1.5,3.718l-5.025,35.631a3.765,3.765,0,0,1-2.47,3.161,3.839,3.839,0,0,1-1.011.271,3.637,3.637,0,0,1-.442.027A3.9,3.9,0,0,1-2766-1902.789Zm-96.309-5.731-28.394-22.183a3.978,3.978,0,0,1-1.547-3.657,4.124,4.124,0,0,1,2.47-3.162l33.418-13.447a3.689,3.689,0,0,1,3.909.509,3.891,3.891,0,0,1,1.5,3.719l-5.025,35.63a3.766,3.766,0,0,1-2.469,3.162,3.839,3.839,0,0,1-1.012.27,3.625,3.625,0,0,1-.445.027A3.888,3.888,0,0,1-2862.312-1908.52Zm149.206-22.458-28.393-22.183a3.976,3.976,0,0,1-1.548-3.657,4.123,4.123,0,0,1,2.47-3.162l33.417-13.447a3.69,3.69,0,0,1,3.91.508,3.892,3.892,0,0,1,1.5,3.719l-5.025,35.63a3.768,3.768,0,0,1-2.47,3.162,3.829,3.829,0,0,1-1.011.27,3.649,3.649,0,0,1-.445.027A3.892,3.892,0,0,1-2713.107-1930.978Zm-192.619-11.461-28.393-22.183a3.978,3.978,0,0,1-1.549-3.658,4.122,4.122,0,0,1,2.469-3.161l33.418-13.448a3.692,3.692,0,0,1,3.91.509,3.892,3.892,0,0,1,1.5,3.719l-5.024,35.63a3.767,3.767,0,0,1-2.47,3.162,3.832,3.832,0,0,1-1.011.27,3.649,3.649,0,0,1-.443.027A3.89,3.89,0,0,1-2905.726-1942.439Zm149.206-22.458-28.393-22.183a3.978,3.978,0,0,1-1.548-3.658,4.122,4.122,0,0,1,2.469-3.161l33.418-13.448a3.691,3.691,0,0,1,3.91.509,3.891,3.891,0,0,1,1.5,3.719l-5.025,35.63a3.765,3.765,0,0,1-2.469,3.162,3.862,3.862,0,0,1-1.012.27,3.642,3.642,0,0,1-.443.027A3.894,3.894,0,0,1-2756.52-1964.9Zm-96.31-5.73-28.393-22.183a3.976,3.976,0,0,1-1.548-3.658,4.122,4.122,0,0,1,2.47-3.161l33.416-13.448a3.694,3.694,0,0,1,3.911.509,3.891,3.891,0,0,1,1.5,3.719l-5.024,35.63a3.771,3.771,0,0,1-2.471,3.162,3.873,3.873,0,0,1-1.01.27,3.649,3.649,0,0,1-.443.027A3.9,3.9,0,0,1-2852.83-1970.627Zm-91.025-47.913.661-.266a3.693,3.693,0,0,1,3.911.509,3.89,3.89,0,0,1,1.5,3.718l-5.024,35.631a3.833,3.833,0,0,1-1.048,2.243Zm239.861,25.166-28.393-22.183a3.977,3.977,0,0,1-1.549-3.658,4.122,4.122,0,0,1,2.469-3.161l33.418-13.448a3.691,3.691,0,0,1,3.91.509,3.892,3.892,0,0,1,1.5,3.718l-5.025,35.631a3.763,3.763,0,0,1-2.469,3.161,3.8,3.8,0,0,1-1.011.27,3.665,3.665,0,0,1-.446.027A3.888,3.888,0,0,1-2703.994-1993.374Zm-43.414-33.918-28.393-22.182a3.981,3.981,0,0,1-1.548-3.658,4.122,4.122,0,0,1,2.469-3.162l33.417-13.447a3.693,3.693,0,0,1,3.911.509,3.9,3.9,0,0,1,1.5,3.719l-5.024,35.63a3.766,3.766,0,0,1-2.471,3.162,3.834,3.834,0,0,1-1.011.271,3.63,3.63,0,0,1-.442.027A3.9,3.9,0,0,1-2747.408-2027.292Zm-95.938-5.441-28.393-22.183a3.976,3.976,0,0,1-1.548-3.657,4.12,4.12,0,0,1,2.469-3.162l33.417-13.448a3.69,3.69,0,0,1,3.911.51,3.889,3.889,0,0,1,1.5,3.717l-5.024,35.63a3.768,3.768,0,0,1-2.471,3.163,3.838,3.838,0,0,1-1.01.27,3.656,3.656,0,0,1-.445.027A3.889,3.889,0,0,1-2843.347-2032.733Zm-96.311-5.73-4.2-3.28v-35.087l10.145-4.082a3.689,3.689,0,0,1,3.909.51,3.89,3.89,0,0,1,1.5,3.718l-5.025,35.63a3.764,3.764,0,0,1-2.469,3.162,3.841,3.841,0,0,1-1.012.271,3.637,3.637,0,0,1-.442.027A3.9,3.9,0,0,1-2939.657-2038.463Zm148.836-22.748-28.393-22.183a3.975,3.975,0,0,1-1.548-3.658,4.122,4.122,0,0,1,2.469-3.161l33.418-13.449a3.691,3.691,0,0,1,3.91.51,3.889,3.889,0,0,1,1.5,3.718l-5.025,35.63a3.767,3.767,0,0,1-2.47,3.163,3.835,3.835,0,0,1-1.011.27,3.624,3.624,0,0,1-.444.027A3.893,3.893,0,0,1-2790.822-2061.211Zm-95.939-5.44-28.392-22.183a3.976,3.976,0,0,1-1.549-3.656,4.125,4.125,0,0,1,2.47-3.162l33.418-13.447a3.689,3.689,0,0,1,3.91.509,3.892,3.892,0,0,1,1.5,3.719l-5.025,35.63a3.769,3.769,0,0,1-2.47,3.162,3.844,3.844,0,0,1-1.011.27,3.649,3.649,0,0,1-.443.027A3.9,3.9,0,0,1-2886.761-2066.651Zm148.836-22.748-28.393-22.182a4.192,4.192,0,0,1-.953-1.035h38.588l-2.908,20.626a3.771,3.771,0,0,1-2.47,3.162,3.834,3.834,0,0,1-1.012.27,3.625,3.625,0,0,1-.445.027A3.89,3.89,0,0,1-2737.925-2089.4Zm-96.311-5.73-22.382-17.487h30.816l-2.1,14.9a3.767,3.767,0,0,1-2.471,3.161,3.782,3.782,0,0,1-1.01.27,3.637,3.637,0,0,1-.445.027A3.892,3.892,0,0,1-2834.236-2095.129Zm-95.938-5.44-13.681-10.689v-1.358h21.347l-1.333,9.455a3.769,3.769,0,0,1-2.47,3.162,3.884,3.884,0,0,1-1.011.27,3.649,3.649,0,0,1-.443.027A3.893,3.893,0,0,1-2930.174-2100.569Z" transform="translate(2943.855 2112.616)"/></svg>