<svg xmlns="http://www.w3.org/2000/svg" width="500.968" height="328.941" viewBox="0 0 500.968 328.941"><path d="M144.572,426.5c11.607-2.425,23.7-5.2,36.137-8.307,51.83-12.957,163.3-51.7,281.321-92.721C478.99,319.578,496.2,313.6,513.5,307.6v3.393q-24.6,8.531-48.769,16.938c-123.3,42.856-229.788,79.867-281.936,92.9q-12.163,3.041-23.9,5.669Zm-130.958,0c1.122-7.426,11.166-17.281,30.052-29.448,75.685-48.764,134.325-108.236,142.6-144.626,2.772-12.191,2.745-24.648,2.717-36.695-.051-22.692-.1-44.123,19.347-58.376C248.383,128,371.794,109.373,513.5,98.6v3c-52.043,3.985-99.024,8.819-139.137,14.353-84.247,11.622-138.739,26.144-161.961,43.163-18.383,13.472-18.335,34.429-18.284,56.615.027,12.138.057,24.69-2.757,37.065-8.527,37.488-66.326,96.224-143.827,146.159C29.88,410.325,20.124,419.777,18.876,426.5Zm75.529-28.2c-8.8-6.62-1.906-17.562,20.476-32.521,62.616-43.4,110.837-94.259,120-126.562,2.594-10.366,2.935-21,3.263-31.286.642-20.1,1.247-39.087,19.088-51.827,21.819-15.546,70.929-28.8,145.972-39.408,33.59-4.747,72.559-8.951,115.556-12.5v2.92c-42.526,3.518-81.071,7.682-114.308,12.379C325.274,129.947,277.1,142.866,256,157.9c-16.771,11.976-17.364,30.49-17.989,50.091-.332,10.372-.674,21.1-3.32,31.663-9.3,32.788-57.97,84.2-121.107,127.965l-.032.019c-20.362,13.606-27.382,23.612-20.3,28.939,12.86,9.68,70.656,4.425,140.549-12.781,53.172-12.306,162.715-50.074,279.7-90.544v3.391c-116.154,40.182-224.6,77.524-277.7,89.812-47.485,11.69-88.149,17.814-115.166,17.815C105.371,404.268,94.466,402.314,89.142,398.3Zm71.618-36.678c-7.661-5.657-2.687-14.773,14.783-27.09,48.571-37.621,87.727-81.233,97.432-108.529,2.4-8.538,3.082-17.349,3.744-25.87,1.361-17.508,2.644-34.045,18.9-45.275,33.69-23.172,128.705-36.972,217.882-45.044v2.931c-33.04,3.008-63.158,6.47-89.474,10.3-63.591,9.267-105.457,20.583-124.43,33.634-15.178,10.487-16.426,26.56-17.747,43.576-.666,8.6-1.359,17.5-3.821,26.253-9.859,27.732-49.381,71.811-98.363,109.743l-.072.052c-15.62,11.006-20.722,19.155-14.749,23.563,11.389,8.411,61.578,4.1,122.048-10.478,46.634-9.824,133.857-38.762,226.609-70.566v3.382c-91.964,31.515-178.211,60.072-224.7,69.864C248.147,361.88,213.133,367,189.488,367,175.613,367,165.651,365.237,160.76,361.625Zm71.516-36.677c-6.527-4.673-3.444-11.951,9.162-21.634,28.54-26.736,63.168-64.523,74.88-90.492,2.2-6.783,3.19-13.751,4.145-20.489,2.115-14.914,4.112-29,18.812-38.727,28.673-18.832,102.73-30.7,174.227-38.012v2.85c-114.92,11.749-155.8,27.5-170.321,37.037-13.621,9.011-15.554,22.646-17.6,37.082-.97,6.827-1.97,13.886-4.228,20.828l-.036.095c-11.837,26.293-46.782,64.44-75.537,91.372l-.132.111c-10.977,8.417-14.207,14.709-9.333,18.2,9.977,7.142,52.609,3.782,103.68-8.168l.175-.036c39.262-7.348,103.648-27.408,173.332-50.751v3.358c-68.9,23.039-132.444,42.772-171.619,50.116-33.9,7.927-63.29,12.045-83.561,12.046C245.8,329.729,236.764,328.161,232.276,324.949Zm71.336-36.657c-5.392-3.643-4.162-9.069,3.658-16.126,5.458-7.741,12.1-16.449,19.125-25.667,12.461-16.344,25.347-33.243,33.288-46.907a111.885,111.885,0,0,0,4.349-15.058c2.934-12.322,5.707-23.961,18.911-32.19,23.426-14.453,76.972-24.236,130.558-30.7v2.879c-82.81,10.032-114.614,22.269-126.754,29.759-12.127,7.559-14.8,18.768-17.624,30.634a113.166,113.166,0,0,1-4.451,15.365l-.067.136c-8.009,13.8-20.963,30.788-33.491,47.219-7.051,9.247-13.709,17.98-19.156,25.715l-.212.236c-4.549,4.081-8.971,9.624-4.185,12.856,8.674,5.864,43.855,3.458,85.546-5.849l.245-.046c30.661-4.921,73.568-16.833,120.148-31.517v3.3c-45.885,14.4-88.13,26.064-118.619,30.971-23.113,5.154-49.1,9.271-68.025,9.272C316.4,292.578,308.1,291.323,303.611,288.292Zm71-36.571c-2.942-1.735-5.576-4.956-1.607-10.489.345-14.44,15.374-35.837,30.081-54.906,1.6-3.154,2.9-6.409,4.154-9.557,3.893-9.74,7.567-18.94,19.4-25.7,17.725-10,51.5-17.427,86.855-22.816v3.078c-37.054,5.715-67.618,12.975-83.214,21.769-10.8,6.168-14.314,14.976-18.041,24.3-1.284,3.219-2.614,6.548-4.272,9.809l-.113.178c-14.617,18.949-29.579,40.2-29.727,54.145l0,.286-.2.265c-2.547,3.416-2.415,5.987.392,7.644,7.824,4.613,35.119,3.19,67.925-3.541l.3-.049c19.553-2.539,42.573-7.559,66.948-13.991v3.173c-23.852,6.235-46.373,11.1-65.639,13.612-17.407,3.564-37.093,6.356-52.217,6.357C386.427,255.289,378.9,254.252,374.612,251.721Zm70.933-35.965c-3.4-1.193-5.534-2.812-6.349-4.817-13.139-7.568-10.485-21.355,7.357-37.949.924-1.224,1.815-2.46,2.711-3.7,5-6.929,10.176-14.094,21.132-19.528,10.341-5.063,25.361-9.591,43.1-13.539v3.165c-16.417,3.705-30.236,7.9-39.721,12.547-10.036,4.979-14.759,11.52-19.759,18.444-.929,1.283-1.853,2.566-2.815,3.836l-.167.183c-6.214,5.764-25.136,25.314-7.7,34.789l.61.331.139.471c.412,1.39,1.776,2.473,4.17,3.314,8.41,2.953,28.036,2.362,51.211-1.54l.311-.04q6.739-.636,13.716-1.58v2.965q-6.453.851-12.71,1.447a226.729,226.729,0,0,1-36.3,3.48C456.406,218.038,449.893,217.282,445.545,215.756Zm61.806-35.385c-23.589-1.056-27.993-6.083-27.53-10.114.678-5.918,13.2-13.741,33.68-21.557v3.537c-17.192,6.824-28.022,13.513-28.558,18.205-.569,4.958,12.093,6.571,22.812,7.05q2.886.129,5.746.221v2.895Q510.444,180.509,507.351,180.371Z" transform="translate(-13.033 -98.059)" fill="#141416" stroke="#141416" stroke-width="1"/></svg>