<svg xmlns="http://www.w3.org/2000/svg" width="238.501" height="450.507" viewBox="0 0 238.501 450.507"><path d="M46.863,475.476a35.2,35.2,0,0,0,2.889-4.026,16.108,16.108,0,0,0,1.893-3.78c.973-2.923,1.75-5.539,2.31-7.777.145-.587.347-1.158.525-1.662l.007-.02.008-.023a9.319,9.319,0,0,0,.719-3.126,25.481,25.481,0,0,0,.041-2.914v-.064a19.155,19.155,0,0,1,.174-3.956l0-.015c.412-2.267.838-4.612,2.936-6.288.925-.721,1.764-1.5,2.575-2.263l.032-.029.018-.017L61,439.5l.014-.013c.815-.763,1.657-1.553,2.6-2.285,2.119-1.544,2.787-3.548,2.1-6.3a12.1,12.1,0,0,1-.525-3.81,4.321,4.321,0,0,1,2-3.335,8.789,8.789,0,0,0,3.57-5.885c.5-2.319.929-4.648,1.348-6.9l.016-.089.006-.034.006-.029,0-.013c.642-3.459,1.305-7.035,2.194-10.586a74.385,74.385,0,0,1,3.989-11.556c1.017-2.591,2.156-5.138,3.257-7.6l.01-.021,0-.006.012-.027,0-.01,0-.006c1.419-3.179,2.886-6.465,4.066-9.765,1.512-3.935,2.7-8,3.859-11.929l.006-.022v-.005l.006-.019,0-.005.005-.023,0-.006,0-.013c.344-1.174.865-2.946,1.367-4.577.371-1.341.641-2.719.9-4.051l.007-.034a26.986,26.986,0,0,1,2.035-7.052c1.035-2.591,2.881-4.706,4.835-6.946l.006-.008.041-.047,0-.006c.4-.454.817-.938,1.206-1.4a33.917,33.917,0,0,1,3.961-3.557l.016-.013.009-.008.04-.031.039-.032,0,0c.779-.631,1.75-1.416,2.654-2.237a69.533,69.533,0,0,0,5.465-5.676c.929-.929,1.8-1.9,2.646-2.842l.036-.039.007-.008,0,0c.931-1.038,1.894-2.111,2.98-3.2-1.062-.29-2.085-.5-2.832-.659l-.028-.007h-.015l-.01,0a29.042,29.042,0,0,1-3.209-.8,2.649,2.649,0,0,1-1.592-1.68,1.379,1.379,0,0,1,.122-1.262,2.41,2.41,0,0,1,1.606-.5,2.941,2.941,0,0,1,.7.081c1.2.087,2.345.24,3.453.388l.013,0,.023,0,.017,0,.017,0a38.129,38.129,0,0,0,5.09.445c.32.011.694.017,1.111.017,5.922,0,11.425-1.469,17.252-3.023l.008,0,.54-.144c2.631-.692,5.3-1.581,7.881-2.442l.02-.006.012,0,.049-.016.009,0,.008,0,.046-.015.138-.046.05-.017c1.226-.409,2.494-.832,3.766-1.231a7.335,7.335,0,0,1,1.718-.241,2.295,2.295,0,0,1,2.383,1.642.974.974,0,0,1,.1.7,3.321,3.321,0,0,1-2.1,1.683,42.922,42.922,0,0,1-5.088,1.4c-.692.16-1.37.318-2.056.491-1.024.279-2.086.578-3.085.86l-.019.005-.3.084-.014,0-.016,0-.253.071c-5.629,1.6-11.448,3.245-17.329,3.592a6.937,6.937,0,0,0-1.833.3l-.015,0-.01,0-.014,0-.006,0-.049.013c-.124.032-.25.065-.383.1a6.124,6.124,0,0,0,3.57,1.264c1.2.217,2.4.319,3.57.418l.023,0c1.178.1,2.4.207,3.551.417a71.32,71.32,0,0,0,13.034,1.481,39.18,39.18,0,0,0,4.194-.218,7.268,7.268,0,0,1,.788-.042,18.464,18.464,0,0,1,4.108.65l.01,0,.009,0,.008,0,.052.013c.358.086.647.152.909.21.406,0,.842.616.842,1.051s-.436,1.051-.842,1.051a6.926,6.926,0,0,1-2.732.842c-2.419.162-4.549.24-6.512.24a50.592,50.592,0,0,1-11.975-1.292c-1.333-.222-2.872-.443-4.2-.628a.758.758,0,0,1-.1.307l0,.006,0,0a.744.744,0,0,0-.1.311c.305.205.622.469.9.7l.024.019.013.012.009.008a11.864,11.864,0,0,0,.945.735l6.935,4.412a4.062,4.062,0,0,1,.735,1.566l0,.006c.013.044.028.087.041.13l0,.007c.02.062.039.123.059.183-.2.066-.4.153-.589.237l-.019.009-.013.005-.01,0-.006,0a3.263,3.263,0,0,1-1.255.37,22.527,22.527,0,0,1-3.968-1.664l-.01-.005-.011-.005c-.866-.432-1.758-.915-2.475-1.3l-.008,0-.006,0-.02-.011-.014-.007-.014-.007-.034-.018,0,0-.005,0c-1.256-.679-2.556-1.381-3.937-2.008a5.54,5.54,0,0,0,.115.981l0,.013,0,.011a4.064,4.064,0,0,1,.09.677,29.278,29.278,0,0,1,.211,12.817c-.84,4.828-1.476,9.706-1.892,14.5-.21,3.138-.21,6.435-.21,9.624v.041c.037.425.063.868.086,1.285l0,.006c.108,1.931.221,3.928,1.594,5.644a39.351,39.351,0,0,0,10.083,8.614l.005.005c.205.206.418.419.418.625,0,.41,0,1.264-.211,1.47a4.908,4.908,0,0,1-1.681.418l-.041-.015-.006,0-.013,0-.007,0a51.233,51.233,0,0,1-4.977-2.076l-.029.11-.027.105-.013.055a3.186,3.186,0,0,0-.141,1.831,7.362,7.362,0,0,1-.263,4.177,8.974,8.974,0,0,1-2.47,3.39c-3.541,3.332-4.8,7.864-5.882,12.607-1.427,6.192-1.015,11.415,1.26,15.968a33.141,33.141,0,0,0,2.733,4.621c.5.594.967,1.2,1.423,1.781l.064.081.061.079,0,0a23.141,23.141,0,0,0,4.962,5.2,16.608,16.608,0,0,0,9.2,2.72,12.118,12.118,0,0,0,7.182-2.089,19.877,19.877,0,0,1,2.492-1.445l.007,0,.014-.008.009,0a19.771,19.771,0,0,0,1.894-1.062c.321-.216.65-.434,1-.667l.012-.008.005,0a43.048,43.048,0,0,0,8.011-6.251,73.708,73.708,0,0,0,8.405-11.556,65.716,65.716,0,0,0,4.834-11.98,28.267,28.267,0,0,0,.627-7.322v-.032a15.334,15.334,0,0,1-.837-6.274V385.3a7.426,7.426,0,0,1-1.6.915l-.015.007-.049.023c-.078.035-.158.071-.23.106a10.859,10.859,0,0,1-5.884,2.732l-.011,0H169.5a11.513,11.513,0,0,1-2.21.287,4.835,4.835,0,0,1-.924-.085c-.835-.12-1.739-.241-2.465-.338l-.06-.008-.061-.008-.034,0-.172-.023h-.012l-.04-.005-.339-.046-.129-.017c-.457-.062-.9-.121-1.31-.179l-.037-.005-.475-.072-.046-.007c-2.476-.37-4.814-.719-6.377-3.067a2.351,2.351,0,0,1-.464-1.2l-.005-.031,0-.01a5.68,5.68,0,0,0-.156-.647h2.31c.249,0,.5.225.741.442l.005,0,.006,0,.005.005a2.369,2.369,0,0,0,.5.383,16.57,16.57,0,0,0,6.775,1.44,17.275,17.275,0,0,0,5.2-.81,13.277,13.277,0,0,0,4.016-2.366l.012-.007.014-.011,0,0,.031-.023c.517-.39,1.051-.794,1.6-1.158.257-.207.5-.43.8-.7l0,0a5.557,5.557,0,0,1,2.553-1.611c2.052-.316,3.278-1.583,4.464-2.808l0,0,.017-.018c.36-.372.767-.792,1.186-1.159a20.445,20.445,0,0,0,3.2-4.055l.006-.008.006-.008.006-.011.019-.027.007-.013,0,0a34.286,34.286,0,0,1,2-2.81,31.391,31.391,0,0,0,4.781-8.536,57.28,57.28,0,0,0,2.574-9.324,174.293,174.293,0,0,0,3.575-34.668c0-7.015,0-13.639-.633-20.593-.658-7.009-1.018-13.333,1.26-19.748a2.027,2.027,0,0,0-.419-1.893c-1.525-2.539-2.976-5.006-4.717-7.967l-.007-.013-.184-.312-.2-.334-.085-.145-.032-.054c-1.5-2.556-2.862-4.858-4.233-7.143-.532-.956-1.118-1.806-1.683-2.628l-.009-.014-.018-.026,0-.006c-.554-.806-1.128-1.641-1.647-2.578a3.85,3.85,0,0,0-3.114-1.567h-.023c-.05,0-.107,0-.173,0a2.694,2.694,0,0,0-1.732.523c-.379.378-.761.775-1.1,1.125l-.006.006-.013.014-.014.014,0,0-.014.015a30.368,30.368,0,0,1-3.47,3.232c-3.055,2.763-6.189,5.409-9.221,7.968l-.006.005,0,0,0,0-.032.027-.017.015c-1.177.993-2.714,2.291-4.162,3.532L150.4,279.2l-.114.091-.019.015c-5.11,4.088-10.393,8.314-15.835,12.291a46.522,46.522,0,0,1-4.866,3.138l-.022.013-.017.01h-.005l-.029.019-.016.009c-1.22.717-2.482,1.458-3.658,2.272a59.039,59.039,0,0,1-19.332,8.4,63.33,63.33,0,0,1-6.39,1.055l-.037,0-.051.007c-1.3.168-2.777.358-4.236.616l-.455.089-.015,0a16.44,16.44,0,0,0-2.892.75c-1.305.579-2.617,1.214-3.886,1.828l-.087.042-.083.04-.009,0-.079.038-.006,0c-2.388,1.158-4.857,2.356-7.405,3.3A73.4,73.4,0,0,1,69.3,316.806c-3.778.786-7.615,1.226-11.326,1.651-1.441.164-2.64.3-3.806.449-2.556.364-4.972.612-7.3.746v-3.944c4.159-.285,8.512-.756,13.185-1.424,4.21-.672,8.4-1.748,12.449-2.787l.023-.006.128-.032.036-.009.024-.006.013,0,.057-.014c.919-.236,1.869-.479,2.82-.716,1.892-.542,3.565-1.151,5.184-1.74l.024-.009.051-.018.005,0,.1-.038c.8-.291,1.711-.621,2.614-.922v-.631c-.6-.133-.987-.22-1.33-.3l-.18-.04-.117-.026-.1-.023-.049-.011c-3.163-.709-6.15-1.378-9.353-1.913a4.007,4.007,0,0,0-1.473.419l-6.3,3.151A32.834,32.834,0,0,1,52.6,310.951c-.473,0-.937-.01-1.379-.031-1.517,0-2.968-.053-4.363-.162v-3.822c.556.043,1.14.1,1.613.143l.116.011.044,0,.018,0,.093.009h.014c1.54.148,3.133.3,4.792.3.58,0,1.123-.018,1.662-.056a48.409,48.409,0,0,0,7.552-1.466l.089-.032.072-.027c1.313-.492,3.112-1.167,5.526-2.046a4.8,4.8,0,0,1-.822-.523l-.008-.007a1.076,1.076,0,0,0-.641-.311c-.341-.124-.713-.257-1.2-.432l-.021-.008-.008,0a53.074,53.074,0,0,1-5.707-2.291,46.726,46.726,0,0,1-13.185-10.69V282.63a17.863,17.863,0,0,0,2.047,2.658,39.014,39.014,0,0,1,2.611,3.008l.02.023,0,.006.008.009a24.625,24.625,0,0,0,4.084,4.307c5.536,4.027,10.409,6.5,15.334,7.773.874.23,1.738.467,2.777.752l.042.012.029.008.005,0a79.789,79.789,0,0,0,9.337,2.168,43.766,43.766,0,0,0,6.735.5c1.807,0,3.712-.1,5.663-.293a54.068,54.068,0,0,0,12.974-2.547,71.118,71.118,0,0,0,12.03-5.225,9.24,9.24,0,0,0,1.84-1.315l.011-.008a9.877,9.877,0,0,1,1.3-.987l.005,0,.009-.005.007,0,.011-.007c5.773-3.506,11.743-7.132,16.777-11.745a30.591,30.591,0,0,1,4.687-3.605l.053-.035.047-.031.012-.008c.8-.54,1.7-1.151,2.554-1.786,2.608-1.807,5.368-3.913,7.983-6.09,2.434-2.03,4.883-4.272,7.253-6.442l.023-.021.05-.047,0,0,.019-.017.212-.194c2.059-1.843,4.166-3.785,5.859-5.343l0,0,.058-.053.043-.04,0,0,.008-.007.022-.021c1.731-1.593,3.884-3.576,5.98-5.452.336-.337.718-.695,1-.957l.052-.049.028-.026.013-.012a27.039,27.039,0,0,0,2.271-2.318,1.153,1.153,0,0,1-.166-.224l0,0c-.07-.113-.121-.2-.25-.2l-8.195-3.779a.565.565,0,0,0-.249-.055,2.166,2.166,0,0,0-1.224.684c-.836.835-1.7,1.752-2.459,2.561l-.055.058,0,0-.007.008,0,.005-.043.046,0,.005-.052.057-.057.059c-.77.817-1.567,1.661-2.354,2.448l-.026.026c-4.73,4.936-9.62,10.041-14.681,14.683-3,2.606-6.2,5-9.3,7.317l-.014.011-.014.011-.079.059-.012.008-.049.038-.006,0c-1.76,1.317-3.756,2.809-5.658,4.317A116.464,116.464,0,0,1,113.209,289.9a62.761,62.761,0,0,1-9.139,3.247l-.007,0-.012,0-.037.011-.006,0-.036.011c-2.022.6-4.109,1.228-6.1,1.975a30.072,30.072,0,0,1-10.141,1.664,55.069,55.069,0,0,1-13.18-1.868A55.157,55.157,0,0,1,64.225,290.8l-.01,0-.214-.1-.022-.011-.088-.042-.021-.01c-.526-.253-1.023-.492-1.511-.723a12.336,12.336,0,0,1-3.78-2.729c-1.169-1.275-2.313-2.638-3.322-3.841l-.006-.007-.033-.04,0,0-.034-.04-.049-.057,0,0-.005-.005c-.939-1.119-2.108-2.511-3.268-3.777-.115-.115-.258-.252-.394-.383l-.031-.03-.01-.01a4.933,4.933,0,0,1-1.667-2.306c-.87-2.9-1.549-5.936-2.2-8.874l-.006-.03v-.009l-.016-.069,0-.007-.014-.062,0-.005c-.214-.962-.427-1.908-.644-2.85V242.117c.054-.318.107-.635.16-.953a15.114,15.114,0,0,1,5.462-9.664,2.035,2.035,0,0,0,.209-1.893c-.709-1.065-1.8-2.768-2.942-4.834h0c-.155.235-.311.439-.45.619l-.031.04-.021.026-.01.014-.025.032,0,0a4.691,4.691,0,0,0-.509.739c-.318.635-.668,1.329-.96,1.908l-.01.02,0,.008,0,.006q-.435.863-.86,1.71v-7.756a4.827,4.827,0,0,0,.369-2.831q-.18-.722-.369-1.462V180.878a24.8,24.8,0,0,0,1.568,2.862l.019.032,0,0,.014.026c.239.4.567.937.861,1.466a6.023,6.023,0,0,1,.894,3.178,9.71,9.71,0,0,1-.684,3.335c-.086.172-.174.342-.258.507l0,.005,0,.008-.038.074-.007.016a10.119,10.119,0,0,0-1.159,2.96,40.571,40.571,0,0,0,2.938,24.376c2.486,5.327,5.208,10.233,8.09,15.428l.011.019.139.251.053.1.121.219.036.064.485.878.01.017.253.457.067.121.4.729a39.552,39.552,0,0,0,5.6,7.669,60.139,60.139,0,0,0,7.012,6.408,6.447,6.447,0,0,0,2.514,1.048c.111-1.045.164-2.048.211-2.934l0-.016c.047-.9.1-1.923.213-2.931,0-.439-.217-1.259-.629-1.259-2.06-.859-2.983-2.526-3.958-4.292l0-.012-.039-.068-.006-.01,0-.007c-.212-.381-.405-.725-.614-1.076a32.963,32.963,0,0,1-1.68-3.362l-.014-.03a33.818,33.818,0,0,0-1.667-3.331,2.109,2.109,0,0,1-.39-1.616c.125-.414.494-.748,1.231-1.116a7.646,7.646,0,0,1,2.1-.419,50.485,50.485,0,0,0,8.4,15.549,16.159,16.159,0,0,1,1.724,3.009l0,.009.034.07c.133.275.241.494.339.692a3.42,3.42,0,0,0,2.869,1.791,2.256,2.256,0,0,0,.7-.109c.5-.25,1.016-.508,1.06-.9.033-.283-.175-.607-.638-.991A4.523,4.523,0,0,1,84,248.095c-.349-.792-.69-1.586-1.01-2.33l0-.005,0-.009,0,0-.022-.049c-1.13-2.616-2.3-5.322-3.585-7.9l-.026-.056-.014-.031-.017-.036c-1.011-2.223-2.056-4.522-3.3-6.812-.6-1.41.122-1.842,1.124-2.44l.136-.081a1.759,1.759,0,0,1,.895-.3c.508,0,.945.35,1.42,1.137,1.044,2.4,2.156,4.9,3.139,7.093l.067.149.009.02,0,.005.052.116.006.015.126.281,0,.01,0,.014,0,.008,0,.01c.964,2.157,2.056,4.6,3.094,6.987a13.167,13.167,0,0,0,1.678,2.938.762.762,0,0,0,.31-.1l.011,0a.754.754,0,0,1,.31-.1l-.042-.231,0-.014-.045-.242-.026-.146c-.013-.068-.026-.138-.039-.207l-.005-.031-.009-.055,0-.009-.006-.031,0-.027-.005-.03c-.352-1.919-.684-3.731-.861-5.7a.767.767,0,0,0,.313-.1.781.781,0,0,1,.318-.1,27.893,27.893,0,0,1,4.621,8.614c.255-.552.544-1.112.776-1.562l.01-.019,0-.006.018-.032c1.119-2.171,2.176-4.222,1.5-6.576-.257-.768-.493-1.58-.7-2.3l0-.01,0-.008v-.006l0-.006,0-.014a21.043,21.043,0,0,0-3.064-7.112,7.7,7.7,0,0,1-1.05-2.311l-3.151-11.978a2.137,2.137,0,0,1,.091-1.6,1.347,1.347,0,0,1,.959-.5l.159-.033.1-.02.018,0a5.5,5.5,0,0,1,1.135-.163,1.54,1.54,0,0,1,1.53,1.061c.525,1.366,1,2.784,1.455,4.154l.013.039.006.023,0,.01.012.033.005.017,0,.007c.456,1.367.928,2.781,1.445,4.12l.015.041.009.023c.769,1.922,1.641,4.1,2.5,6.031.269.447.59.694.905.694.366,0,.662-.345.774-.9.124-.814.291-1.65.437-2.387l0-.016,0-.012a20.58,20.58,0,0,0,.607-5.571,20.314,20.314,0,0,0-1.148-4.866l0-.014,0-.007a24.778,24.778,0,0,1-1.156-4.568,13.757,13.757,0,0,0-3.1-6.987,22.159,22.159,0,0,0-5.936-4.779,33.9,33.9,0,0,0-4.621-2.734,25.985,25.985,0,0,0-4.176-2.087l-.021-.01-.007,0a23.836,23.836,0,0,0-8.147-1.2c-1.485,0-2.941.072-4.349.142h-.036l-.075,0c-2.811.215-5.693.668-7.353,3.574a1.1,1.1,0,0,1-.313.21l-.01.005-.005,0-.006,0a1.085,1.085,0,0,0-.3.2c-.671-3.128.146-4.887,2.732-5.882l.051-.017.007,0a27.571,27.571,0,0,1,5.613-1.455c1.4-.1,2.665-.142,3.865-.142a40.256,40.256,0,0,1,5.381.347,19.256,19.256,0,0,1,6.727,2.1c2.424,1.293,4.549,2.681,6.8,4.151l.03.019.027.018.009.006.362.236.034.023.18.118.107.07c.417.272.849.553,1.274.825a25.066,25.066,0,0,1,4.413,3.571,30.481,30.481,0,0,1,2.5,3.445l.009.013.016.025.027.042.032.048,0,0,0,.005c.319.487.647.989.984,1.461h.024a19.774,19.774,0,0,1,3.546.205l.023.005c3.065.615,6.233,1.251,9.642,1.678a86.178,86.178,0,0,0,10.459.419h.047a98.478,98.478,0,0,0,11.137-.632l.27-.041.016,0,.1-.014.07-.01.04-.005h.009c1.18-.164,2.517-.349,3.066-1.813.419-1.365.877-2.911,1.151-3.833l0-.009.1-.32.007-.022.005-.019.029-.1,0-.008.119-.4.005-.018c.339-1.143.725-2.439,1.106-3.676.152-.457.277-.945.388-1.375l.006-.025,0-.016V197.3a12.9,12.9,0,0,1,.86-2.57c.523-1.152,1.118-2.345,1.643-3.4l.005-.01.028-.056.005-.009c.53-1.06,1.13-2.258,1.678-3.463l.005-.014c1.445-3.3,2.938-6.714,2.728-10.492,0-1.47,1.276-1.47,2.3-1.47h.007a1.751,1.751,0,0,1,1.382.487,1.984,1.984,0,0,1,.3,1.614c-.632,4.633-2.335,9.106-3.983,13.432l0,.01c-1.8,4.2-3.5,8.8-5.045,13.663-.7,2.227-1.214,4.666-1.714,7.023l-.008.04-.005.029,0,.006v.006l-.018.084-.027.128c-.213,1-.477,2.245-.748,3.4a6.161,6.161,0,0,1-1.291.176c-1.058,0-1.619-.561-2.071-2.069-.419-1.049-1.037-1.049-1.891-1.049-1.484.056-3.009.127-4.122.178h-.018c-3.137.146-6.381.3-9.633.3-1.149,0-2.211-.018-3.246-.056a94.128,94.128,0,0,1-9.921-1.178l-.029,0-.151-.023-.011,0-.179-.027-.013,0-.06-.009c-.887-.137-1.894-.291-2.871-.431a15.178,15.178,0,0,0-2.931-.2h-.01c.833,3.547,1.459,6.466,2.065,9.291l.019.087v.005l0,.018.008.037,0,.017a2.362,2.362,0,0,0,.628,1.258,15.928,15.928,0,0,0,4.416.629H121.61c2.742-.228,5.079-.428,7.354-.629a54.238,54.238,0,0,0,6.465.819l.02,0h.019l.219.02v-.016a3.069,3.069,0,0,1,.212-1.458c.032-.1.066-.211.094-.31l.014-.043.009-.031.02-.067.014-.048a4.08,4.08,0,0,1,.69-1.6.609.609,0,0,1,.276-.055,2.26,2.26,0,0,1,1.615.9,14.028,14.028,0,0,1,1.534,1.939l.008.012c.2.283.375.536.56.782.617.927,1.205,1.94,1.724,2.836l.014.023.021.037,0,.007.022.036,0,.006,0,.007c.567.978,1.153,1.989,1.78,2.929a1.85,1.85,0,0,0,1.4.685.65.65,0,0,0,.285-.054,2.537,2.537,0,0,0,1.051-1.683,10.95,10.95,0,0,1,.627-5.251,51.334,51.334,0,0,0,1.683-5.254c1.229-3.6,2.447-7.28,3.522-10.525l.082-.248.062-.186.022-.066.006-.019,0-.012,0-.006.005-.017c1.418-4.286,3.182-9.62,4.91-14.552.207-.555.447-1.137.658-1.637l0-.009.013-.03,0-.011,0-.007a24.293,24.293,0,0,0,1.21-3.35,4.367,4.367,0,0,1,.168-.5,1.579,1.579,0,0,0,.144-1.237,1.362,1.362,0,0,0-.944-.572,2.654,2.654,0,0,1-1.742-1.2,3.055,3.055,0,0,1,.273-2.377c.2-.393.428-.838.211-1.049a18.39,18.39,0,0,1-1.391-3.032l0-.005c-.745-1.928-1.516-3.92-3.438-5.154-.212,0-.212-.442-.212-.631-.164-.534-.339-1.073-.508-1.594l-.046-.141-.005-.017-.054-.167-.039-.118,0-.008-.005-.014a39.5,39.5,0,0,1-1.65-6.135,72.8,72.8,0,0,0-3.993-14.708c-1.382-3.084-2.653-6.21-3.882-9.234l0-.01,0-.01-.022-.052-.005-.014,0-.007-.027-.066c-1.219-2.994-2.478-6.086-3.826-9.094-1.87-4.247-3.991-8.453-6.042-12.52l-.033-.068-.246-.488c-.387-.768-.824-1.638-1.242-2.473-2.551-5.312-4.879-10.606-7.131-15.725l-.009-.022,0-.01c-1.512-3.025-2.965-6.15-4.2-9.038-.189-.374-.344-.773-.446-1.036l-.006-.013a6.974,6.974,0,0,0-.6-1.262c-1.058-2.328-2.326-4.865-3.57-7.144a1.849,1.849,0,0,0-1.273-.677l0-.005h-.042a.864.864,0,0,0-.367.051,10.7,10.7,0,0,0-3.145,1.466l-.006,0-.087.056-.02.012-.039.025c-4.08,2.654-8.3,5.4-12.252,8.312a32.98,32.98,0,0,0-11.133,14.5,23.069,23.069,0,0,0-.841,11.975,3.255,3.255,0,0,1-.34,2.645,2.005,2.005,0,0,1-1.626.6,6.027,6.027,0,0,1-.977-.089,20.952,20.952,0,0,0-3.107-.285,7.4,7.4,0,0,0-4.88,1.543,25.563,25.563,0,0,0-4.858,5.594,16.826,16.826,0,0,0-2.495,7.013c-.206,1.442.363,1.857,1.473,2.524a27.885,27.885,0,0,1,3.962,2.917l.007.006.006,0,.007.005.011.009a1.36,1.36,0,0,1,.22.608l0,.006a2.715,2.715,0,0,0,.2.643h-.015a3,3,0,0,0-.376.034l-.031,0-.028,0a4.221,4.221,0,0,1-.544.049,1.071,1.071,0,0,1-.476-.091c-.856-.285-1.712-.668-2.618-1.074l-.026-.012-.027-.013-.012-.005-.013-.006-.02-.008-.075-.033c-.4-.177-.784-.351-1.2-.531a3.005,3.005,0,0,1-1.263,2.444,5.8,5.8,0,0,1-2.522.707,3.654,3.654,0,0,0-1.47.205,11.9,11.9,0,0,0-7.092,4.177,10.262,10.262,0,0,0-1.734,7.8,15.543,15.543,0,0,0,1.229,4.107l.006.011.014.034.007.018.015.04c.118.292.271.673.412,1.044.719,2.644,2.162,4.019,4.41,4.2a1.626,1.626,0,0,1,.735.28l.007,0a3.966,3.966,0,0,0,.733.345c-.24.84-.626,1.2-1.289,1.2a5,5,0,0,1-.911-.122l-.012,0-.007,0-.1-.019a10.062,10.062,0,0,0-1.847-.18,8.659,8.659,0,0,0-6.345,2.912,5.574,5.574,0,0,1-.578.483l-.012.009-.021.016-.009.005-.007.006-.013.009-.009.007-.007.005a5.3,5.3,0,0,0-.609.508,12.192,12.192,0,0,0-3.094,3.733V165.91a18.77,18.77,0,0,1,2.261-1.857,16.1,16.1,0,0,0,2.581-2.347l.085-.09.009-.009c.2-.212.437-.46.684-.706,1.1-1.472.427-2.961-.172-4.274l-.019-.04-.017-.037-.005-.012c-.067-.147-.142-.314-.208-.471a14.142,14.142,0,0,1-.839-9.246c.981-3.918,3.455-6.6,7.564-8.2.531-.229,1.139-.435,1.674-.617l.01,0,.007,0,.007,0,.007,0a12.948,12.948,0,0,0,2.914-1.259c.949-.713,1.052-2.442,1.052-3.152a19.781,19.781,0,0,1,1.47-6.962,18.019,18.019,0,0,1,3.992-5.859,10.268,10.268,0,0,0,1.312-1.685l.006-.009c.175-.263.363-.543.574-.824,1.786-1.968,4-2.257,6.34-2.563l.085-.011h.007l.1-.013h.01c.315-.042.673-.09,1.021-.144,2.314-.212,2.314-.646,2.314-2.73a54.536,54.536,0,0,1,.83-8.162l0-.006,0-.012,0-.007,0-.008a17.007,17.007,0,0,1,4.2-8.2c2.036-2.406,2.6-5.579,3.144-8.648.093-.529.161-.907.222-1.225.215-.865.46-1.75.673-2.512l.005-.021a49.879,49.879,0,0,0,1.208-5.031A20.8,20.8,0,0,1,94.6,71.708l.006-.011,0-.007,0-.005.022-.045.017-.033c.4-.788.9-1.769,1.324-2.735a4.56,4.56,0,0,0,.209-2.942l-.006-.041,0-.01-.028-.167v-.005c-.353-2.117-.792-4.751-1.222-7.551-.4-3.01.54-5.64,1.537-8.426l0-.005.142-.4A4.094,4.094,0,0,1,98.5,47.441c.933-.534,1.868-1.077,2.859-1.654l.055-.032.018-.011.005,0c3.392-1.975,6.9-4.016,10.506-5.654,3.8-1.6,7.727-3.521,10.72-6.726q1.73-1.73,3.554-3.861h5.523a36.523,36.523,0,0,1-11.6,10.166c-3.851,2.2-8.024,4.085-12.06,5.908l-.013.006-.042.018-.372.168-.229.1-.056.024-1.094.5a12.587,12.587,0,0,0-4.229,3.071,8.285,8.285,0,0,0-1.866,5.12,44.5,44.5,0,0,0,1.26,11.769,1.981,1.981,0,0,1-.211,1.888c-2.608,3.26-3.676,7.1-4.618,10.491v.006c-.546,1.822-.926,3.748-1.293,5.609l-.007.032v.015c-.022.109-.045.218-.066.325l-.011.06-.011.049-.065.325-.022.111.423.418A87.187,87.187,0,0,1,107.376,77.8a58.677,58.677,0,0,1,13.395-5.359c-1.078-3.236.3-5.816,1.678-7.981a55.988,55.988,0,0,1,5.868-7.968l0,0,.007-.009,0,0c.779-.934,1.57-1.92,2.148-2.639l.04-.05c1.3-1.625,2.534-3.157,3.906-4.665l0,0,.034-.039.013-.016c3.9-4.314,7.937-8.772,12.132-12.966a79,79,0,0,1,5.98-5.255l.022-.019.014-.013,0,0c.5-.41,1.034-.849,1.583-1.305h6.877c-1.04.823-2.088,1.608-3.121,2.382l-.006,0,0,0c-.562.461-1.129.911-1.706,1.37l-.023.017-.1.076-.005,0-.014.012-.008.006-.008.006a55.108,55.108,0,0,0-4.865,4.182c-3.335,3.472-6.523,6.987-9.607,10.386l-.083.092-.014.015,0,0-.161.177-.031.034-.008.01-.337.371-.006.008c-1.378,1.517-2.8,3.086-4.25,4.66-.649.725-1.35,1.484-1.912,2.094l-.074.08-.014.014-.121.131-.007.007-.005.005c-2.942,3.183-5.72,6.19-7.741,10.065a22.508,22.508,0,0,0-1.252,3.342l-.005.015-.007.021c-.194.617-.4,1.253-.627,1.875a1.45,1.45,0,0,0,.367.6,1.111,1.111,0,0,0,.683.447,26.029,26.029,0,0,0,2.811.154,21.881,21.881,0,0,0,2.651-.154c.868,0,2.1-.435,2.1-.841.022-.164.051-.352.087-.575l0-.027.008-.05,0-.011.007-.037,0-.035v-.013l0-.006V70.42a9.1,9.1,0,0,0,.093-3.859c-.824-2.262.171-3.938,1.26-5.462a48.9,48.9,0,0,1,6.651-6.28l.285-.237c.374-.334.743-.676,1.217-1.12l.009-.008a15.15,15.15,0,0,1,4.444-3.284A34.359,34.359,0,0,1,153.9,48.4l.056-.012.018,0c.973-.212,2.076-.452,3.143-.736l.3-.056.072-.013a2.583,2.583,0,0,0,2.361-1.613,11.994,11.994,0,0,1,2.143-3.09l.018-.02c.191-.221.378-.437.572-.671.852-.958,1.8-1.961,2.558-2.767l.007-.009.039-.04.039-.041.011-.012.042-.045.045-.048.008-.009.043-.045,0-.005c.774-.82,1.651-1.75,2.456-2.656.327-.327.619-.682.9-1.026l.011-.014.016-.02.006-.008.012-.014a10.77,10.77,0,0,1,1.573-1.646c1.085-.882,2.172-1.743,3.283-2.623l.036-.029.011-.008.007-.006.029-.023.073-.058.025-.02q.945-.749,1.906-1.515h6.277a111.438,111.438,0,0,0-14.8,13.729,2.25,2.25,0,0,0-.419,1.669v.008a2.012,2.012,0,0,1,.076,1.74c-.255.418-.813.668-1.758.784a3.434,3.434,0,0,0-1.892,1.049c-.479.763-.971,1.6-1.406,2.336l-.068.115-.061.1-.044.075-.042.071-.006.011-.031.054,0,0c-.464.788-.989,1.682-1.49,2.482h-.628l-.031-.063-.01-.02-.009-.018c-.377-.752-.8-1.6-1.212-2.632-.29-.018-.576-.027-.849-.027a15.9,15.9,0,0,0-8.608,2.759,57.929,57.929,0,0,0-7.546,6.706l-.018.017a9.734,9.734,0,0,0-2.729,4.411,8.2,8.2,0,0,0,.172,3.577l0,.007.014.072c.085.454.175.934.232,1.387a44.571,44.571,0,0,1,.418,5.252c0,.328-.012.677-.022.978v.011l0,.065v.047a8.862,8.862,0,0,0,.24,3.1c1.471,4.844,3.16,9.489,4.793,13.981l.009.023.014.036.013.036a52.034,52.034,0,0,1,1.682,5.251,12.213,12.213,0,0,1,.372,1.6l0,.012a8.727,8.727,0,0,0,.677,2.381c1.736,3.47,3.786,7.218,6.1,11.138.494.807.968,1.595,1.572,2.6l.013.02.008.013.092.153.025.043.03.05.022.039c1.069,1.781,2.175,3.623,3.276,5.275a16.139,16.139,0,0,0,3.5,3.608l.005,0,.132.111.566.479a16.307,16.307,0,0,0,2.489,1.62l.023.014.031.017c.5.287.983.558,1.45.869l10.715,7.565a11.674,11.674,0,0,0,1.121.715l.01.005.01,0,.006,0a6.84,6.84,0,0,1,1.376.953,2.024,2.024,0,0,1,.419,1.892c0,.408-.82.84-1.26.84h-.04a6.6,6.6,0,0,1-2.9-.418c-3.647-1.345-6.555-3.535-9.635-5.855l-.007-.006-.007-.005-.009-.008-.348-.261-.014-.012-.243-.183-.242-.182c-1.355-1.145-2.692-2.328-3.984-3.473l-.034-.031-.046-.04-.116-.1-.007-.008-.011-.009c-1.234-1.091-2.633-2.326-4-3.482l-2.73-2.733a1.586,1.586,0,0,0-.211.839c.86,3.019,1.961,6.1,2.932,8.815l.006.014c0,.13.233.258.459.383l.011.005.008.005.005,0a1.888,1.888,0,0,1,.357.232c.252.189.493.353.74.518l.005,0a4.821,4.821,0,0,1,1.356,1.16,17.034,17.034,0,0,1,1.219,2.992l.013.033.007.022c.2.6.41,1.215.652,1.783.175.5.355,1.025.528,1.526l.027.077.134.387.177.516.022.061.11.319.032.094,0,.01.006.021.014.041.019.057c1.318,3.82,2.682,7.771,4.18,11.6.659,1.983,1.495,3.9,2.3,5.752l.008.019.013.027.028.068,0,.005c.422.968.947,2.173,1.429,3.375l.211.205c.442.776.912,1.66,1.256,2.306l0,.005c.424.8.84,1.58,1.26,2.313a2.254,2.254,0,0,0,1.26,1.47c.438.175.88.355,1.293.525l.086.035.021.008.02.009.015.006c1.567.639,3.047,1.244,4.659,1.728,1.6.565,3.272,1.111,4.491,1.51l.062.021.024.008.082.027.007,0c1.914.628,3.894,1.277,5.839,2.005a9.526,9.526,0,0,0,3.055.762,2.968,2.968,0,0,0,2.622-1.6,2.985,2.985,0,0,1,.408-.311l.011-.007a3.247,3.247,0,0,0,.419-.313l9.454-7.564c2.672-2.227,5.517-4.548,7.594-6.242l.066-.053.009-.007.009-.007.006-.005.079-.065.02-.015.1-.084.267-.219.023-.019c2.355-1.924,4.791-3.913,7.164-5.889.435,0,.776-.4,1.207-.917l.005-.006.016-.018.013-.015c.178-.211.4-.471.65-.721-.332-.055-.651-.1-.932-.131l-.036,0-.038,0-.046-.006h-.009a6.41,6.41,0,0,1-2.092-.483c-.849-.3-1.707-.592-2.538-.871l-.052-.018-.005,0-.008,0-.022-.008-.016-.005-.006,0-.009,0-.028-.009a58.622,58.622,0,0,1-5.928-2.232c-3.792-1.8-8.722-4.224-13.239-6.935-4.508-2.641-8.159-6.383-11.691-10l0,0-.063-.065c-1.1-1.125-2.465-2.524-3.792-3.8a1.5,1.5,0,0,1-.627-1.258c-.063-.439-.145-.894-.224-1.333l0-.011,0-.01v-.008l-.01-.057-.005-.028a18.681,18.681,0,0,1-.388-3.175c0-5.838.212-11.777.632-17.651.079-1.193.161-2.4.238-3.544l0-.032.02-.3.052-.748.031-.474,0-.054.005-.079.014-.2v-.009c.08-1.174.169-2.481.258-3.805.164-4.267,1.622-8.312,3.032-12.222l.006-.016,0-.006,0-.013c.384-1.066.79-2.2,1.157-3.291a66.863,66.863,0,0,1,8.828-16.178l.037-.049c.014-.02.027-.037.041-.055l.006-.007.052-.069,0-.007a7.614,7.614,0,0,0,1.536-2.755,4.3,4.3,0,0,1,1.05-2.234,3.587,3.587,0,0,1,2.311-.5c.935,0,1.907-.052,2.764-.1h.011l.055,0h.032c.923-.049,1.876-.1,2.813-.1.3-.051.62-.116.917-.178l.017,0a10.578,10.578,0,0,1,2.125-.292,4.426,4.426,0,0,1,.721.056c1.589.073,3.124.121,4.56.163h.035c2.927.09,5.954.183,9.061.464a41.3,41.3,0,0,1,17.024,5.884c.724.484,1.508,1,2.083,1.38l.141.094.059.039.025.016.153.1.065.041.041.027.013.009.006,0c2.946,1.942,5.99,3.948,8.756,6.062,2.094,1.675,4.03,3.562,5.9,5.388l.012.011.022.022.005.005.147.143c.836.815,1.784,1.741,2.74,2.625a44.368,44.368,0,0,1,7.563,9.034,34.141,34.141,0,0,1,4.411,10.926,12.1,12.1,0,0,0,.509,1.7l0,.007,0,.012.007.018.01.028c.14.4.33.942.517,1.593,2.228-3.343,3.8-6.193,4.2-9.242a123.441,123.441,0,0,0,1.682-15.13,34.306,34.306,0,0,0-.842-10.3c-1.025-3.958-2.266-7.842-3.466-11.6l0-.014-.009-.032c-.5-1.569-1.04-3.255-1.563-4.954l-.02-.056-.005-.02-.026-.082c-.037-.108-.072-.219-.108-.328l0-.011a14.083,14.083,0,0,0-1.515-3.5c-.86-1.36-1.785-2.786-2.576-4l-.033-.051c-1.676-2.58-3.408-5.248-4.958-7.925a29.353,29.353,0,0,0-5.991-7.221h4.648l.083.083a52.993,52.993,0,0,1,7.25,9.836l.229.364c.219.35.453.722.681,1.086l.036.057a57.838,57.838,0,0,1,5.462,10.086,162.889,162.889,0,0,1,5.676,18.911,35.005,35.005,0,0,1,.837,10.506,83.031,83.031,0,0,1-1.888,14.5,30.53,30.53,0,0,1-3.088,7.657l0,.009-.007.015-.066.128c-.189.369-.41.8-.619,1.223a25.985,25.985,0,0,1-1.607,3l-.013.022-.006.011-.007.012c-.231.387-.456.766-.678,1.154-2.108,3.372-4.44,6.551-6.7,9.626l-.013.021-.014.02c-.35.524-.661,1.08-.962,1.617l-.027.049,0,.006-.014.025a15.149,15.149,0,0,1-1.307,2.083c-2.956,3.8-6.139,7.407-9.218,10.9l-.011.014-.009.009-.009.011c-2.721,2.93-5.7,5.909-8.614,8.614-.355.354-.59.652-.591.965a1.034,1.034,0,0,0,.383.713,3.3,3.3,0,0,1,.22.83l0,.009v.01l0,.023a5.485,5.485,0,0,0,.192.811c.071.286.141.6.211.9v.006l.023.1.034.149.036.164.006.025,0,.01v.006l.024.112,0,.008c.092.414.191.852.291,1.253a3.456,3.456,0,0,1,0,2.521,2.567,2.567,0,0,0,.419,2.732c.112.113.221.238.338.373l.025.028.028.032.007.008a5.363,5.363,0,0,0,1.074,1.03c2.518,1.678,3.834,4.173,5.108,6.585l.008.012.005.013,0,.006c.3.561.633,1.2.971,1.788a5.831,5.831,0,0,1,.433,1.353l0,.019,0,.012a8.844,8.844,0,0,0,.4,1.351c.118.393.229.758.349,1.147l.017.057.011.034a50.1,50.1,0,0,1,1.306,4.852,53.966,53.966,0,0,1,2.1,7.777l.01.059.006.035c.613,3.269,1.246,6.648,1.665,10.2l.006.05c.615,4.509,1.251,9.171,1.463,13.607a28.4,28.4,0,0,0,.691,5.612l0,.013,0,.01.009.054c.111.575.236,1.228.345,1.875.377,2.645,1.123,5.367,3.993,7.354a4.762,4.762,0,0,1,2.363,3.335,6.736,6.736,0,0,1-1.1,4.439,17.853,17.853,0,0,1-2.31,3.152c-1.719,1.526-1.7,3.254-1.687,5.256v.03c0,.2,0,.4,0,.6a25.181,25.181,0,0,1-2.1,11.133,44.527,44.527,0,0,0-2.182,7.051l0,.02-.008.03L265,253l-.012.044c-.255,1.021-.572,2.293-.918,3.468-.211.939-.371,1.9-.512,2.757l0,.01-.011.067v.009l-.008.04-.007.048c-.151.9-.307,1.827-.509,2.741-.841,3.569.012,7.192.836,10.7l0,.011,0,.009a36.525,36.525,0,0,1,.706,6.123v.006l0,.01v.007l0,.035v.054l0,.013,0,.026.006.112c.032.563.07,1.2.118,1.809v.631a11.645,11.645,0,0,1-2.523,9.665,6.373,6.373,0,0,0-.94,3.27l0,.008v.013l0,.022-.007.074,0,.02c-.028.248-.059.529-.1.8-.071.976-.07,2.037-.07,2.973v.085a20.883,20.883,0,0,1-.559,5.975,37.9,37.9,0,0,1-5.044,9.036,44.4,44.4,0,0,1-3.732,4.441l0,.005-.01.012-.036.039c-.52.567-.889.97-1.261,1.389a4.385,4.385,0,0,0-.838,1.252l0,.005c-.181,2.323-1.554,4.017-2.884,5.655l-.073.089-.014.017-.02.023c-.132.164-.378.469-.581.73a35.81,35.81,0,0,1-4.619,5.25,22.221,22.221,0,0,1-3.445,2.19l-.012.007-.06.034-.014.007-.039.022-.055.031-.093.051c-.208.115-.467.259-.7.393a2.089,2.089,0,0,1-.866.154,3.4,3.4,0,0,1-1.023-.154,47.874,47.874,0,0,1-5-1.663l-.015-.006-.016-.006-.015-.006a2.249,2.249,0,0,1-1.487-1.147,2.156,2.156,0,0,1,.228-1.8,1.547,1.547,0,0,0-.018-1.407,1.709,1.709,0,0,0-1.455-.486c-.459,0-.93.02-1.385.04H225.9l-.071,0h-.052c-.375.017-1,.046-1.572.046a11.12,11.12,0,0,1-1.525-.091,6.034,6.034,0,0,1-3.575-1.888,2.38,2.38,0,0,1-.682-1.919,3.751,3.751,0,0,1,.9-2.074c1.235-1.442,2.463-3.079,3.651-4.663l.009-.013.012-.014.108-.144a7.559,7.559,0,0,0,1.472-2.1,1.361,1.361,0,0,0,.119-1.327c-.232-.371-.782-.566-1.591-.566h-.079a29.493,29.493,0,0,1-6.016-.418,3.974,3.974,0,0,1-3.071-2.646,5.041,5.041,0,0,1,.969-4.917,26.923,26.923,0,0,1,3.568-3.355c1.277-1.066,1.9-2.106,1.057-4a14.458,14.458,0,0,1-.943-4.842l0-.025v-.014l-.011-.13-.014-.159c-.023-.284-.05-.606-.082-.924l-.039-.235-.036-.217,0-.027,0-.006v-.01a23.236,23.236,0,0,0-.76-3.5c-.521-1.3-1.094-2.6-1.6-3.752l-.018-.044,0-.008-.025-.056-.005-.011c-.779-1.768-1.515-3.435-2.131-5.162-1.187-3.224-2.224-6.544-3.226-9.755l-.005-.018,0-.009c-.189-.6-.473-1.513-.754-2.4a8.6,8.6,0,0,1-.476-2.118l0-.009c-.03-.218-.066-.475-.108-.738a.515.515,0,0,0-.061-.017l-.018,0a.961.961,0,0,1-.175-.055c-.315.943-.688,1.9-1.015,2.744l-.007.018-.007.019-.019.049,0,.005c-.34.873-.724,1.862-1.05,2.84-.3.953-.63,1.915-.92,2.765l-.027.078-.006.019,0,.012,0,.01,0,.009,0,.013a42.13,42.13,0,0,0-2.393,9.279,36.364,36.364,0,0,0-.005,8.725l0,.014v.012c.077.982.158,1.993.213,3.016l.628,24.585c.158,6.7-.778,13.453-1.686,19.984v.025l0,.01-.005.034c-.237,1.7-.56,4.034-.825,6.212a56.605,56.605,0,0,1-7.144,22.48,73.409,73.409,0,0,1-6.937,9.578l-.009.011-.158.2,0,0-.018.022c-.526.65-1.246,1.539-1.906,2.378a9.608,9.608,0,0,1-3.339,2.3l-.027.013a2.133,2.133,0,0,0-1.259,2.518,43.791,43.791,0,0,1,.118,9.742v.007c-.053.851-.089,1.474-.118,2.021A33.367,33.367,0,0,1,179,405.948a47.518,47.518,0,0,1-4.438,8.77c-1.288,2.058-2.745,4.056-4.154,5.989l0,.009-.013.015-.019.027,0,.005-.011.013-.005.007-.006.009-.017.022c-.842,1.155-1.8,2.463-2.7,3.781a9.035,9.035,0,0,0-.619.721l0,.005-.027.034a9.169,9.169,0,0,1-.61.709c-.441.331-.914.688-1.583,1.194l-.036.027-.285.216-.049.038-.005,0-.019.015-.009.006a90.712,90.712,0,0,1-11.038,7.537,28.769,28.769,0,0,1-5.177,2.309,18.242,18.242,0,0,1-5.642.914c-.52,0-1.051-.024-1.579-.072-7.694-.427-12.525-5.2-16.6-10.3a36.25,36.25,0,0,1-3.993-5.885,22.675,22.675,0,0,1-2.31-16.177,53.3,53.3,0,0,1,3.574-11.555,14.639,14.639,0,0,1,3.57-5.044,5.188,5.188,0,0,0,1.892-2.812,7.538,7.538,0,0,0,0-3.283c-.211-2.318-.636-4.651-1.047-6.907l0-.019a1.683,1.683,0,0,0-.368-.837l-.005-.008-.006-.008-.014-.021a3.767,3.767,0,0,1-.239-.4,13.138,13.138,0,0,1-2.285-5.043,17.561,17.561,0,0,1-.235-5.673,49.043,49.043,0,0,0,.3-5.8V358.4c.016-1.245.032-2.531.117-3.766.211-2.329.582-4.658.941-6.908l0-.023,0-.025v-.005l0-.017v-.005l0-.023c.355-2.244.724-4.563.933-6.859.054-.621.121-1.262.175-1.777v-.008l.01-.089,0-.027a33.016,33.016,0,0,0,.255-6.224,11.726,11.726,0,0,0-2.125-5.954l-.006-.01-.009-.015-.013-.02a39.427,39.427,0,0,0-3.333-4.785,1.281,1.281,0,0,0-.972-.632,1.724,1.724,0,0,0-1.13.632c-5.324,5.11-10.448,10.235-15.4,15.19l-.013.014-.124.124-.007.008a32.5,32.5,0,0,0-4.964,6.093,17.9,17.9,0,0,0-2.6,7.355c-.84,9.029-4.253,17.351-7.554,25.4l0,.01,0,.014c-.948,2.272-2,4.544-3.018,6.742l-.031.068-.006.012,0,.011,0,.009-.012.027,0,.005c-1.233,2.66-2.507,5.413-3.644,8.257A83.272,83.272,0,0,0,77.856,401.3l0,.01-.022.1-.012.053-.041.176c-.123.533-.31,1.335-.5,2.154-.545,2.175-.905,4.321-1.287,6.592l0,.012,0,.009,0,.017-.006.038,0,.012c-.35,2.071-.712,4.211-1.22,6.346a36.7,36.7,0,0,1-2.519,6.726,4.942,4.942,0,0,1-1.682,1.887c-1.859,1.3-2.41,3.224-1.683,5.885a9.566,9.566,0,0,1,.29,3.73,5.957,5.957,0,0,1-1.759,3.415,32.493,32.493,0,0,1-4.2,3.358c-2.694,1.866-3.99,4.33-4.2,7.989a64.84,64.84,0,0,1-1.671,10.39l0,.019-.025.114c-.15.689-.292,1.354-.4,1.87A32.034,32.034,0,0,1,52.221,473.5a40.775,40.775,0,0,1-5.358,6.507ZM233.742,325.3a3.5,3.5,0,0,1,.491,2.646v1.26a2.624,2.624,0,0,0,.342,2,2.525,2.525,0,0,0,1.76.733,3.964,3.964,0,0,0,.506.032,3.867,3.867,0,0,0,3.064-1.71c1.476-1.9,2.743-3.8,3.968-5.64l.025-.036c.946-1.579,1.642-3.008,2.379-4.522l.007-.014c.277-.57.52-1.064.765-1.554-1.055-.11-2.056-.165-3.024-.218l-.04,0h-.008l-.036,0h-.01c-.945-.051-1.838-.1-2.767-.2-3.01-.4-4.411-2.136-4.411-5.462,0-.742.021-1.478.043-2.168v-.012l0-.089,0-.01v-.037a35.526,35.526,0,0,0-.048-4.405c-.105-1.246-.265-2.525-.406-3.654v-.005l-.005-.046-.01-.078v-.012l0-.009,0-.021v-.005c-.145-1.157-.309-2.468-.415-3.738-.27-2.693.28-4.684,1.682-6.089a16.034,16.034,0,0,1,5.335-4.006,15.371,15.371,0,0,1,6.358-1.31c.492,0,1.013.021,1.545.063a23.484,23.484,0,0,1,3.78.205,1.878,1.878,0,0,1,1.26,1.259c0,.63-.629,1.26-1.045,1.678l-.005.005a1.492,1.492,0,0,1-1.042.339,2.836,2.836,0,0,1-.846-.134,16.787,16.787,0,0,0-2.2-.152A11.357,11.357,0,0,0,244.316,292a7.441,7.441,0,0,0-3.152,3.574,18.043,18.043,0,0,0,0,6.723,21.915,21.915,0,0,1,.423,9.036,3.226,3.226,0,0,0,.387,2.663,2.775,2.775,0,0,0,2.241.726c.222,0,.469-.01.733-.029a3.066,3.066,0,0,0,.877-.179l.007,0,.015-.005.013,0a3.926,3.926,0,0,1,1.19-.227,16.514,16.514,0,0,1,3.152-.205h.011c.413,0,1.04,0,1.25-.419a32.847,32.847,0,0,0,3.992-5.462c1.033-2.065,2.1-4.2,1.892-6.726a11.987,11.987,0,0,1,.069-2.834l0-.014,0-.015v-.012a17.979,17.979,0,0,0,.137-1.955c-.258-3.866.544-6.672,2.521-8.827l.006-.011a6.544,6.544,0,0,0,1.042-2.09,38.247,38.247,0,0,0-.418-11.975c-.141-.986-.373-1.957-.6-2.9l-.009-.038,0-.005a15.963,15.963,0,0,1-.654-5.884,94.97,94.97,0,0,1,3.153-14.922c.249-.863.508-1.724.716-2.417l.006-.019.043-.144.013-.05,0-.006,0-.008c1.667-5.577,3.391-11.344,3.211-17.525a3.021,3.021,0,0,1,1.049-2.31c1.673-1.255,2.525-3.166,3.347-5.014l0-.005.01-.023c.629-1.884.2-2.732-1.68-3.361-2.413-.659-3.355-1.978-3.152-4.412a7.145,7.145,0,0,0-.211-2.1c-.22-1.206-.509-2.536-.721-3.507l0-.013v-.007l-.01-.047,0-.007-.01-.054,0-.007c-.227-1.039-.508-2.333-.72-3.5-.357-2.717-.682-5.569-.943-7.862l0-.02-.011-.081,0-.019,0-.024-.006-.049c-.594-5.2-1.208-10.579-2.185-15.9a85.289,85.289,0,0,0-5.886-18.91,21.265,21.265,0,0,0-5.67-7.772,2.908,2.908,0,0,0-1.752-.9,1.138,1.138,0,0,0-.115.005l-.005.01c-.539.051-1.065.456-1.706,1.313-.264.264-.506.526-.73.772l-.041.044-.028.031-.01.011,0,0-.016.018a14.639,14.639,0,0,1-1.691,1.643l-.218.163-.009.007-.034.024-.021.015-.087.066-.007.005-.005,0c-3.177,2.386-6.462,4.852-9.5,7.279-1.223,1.019-2.47,2.016-3.675,2.982l-.018.014-.058.046-.012.01-.04.032-.027.022-.016.013c-2.511,2.009-5.106,4.085-7.5,6.337-2.032,1.793-3.888,3.682-5.854,5.681l-.028.028-.005,0-.012.012,0,0-.005.005c-1.379,1.4-2.941,3-4.6,4.562.365.305.7.594.965.826l.042.036.007.006.083.072a29.127,29.127,0,0,0,2.473,2,9.654,9.654,0,0,0-1.111.464l-.02.009a3.032,3.032,0,0,1-1.271.409,1.376,1.376,0,0,1-.33-.04,38.1,38.1,0,0,1-13.236-4.411l-.009,0-.021-.011-.023-.012a53.17,53.17,0,0,0-4.991-2.283l-.059-.023-.055-.02-.013-.005-.031-.012c-4.907-1.839-9.981-3.74-15.181-5.4l-20.17-6.935a5.335,5.335,0,0,0-2.089-.205h-.013l.14.117c.061.051.121.1.18.148l.063.052.212.174.014.013.011.008a12.338,12.338,0,0,1,2.114,2.009c.38.7.743,1.4,1.094,2.08l.081.157.018.034.018.035.006.013,0,.008.014.028c.769,1.5,1.564,3.042,2.544,4.581a3.992,3.992,0,0,0,1.683,1.678L183.38,187.6c3.376,1.264,6.755,2.319,10.021,3.34l.065.021c1.273.392,2.5.738,3.7,1.072l.1.029.131.036.008,0,.029.008.014,0,.011,0,.064.018.122.034.01,0,.005,0c1.221.343,2.484.7,3.793,1.1,2.179.624,4.315,1.284,6.379,1.923l.179.056.093.029.005,0,.062.02.085.026c1.993.617,4.25,1.317,6.433,1.938a3.139,3.139,0,0,0,1,.1,6.367,6.367,0,0,1,1.312.1l-.012-.021a15,15,0,0,1-1.248-2.918,2.354,2.354,0,0,1,.212-1.683,2.859,2.859,0,0,1,1.428-.592.628.628,0,0,1,.463.175,6.676,6.676,0,0,1,2.092,2.09l.009.01a26.118,26.118,0,0,1,2.09,4.18l.005.011.005.012c.444,1.112.891,1.677,2.1,1.677a1.5,1.5,0,0,1,1.261.69,2.024,2.024,0,0,1,.212,1.833l0,.006-.006.014-.013.034,0,.008-.03.075c-2.46,6.357-5,12.929-7.3,19.611-1.2,3.326-2.239,6.777-3.246,10.116l-.017.059-.01.033v.005l0,.013-.019.059-.015.052-.006.02-.048.158-.037.122,0,.012c-.528,1.75-1.074,3.559-1.638,5.322l-.008.025-.019.06-.011.031-.031.089,0,.007c-1.338,4.012-2.855,8.559-4.554,13.231-.21.842-.521,1.269-.925,1.269a.916.916,0,0,1-.544-.221c-.569-.377-1.471-1.223-1.471-1.888a26.452,26.452,0,0,1,1.052-5.884c.629-2,1.332-4,1.952-5.767l0-.007.019-.052.021-.059,0-.007,0-.005.02-.057,0-.005,0-.012c.622-1.77,1.327-3.775,1.965-5.794l4.415-13.867a91.521,91.521,0,0,1,3.78-9.669c.1-.256.212-.481.316-.688a2.611,2.611,0,0,0,.317-2.249,3.586,3.586,0,0,1,0-2.1c.4-1,.582-1.663.344-2.1s-.931-.646-2.027-.844l-.027-.005a117.5,117.5,0,0,1-12.371-2.937c-6.229-1.868-12.592-3.988-18.91-6.3-2.174-.789-4.381-1.576-6.516-2.337l-.193-.068-.016-.005-.068-.024-.184-.066-.039-.014-.11-.04-.005,0c-2.215-.787-4.589-1.632-6.945-2.488a39.835,39.835,0,0,1-5.253-2.1,2.77,2.77,0,0,0-1.2-.333c-.814,0-1.416.557-1.951,1.807q-.25.649-.489,1.259l-.012.03-.056.141-.139.354-.011.03,0,.005-.014.034c-.809,2.066-1.573,4.018-2.221,6.129-1.008,3.126-2.025,6.232-2.981,9.146l-.185.565-.1.292-.11.333-.11.337-.041.124-.042.128c-.85,2.6-1.813,5.54-2.737,8.408-.623,1.861-1.149,3.805-1.659,5.685l0,.01-.006.022-.009.035-.005.023-.013.049-.006.022,0,.009c-.508,1.877-1.031,3.815-1.659,5.7a8.2,8.2,0,0,1-1.086,1.768l-.009.012-.018.024-.018.023c-.257.35-.523.712-.76,1.111a.273.273,0,0,1-.208-.1.274.274,0,0,0-.211-.1,3.992,3.992,0,0,1-.1.817l0,.016,0,.009,0,.016a4.034,4.034,0,0,0-.1.824c0,.152-.013.339-.023.5V231c-.032.523-.068,1.115.1,1.3a.174.174,0,0,0,.132.058c.274.093.561.2.814.3l.007,0,.005,0,.022.009.013,0a6.846,6.846,0,0,0,2.388.629,2.353,2.353,0,0,0,.744-.114,6.2,6.2,0,0,1,1.732-.312c1.145,0,1.84.616,2.257,2a4.2,4.2,0,0,0,.837,1.047l.23.085.015.005.016.006.09.032c2.145.78,4.362,1.587,6.378,2.393,1.506.635,3.061,1.335,4.31,1.9l.01,0,.02.009.041.018.007,0,.014.006.017.007,0,0c2.377,1.069,4.836,2.175,7.342,3.1,1.369.527,2.8.951,4.179,1.361l.014,0h0l.013,0,.023.007c1.371.407,2.786.826,4.171,1.356l8.824,3.151c.624.194,1.255.39,1.891.586l.038.012.009,0,.006,0,.021.006c2.757.851,5.607,1.732,8.332,2.752,1.061.387,1.7.7,1.831,1.152s-.232,1.026-.99,2c.247.416.531.831.832,1.271l.009.013.019.029.021.029.012.016,0,.005.011.016.01.014,0,.007c.428.625.913,1.334,1.391,2.17l.841-1.678a33.756,33.756,0,0,0,1.469-4.2c.2-.407.455-.814.7-1.208l0-.007.021-.033.009-.014.015-.025.006-.011c.252-.4.51-.816.715-1.226.416-1.043.85-2.076,1.259-3.045l.006-.014,0-.008.022-.05.044-.105c.419-1,.8-1.9,1.185-2.867.865-2.3,1.8-4.646,2.56-6.527l.005-.015.032-.079,0-.005.026-.067c1.082-2.7,2.2-5.5,3.26-8.437,1.172-3.223,2.152-6.592,3.1-9.85l.011-.038,0-.005,0-.011,0-.005.007-.023c.345-1.187.817-2.813,1.287-4.354.635-2.127,1.485-4.247,2.307-6.3.266-.883.6-1.718.923-2.527l0-.007a20.469,20.469,0,0,0,1.179-3.566,48.55,48.55,0,0,1,1.542-5.044l.007-.021.007-.023.013-.037c.3-.876.643-1.866.951-2.863.193-.682.382-1.3.628-2.091l.009-.028,0-.015.009-.032.018-.056.031-.1,0-.007c.173-.564.369-1.2.561-1.87a2.044,2.044,0,0,1,1.851-1.716,1.691,1.691,0,0,1,1.3.665,3.3,3.3,0,0,1,.209,2.524l-5.043,15.758c-.963,2.885-1.888,5.764-2.783,8.549l0,.005-.046.145-.009.026-.07.22-.006.023-.006.023-.037.114,0,.009c-1.652,5.143-3.361,10.462-5.232,15.677-2.113,5.7-4.432,11.394-6.676,16.9l-.028.069,0,.005-.013.032c-1.45,3.724-2.948,7.574-1.476,11.777a20.785,20.785,0,0,1,.835,3.436l0,.013,0,.014a20.526,20.526,0,0,0,.841,3.469c1.317,3.555,2.759,7.223,4.032,10.459l0,.005.005.013.024.062.036.088,0,.013.024.064.018.044c.7,1.77,1.562,3.971,2.367,6.061.193.535.434,1.087.627,1.53l.008.019.021.047c.741,1.7,1.508,3.456,1.025,5.548a9.153,9.153,0,0,0,1.892,6.935c.823,1.132,1.11,1.78,1.022,2.309-.106.635-.778,1.134-1.863,1.894a24.133,24.133,0,0,0-4.624,4.621c-.52.725-.688,1.309-.5,1.734s.7.68,1.549.784a3.6,3.6,0,0,0,.69.059c.315,0,.642-.029.957-.056h.006l.029,0,.028,0,.022,0h.013c.276-.024.619-.054.93-.054a3.667,3.667,0,0,1,.69.059c.478.068,1.015.093,1.49.113l.03,0h.047a6.518,6.518,0,0,1,2.846.514,3.93,3.93,0,0,1,1.51,2.823A5.3,5.3,0,0,1,229.4,318.5l-.009.011-.03.034c-1.426,1.629-2.9,3.313-4.373,5.209a2.366,2.366,0,0,0-.467,1.206,5.681,5.681,0,0,1-.165.681,5.663,5.663,0,0,1,.976.113l.02,0,.012,0a4.253,4.253,0,0,0,.675.087,38.862,38.862,0,0,0,4.836-.841,6.587,6.587,0,0,1,1.465-.2A1.81,1.81,0,0,1,233.742,325.3ZM53.537,235.492c-.32.684-.68,1.4-.943,1.924l0,.005-.013.024c-1.205,2.4-2.45,4.881-2.616,7.71-.078,1.153-.241,2.32-.4,3.45l-.005.034,0,.026,0,.033,0,.013a28.584,28.584,0,0,0-.423,5.9,58.212,58.212,0,0,0,1.215,8.18l0,.021v.005l.014.07.011.051.012.059c.2,1,.439,2.23.632,3.379.141.712.234,1.428.323,2.121l0,.022,0,.008a14.987,14.987,0,0,0,.936,4.153,31.364,31.364,0,0,0,8.639,11.5A38.612,38.612,0,0,0,73.5,290.96a43.267,43.267,0,0,0,13.658,2.313,16.239,16.239,0,0,0,5.325-1.344l.011,0,.012,0,.324-.122a6.525,6.525,0,0,0,1.671-1.139l.023-.019,0,0a9.869,9.869,0,0,1,1.245-.937c.94-.55,1.917-1.073,2.862-1.579l.006,0,.041-.022.04-.022.017-.009.036-.019.025-.014.005,0c1.577-.846,3.207-1.722,4.739-2.743,5.014-3.551,9.892-7.368,14.5-11.347a48.128,48.128,0,0,0,7.777-8.195c1.46-1.773,3.047-3.468,4.583-5.106l0,0,.016-.017.015-.017.039-.041.019-.021c1.53-1.633,3.111-3.321,4.566-5.087,2.728-3.157,5.375-6.437,7.934-9.609l.06-.075.024-.031,0,0,.014-.018.136-.167.167-.209.035-.043c.865-1.073,2.05-2.543,3.182-3.922,1.048-1.467,2.276-2.9,3.463-4.282l.009-.01.1-.12c-.362-.144-.714-.32-.97-.447l-.015-.008a4.118,4.118,0,0,0-1.747-.593,7.214,7.214,0,0,1-4.6-2.154,12.116,12.116,0,0,1-2.549-4.359,8.53,8.53,0,0,0-1.048-1.891l-.008-.008c-.2-.2-.622-.625-.831-.625a52.741,52.741,0,0,0-9.5-.933c-.34,0-.722.005-1.165.017a36.183,36.183,0,0,0-3.62.288,52.81,52.81,0,0,1-8.182.523c-1.336,0-2.672-.025-3.964-.049l-.134,0h-.065l-.168,0c-1.3-.025-2.578-.049-3.877-.049-.9,0-1.563-.038-2.049-.066l-.03,0h-.012c-.3-.018-.587-.034-.828-.034-1.031,0-1.122.312-1.629,2.047l-.013.044,0,.008-.011.037,0,.014c-.112.384-.265.912-.462,1.527-.911,3.094-1.807,4.088-3.692,4.088a7.555,7.555,0,0,1-1.143-.1c.093.277.178.559.247.786l.021.067.022.077.006.019a10.165,10.165,0,0,0,.963,2.417,8.348,8.348,0,0,1,.632,6.3c-.394,1.184-.862,2.344-1.314,3.465l-.015.04c-.275.68-.534,1.321-.77,1.958-.806,1.81-1.791,2.548-3.4,2.548-.191,0-.39-.01-.592-.03l-9.875,3.152a10.125,10.125,0,0,0-2.732-.841,3.431,3.431,0,0,0,.147.952l0,.012,0,.017,0,.007a1.279,1.279,0,0,1,.055.275,2.215,2.215,0,0,1-.4,1.76,1.229,1.229,0,0,1-.956.435,1.711,1.711,0,0,1-.54-.093l-.457-.124a21.577,21.577,0,0,1-6.266-2.4,34.476,34.476,0,0,1-6.7-5.647l-.006-.007-.016-.017a40.908,40.908,0,0,1-5.457-6.5l0-.005,0,0c-.98-1.346-1.885-2.832-2.759-4.268l-.03-.049-.007-.012-.068-.112-.041-.067c-.615-1.006-1.248-2.046-1.929-3.066a1.87,1.87,0,0,0-1.051-.836C54.085,234.441,53.624,235.317,53.537,235.492Zm100.686,3.521v.005a1.559,1.559,0,0,0-1.092.68c-.71.81-1.382,1.686-2.03,2.533l0,0-.006.009-.039.049,0,.005-.021.026,0,.006-.007.009,0,0c-.63.824-1.345,1.76-2.084,2.606-.743.9-1.528,1.871-2.1,2.58l-.011.014-.109.135-.016.02-.007.011-.035.041-.006.008c-2.068,2.56-4.208,5.206-6.541,7.7-.84.944-1.748,1.9-2.549,2.752l-.076.082-.006.006,0,0c-.732.772-1.733,1.831-2.619,2.827-1.253,1.39-2.452,2.8-3.612,4.158l-.005.005-.057.068-.01.012,0,0,0,0,0,.005a106.9,106.9,0,0,1-7.651,8.348c-4.437,4.226-9.121,8.057-13.651,11.761l0,0c-.714.612-1.4,1.191-2.027,1.725l-.18.153-.031.026,0,0-.114.1c-.548.464-1.135.963-1.847,1.57h.841c.991-.495,2.029-.991,2.864-1.389l.027-.013.022-.011.013-.006.008,0,.022-.011c1.914-.913,3.893-1.855,5.871-2.984.31-.177.635-.363,1-.571l.078-.045.544-.309.073-.041.333-.189c3.751-2.127,7.63-4.325,11.2-6.827.745-.534,1.558-1.028,2.275-1.464l.036-.022.007,0c2.35-1.43,4.568-2.781,5.667-5.445,0-.2.374-.4.418-.418.511-.568,1.041-1.123,1.553-1.66l.044-.045.007-.008.04-.042,0,0a30.893,30.893,0,0,0,3.815-4.543,76.139,76.139,0,0,1,8.4-10.088l4.416-4.412,2.52-3.152c.545-.654,1.071-1.233,1.63-1.846l.021-.022.04-.043.036-.04,0,0c.482-.528,1.028-1.128,1.63-1.828-2.171-.9-4.463-1.837-6.513-2.521a.571.571,0,0,0-.266-.058C154.3,239.007,154.264,239.009,154.222,239.013Zm38.83,15.177c3.134,5.015,6.314,10.318,9.454,15.758a16.914,16.914,0,0,0,1.864-5.594,6.241,6.241,0,0,0-2.076-5.121,2.922,2.922,0,0,1-.879-1.2l0,0L201.4,258l-.005-.011,0-.01-.005-.01a5.993,5.993,0,0,0-.346-.625c-1.617-2.336-4.031-2.833-6.366-3.314-.407-.083-.8-.166-1.2-.257h0ZM163.6,244.46l-.522.565-.115.124-.1.112-.021.022-.149.162-.006.006-.009.009c-4.4,4.751-8.552,9.239-12.9,13.773a12.683,12.683,0,0,0,3.309-2.469c1.484-1.343,3.275-3.115,5.044-4.99,3.055-3.241,6.663-7.468,6.777-8.719Zm82.117-98.373-.01.005-.007,0-.009,0a12.641,12.641,0,0,0-3.472,2.2,19.041,19.041,0,0,1-9.032,3.989c-.2.1-.445.2-.684.3l-.049.021-.017.006-.014.005-.035.014-.017.007-.041.016c-.206.084-.436.177-.616.266-1.273.99-2.41,2.038-3.614,3.149l-.035.032,0,0-.1.094,0,.005-.11.1c-.5.459-1.031.949-1.593,1.45-.7.545-1.427,1.031-2.131,1.5l-.038.025-.016.01-.031.02-.007.005-.009.005a21.892,21.892,0,0,0-3.44,2.637c-1.882,1.568-3.764,3.24-5.584,4.857l-.04.034-.043.04-.031.026-.009.008c-1.828,1.624-3.717,3.3-5.641,4.908-3.188,2.48-6.615,5.188-10.087,8.2a1.125,1.125,0,0,1,.205.3l0,.009a1.063,1.063,0,0,0,.213.316c.338.151.667.294,1.031.452l.11.047,0,0,.171.074.027.012.059.025.015.007c1.49.646,3.029,1.315,4.464,2.113a3.673,3.673,0,0,0,1.636.437,3.031,3.031,0,0,0,2.356-1.278,104.3,104.3,0,0,1,16.809-15.126l.023-.015.03-.023.015-.01.043-.031c2.85-2.038,5.8-4.143,8.5-6.434,1.546-1.374,3.082-2.806,4.438-4.07l.037-.034.039-.037.006-.006.013-.012.016-.015c2.166-2.02,4.4-4.1,6.8-6.121,1.474-1.181,1.5-2.476,1.531-3.847v-.041a10.064,10.064,0,0,1,.15-1.786C247.138,145.382,246.381,145.757,245.713,146.087Zm-79.918,22.165.009,0,.006,0,.005,0,.016.005c.8.272,1.712.579,2.635.826v-.629c-.9-2.569-1.876-5.135-2.82-7.616l-.02-.054-.029-.076-.012-.03-.084-.221-.007-.018,0-.005c-.518-1.36-1.1-2.9-1.647-4.378-.617-1.434-1.184-2.929-1.733-4.374l-.027-.071-.013-.031-.014-.038-.019-.05-.02-.05L162,151.4c-.55-1.445-1.117-2.937-1.73-4.37-.617-1.232-1.181-1.939-1.678-2.1-1.491-.64-1.9-1.71-2.31-3.153-.662-2.417-1.527-4.879-3.366-6.512l-.046-.047-.006-.005c-3.592-3.592-7.307-7.306-10.662-11.081-.111-.127-.224-.255-.324-.367l-.068-.077,0-.005-.031-.036,0-.005-.01-.012c-1.193-1.342-2.426-2.73-1.868-4.964.13-.521.337-.785.612-.785a1.013,1.013,0,0,1,.648.367c1.354,1.251,2.764,2.5,4.007,3.6l.005,0,.011.01.007,0,.068.06.022.021c1.1.976,2.617,2.313,4.076,3.657a11.385,11.385,0,0,1,1.45,1.867l.018.026a.273.273,0,0,0,.21-.1.294.294,0,0,1,.213-.1,6.061,6.061,0,0,1-.208-1.034l0-.014,0-.016,0-.007a6.174,6.174,0,0,0-.208-1.029c-.231-1.038-.49-2.272-.615-2.867l0-.024,0-.008-.008-.041-.037-.175-.027-.126c-.159-.759-.368-1.745-.567-2.645-.144-.577-.238-1.172-.329-1.747l0-.017v-.01l0-.005a11.71,11.71,0,0,0-.925-3.474c-1.159-2.422-2.368-4.838-3.536-7.173l0-.006-.028-.055,0-.006,0-.009,0-.009-.005-.011c-1.053-2.1-2.363-4.717-3.563-7.229a.736.736,0,0,0-.1-.309l0-.005,0-.005,0-.006a.744.744,0,0,1-.1-.3c.3-2.74-.842-5.181-1.949-7.541l0-.009,0-.007-.014-.03,0-.006-.021-.044c-.4-.867-.824-1.761-1.159-2.659A76.074,76.074,0,0,0,132.543,78.6l-.014-.026c-.2-.338-.721-1.22-1.252-2.138-.213-.642-1.264-1.051-1.892-1.051l0-.007c-1.644.208-3.433.479-4.87.7h-.005l-.128.02-.094.014-.013,0-.088.014c-1.59.241-3.392.514-5.1.728-.557.112-.86.276-.953.519s.018.542.325.95c.312.52.62.984.918,1.432l.019.027,0,0,.018.028,0,0c.256.385.6.91.927,1.446,2.643,5.29,5.314,10.965,8.4,17.86,1.11,2.421,2.256,4.973,3.268,7.225l.082.181.081.181.006.013,0,.006.011.022.009.022.012.026c1.009,2.249,2.266,5.048,3.463,7.658,1.151,2.65,2.443,5.262,3.691,7.789l0,.008.013.026.014.027.023.049.005.01c.95,1.92,2.026,4.1,2.971,6.172l.146.334.04.09.011.025c1.309,2.991,2.792,6.381,4.22,9.847.517,1.265,1.051,2.534,1.646,3.943l0,.012.04.09.02.051.007.016.006.015c1.357,3.217,2.761,6.544,3.947,9.949a33.422,33.422,0,0,1,1.34,5.954l0,.013,0,.02c.145.9.326,2.022.547,3.051.456,2.965,1.423,4.843,4.83,5.039.229-.014.448-.021.652-.021A18.154,18.154,0,0,1,165.794,168.252ZM217.317,61.588v.021c-2.105.005-4.227.157-6.279.3l-.051,0-.046,0h-.015l-.067,0h-.007l-.066,0c-1.124.081-2.524.181-3.867.241a8.13,8.13,0,0,0-7.776,4.411,117.423,117.423,0,0,0-8.615,18.068,64.467,64.467,0,0,0-3.36,19.962c-.062,1.855-.2,3.846-.311,5.446l0,.043-.005.072v.012c-.317,4.577-.644,9.311.107,13.969a7.542,7.542,0,0,0,1.469,3.78,88.546,88.546,0,0,0,7.987,7.564,44.42,44.42,0,0,0,12.4,7.776c2.313.852,4.594,1.935,6.8,2.982l.005,0,.04.019.015.007.008,0,.067.032.05.024.01,0c1.543.733,3.138,1.49,4.77,2.177a14.892,14.892,0,0,0,5.976,1.139,40.234,40.234,0,0,0,7.455-.931l.019,0a12.751,12.751,0,0,0,2.48-1.032l.005,0,.005,0,.012-.006.015-.007c5.26-2.849,9.644-6.91,13.239-10.506,1.892-1.767,3.645-3.623,5.341-5.419l.007-.007.006-.007.009-.008c1.105-1.172,2.249-2.384,3.46-3.595,5.315-5.65,7.507-9.256,8.823-11.766l.005-.012q.15-.269.3-.545l.087-.159.013-.022,0-.008,0-.008A20.615,20.615,0,0,1,271,110.91c1.565-1.882,1.515-3.18,1.26-4.2l-1.892-5.671a33.115,33.115,0,0,0-7.354-13.658c-9.08-10.034-17.892-16.912-27.733-21.644a39.142,39.142,0,0,0-14.5-3.993,29.527,29.527,0,0,0-3.326-.155ZM46.863,437.149c.469-.048.943-.1,1.42-.162a2.133,2.133,0,0,0,1.147-.609l.005,0,.015-.013.008-.006.007-.005.01-.008a5.53,5.53,0,0,1,.909-.614,6.2,6.2,0,0,1-.741-.624l0-.005-.006-.007,0,0,0,0a3.623,3.623,0,0,0-1.133-.826q-.821-.149-1.629-.324V431.1c1.061.427,2.082.84,3.1,1.259,2.354,1.069,3.188,3.272,3.785,5.253.211.424-1.073,1.693-1.683,2.1a13.146,13.146,0,0,1-3.783,1.018l-.207.033q-.606.107-1.21.188Zm0-9.7V424.03c.908.175,1.893.363,2.889.55a2.924,2.924,0,0,1,1,.7l.006.005a5.424,5.424,0,0,0,.677.556c-.447.671-1.067,1.47-1.473,1.47a20.593,20.593,0,0,1-2.493.154Q47.162,427.463,46.863,427.454Zm97.231-23.246a54.227,54.227,0,0,0-8.2-.841c-1.746,0-1.892-1.141-1.892-2.31a2.094,2.094,0,0,1,2.013-1.773,1.391,1.391,0,0,1,.511.1,19.364,19.364,0,0,1,2.409.763l.016.006.008,0a14.283,14.283,0,0,0,3.238.905,9.722,9.722,0,0,0,1.1.057,26.863,26.863,0,0,0,3.285-.276l.023,0,.026,0,.016,0,.123-.015h.01l.067-.008h.011l.092-.012c.416-.051.885-.11,1.337-.153-.13-.129-.1-.258-.058-.436l0-.014a1.669,1.669,0,0,0,.054-.39c-1.043-.313-2.037-.679-3-1.031l-.026-.01-.021-.009-.029-.01-.016-.006c-.865-.319-1.94-.716-3-1.035a20.331,20.331,0,0,1-8.613-5.252,8.373,8.373,0,0,1-1.461-2.705l0-.009-.006-.019c-.214-.426.229-1.278.629-1.678a.277.277,0,0,1,.2-.058.663.663,0,0,1,.092.006,5.136,5.136,0,0,1,1.391.468c.845.564,1.66,1.193,2.447,1.8l.027.021.015.013.009.007.005,0a21.217,21.217,0,0,0,5.06,3.2c3.052,1.285,6.314,2.54,9.682,2.54a12.708,12.708,0,0,0,3.343-.439,2.739,2.739,0,0,1,.755-.111,2.863,2.863,0,0,1,2.4,1.58c.593.988.3,2.033-.836,2.942a16.836,16.836,0,0,1-5.34,3.244,17.483,17.483,0,0,1-6.066,1.035C145.335,404.285,144.717,404.259,144.094,404.208ZM69.5,363.44H69.48c-.622,0-1.66,0-2.077-.418-3.535-3.091-6.966-6.124-10.088-9.246-3.042-2.807-5.758-5.345-8.19-7.982a28.851,28.851,0,0,1-2.262-3.288v-6.631a3.51,3.51,0,0,1,1.21,1.515,25.362,25.362,0,0,0,5.62,8.9,48.452,48.452,0,0,0,8.456,6.854c0-2.792-.548-4.558-1.892-6.093-.045-.06-.091-.12-.138-.179l-.009-.012-.043-.057-.009-.014c-.595-.762-1.21-1.55-.643-2.681.446-.889.987-1.34,1.61-1.34a1.8,1.8,0,0,1,.914.289l.009,0,.125.066.081.043.005,0c3.831,2.017,7.793,4.1,11.544,6.187a7.2,7.2,0,0,1,2.31,2.1,1.893,1.893,0,0,1,.21,1.47c0,.411-.611.631-1.051.631-.276-.069-.595-.119-.851-.158l-.035-.005h-.02l-.012,0a4.132,4.132,0,0,1-1.6-.464c-1.565-.853-3.118-1.889-4.62-2.892l-.021-.014c-.818-.544-1.555-1.033-2.294-1.5-.206-.407-.59-.626-1.47-.841.132.535.279,1,.41,1.419l0,.013,0,.006a5.582,5.582,0,0,1,.426,2.554c-.417,2.766.914,4.831,2.2,6.828l.008.012,0,.008a17.686,17.686,0,0,1,1.777,3.239c.029.089.059.176.086.251l.02.056.014.04.005.014,0,.009,0,.005a3.585,3.585,0,0,1,.288,1.3h0ZM227.93,285.079a3.029,3.029,0,0,1,.139-1.6l0-.018,0-.014a1.294,1.294,0,0,0,.061-.259l.056-.031c6.881-3.824,13.381-7.436,20.976-7.436.216,0,.443,0,.694.01l.1.006.048,0h.007c.391.02.929.047,1.439.1a8.792,8.792,0,0,1,3.138.836l.01,0a1.932,1.932,0,0,1,.64.913l0,.008.01.02a6.014,6.014,0,0,0,.4.738c-.075.049-.162.109-.284.193l0,0,0,0-.007,0-.007,0a6.712,6.712,0,0,1-2,1.057,7.841,7.841,0,0,1-1.26.091c-.412,0-.824-.022-1.246-.045H250.8c-.335-.019-.793-.044-1.232-.044a29.167,29.167,0,0,0-9.3,1.891,39.89,39.89,0,0,0-8.349,4.413,2.915,2.915,0,0,1-1.6.436A2.424,2.424,0,0,1,227.93,285.079Zm6.095-13.659a1.232,1.232,0,0,1-.587-1.246,1.808,1.808,0,0,1,1.215-1.487,17.025,17.025,0,0,1,4.371-.551l.331,0a23.827,23.827,0,0,1,4.545.55,3.255,3.255,0,0,1,1.2.668l.015.013.01.007a5.355,5.355,0,0,0,.872.572,1.582,1.582,0,0,0-.212.84l-.036.005a32.836,32.836,0,0,0-4.376.838c-.5.072-.986.17-1.416.257l-.034.007-.029.005-.011,0h-.005l-.006,0-.009,0a13.221,13.221,0,0,1-2.692.354A5.4,5.4,0,0,1,234.024,271.419Zm3.612-23.081-.036,0c-.209-.014-.429-.026-.636-.026,0-.187-.012-.387-.022-.56l0-.054v-.021a2.644,2.644,0,0,1,.238-1.677l4.2-4.2c3.485-2.05,7.434-4.542,11.253-6.952l.007,0,.014-.01.092-.058.052-.034.139-.087a2.238,2.238,0,0,1,.987-.341h.122a2.327,2.327,0,0,1,1.828,1.4c.534,1.068-.146,1.536-.865,2.03l-.007.005c-.151.1-.282.193-.388.275L243.9,244.952l0,0-.039.027c-1.424,1.017-2.9,2.069-4.579,3.122a1.894,1.894,0,0,1-1.077.257C238.014,248.36,237.819,248.35,237.636,248.338Zm.693-9.376a2.173,2.173,0,0,1-1.365-.536,1.592,1.592,0,0,1-.3-1.232,3.177,3.177,0,0,1,.927-2.128c.417-.314.78-.626,1.132-.928l.015-.013.005,0,.02-.017.012-.011c.334-.286.713-.61,1.126-.919,4.61-4.8,10.706-7.532,16.6-10.17l1.682-.755a8.23,8.23,0,0,0,1.348-.725l.015-.01a8.413,8.413,0,0,1,1.366-.735,4.8,4.8,0,0,1,1.156-.231v.008c.1-.006.158-.009.217-.009a1.716,1.716,0,0,1,.936.24c.72.239,1.124,1.253,1.265,1.678,0,.426-.637,1.057-1.05,1.258-1.215.578-2.435,1.143-3.415,1.6l-.174.08-.235.109c-3.053,1.41-6.2,2.867-9.205,4.518a49,49,0,0,0-6.924,5.052l-.006.006-.069.057-.007.005-.063.052-.008.006-.061.05-.007.006c-.649.532-1.384,1.136-2.1,1.7l-1.26,1.259a2.265,2.265,0,0,1-1.575.741ZM94.507,197.029a32.505,32.505,0,0,0-2.237-4.3l-.044-.075c-.271-.461-.584-1-.869-1.512a21.675,21.675,0,0,0-5.883-6.619,30.369,30.369,0,0,0-7.775-4.1,26.828,26.828,0,0,0-9.878-2.1,1.284,1.284,0,0,1-.837-.206,11.24,11.24,0,0,1-1.147-1.039l-.011-.012-.01-.009-.01-.011a11.01,11.01,0,0,0-1.135-1.03,8.373,8.373,0,0,0,.806-.491l.006,0,.022-.015,0,0,.006,0a3.371,3.371,0,0,1,1.677-.742A32.139,32.139,0,0,1,81.9,178.124a33.3,33.3,0,0,1,8.4,5.885,21.05,21.05,0,0,1,2.52,3.152c1.093-.7,2.235-1.393,3.338-2.066l.116-.07,0,0,.026-.015.1-.062.01-.006.01-.005.048-.03.014-.008.047-.028.007,0c.952-.581,2.256-1.376,3.424-2.118,4.987-3.139,9.317-7.88,13.238-14.494a6.842,6.842,0,0,0,.64-3.865v-.024l0-.052c-.006-.247-.009-.477-.009-.682,0-1.347.267-2.114,1.681-2.311a3.1,3.1,0,0,0,1.392-.482l.022-.012c.087-.048.18-.1.264-.138,2.935-1.258,3.785-2.742,3.365-5.882l-.008-.039,0-.012,0-.015a16.007,16.007,0,0,1-.408-3.086c0-1.981.5-2.523,2.31-2.523a22.811,22.811,0,0,0,3.632-.393l.014,0,.138-.023a3.861,3.861,0,0,0,2.89-1.417,8.271,8.271,0,0,0,1.312-2.993c.48-1.68,1.026-3.282,1.553-4.83l.016-.047,0-.007,0-.008,0-.007.033-.1.009-.026c.372-1.094.756-2.225,1.113-3.38a1.6,1.6,0,0,1,.833-.205l.058.1c.035.063.072.129.112.2l.016.031,0,.007,0,.006,0,.005a2.855,2.855,0,0,1,.441,1.117c-.217,3.874-.656,7.78-1.05,11.137a4.071,4.071,0,0,1-2.1,2.1,30.353,30.353,0,0,1-3.767,1.231l-.011,0-.025.006c-.273.076-.56.156-.816.229a2.809,2.809,0,0,0-2.734,3.784,6.331,6.331,0,0,0,.287,1.6l0,.011c.042.158.083.314.128.491a2.741,2.741,0,0,1-1.26,3.362c-.726.518-1.5,1.016-2.12,1.416l-.051.032-.018.012-.006,0-.01.006-.044.029-.01.006-.052.033c-.688.444-1.4.9-2.1,1.4a2.094,2.094,0,0,0-.838,1.046,16.179,16.179,0,0,1-3.782,8.41c-.228.309-.482.656-.821,1.126l-.009.013a37.11,37.11,0,0,1-6.737,7.685c-1.323.99-2.747,2.014-3.89,2.838l-.009.006c-1.317.945-2.6,1.873-3.875,2.827a.268.268,0,0,0-.2.1.279.279,0,0,1-.214.108l-.149.1c-2.785,1.856-2.785,1.856-1.607,4.508l.014.035.049.113.009.018.211.478a6.9,6.9,0,0,1,.841,2.939,4.375,4.375,0,0,1-.632,2.313A2.582,2.582,0,0,1,94.507,197.029Zm-2.961-25.8-.024,0-.025,0-.021,0H91.47l-.05,0-.036,0h-.006c-.142-.011-.305-.022-.444-.022a1.118,1.118,0,0,1-.837-.628c-2-3.089-5.253-3.979-8.4-4.84l-.005,0-.045-.012-.116-.032-.008,0c-.423-.116-.872-.239-1.3-.366-.963-.321-1.932-.589-2.786-.827l-.046-.013-.016-.005c-.877-.242-1.864-.516-2.823-.837-.443,0-.644-.23-.841-.628a3.941,3.941,0,0,1-.615-.925l0-.005,0-.007,0-.011-.024-.042c-.1-.188-.239-.446-.4-.692a4.015,4.015,0,0,0,.846-.454,1.906,1.906,0,0,1,.837-.388v.007h.01a14.493,14.493,0,0,1,4.191.63l.035.008.022.005a59.639,59.639,0,0,1,8.133,2.3,27.9,27.9,0,0,1,5.2,3.319l.012.009,0,0,.04.03c.211.219.211.219,0,.424l.017.026,0,.006,0,.007a8.353,8.353,0,0,1,1.025,1.849c.2.6.427,1.685,0,1.893a1.86,1.86,0,0,1-1.05.256C91.836,171.247,91.688,171.239,91.546,171.23Zm91-34.49a29.627,29.627,0,0,1-3.767-1.674l-.007,0-.01-.005a20.6,20.6,0,0,1-3.569-2.31c-.863-.647-1.682-1.358-2.4-1.986l-.017-.014-.031-.027c-.729-.63-1.551-1.341-2.381-1.966a14.037,14.037,0,0,0-1.943-1.534l0,0-.072-.051c-.237-.164-.487-.338-.715-.512a43.249,43.249,0,0,1-7.772-8.615c-1.3-1.732-2.656-3.315-4.091-4.991l-.008-.01-.021-.025c-.668-.778-1.321-1.542-1.974-2.326-.849-.952-1.171-1.81-.934-2.48.231-.652.989-1.1,2.193-1.3a11.929,11.929,0,0,1,1.561.764l.015.008.005,0,.036.02c.169.094.359.2.484.258.957,1.2,1.882,2.382,2.825,3.593l.014.018.007.008,0,0,.059.074.01.013.008.011a96.013,96.013,0,0,0,9.262,10.776,60.628,60.628,0,0,0,7.784,6.211l.005,0,.058.04.007.005c1.368.974,2.918,2.078,4.334,3.2.283.212.588.4.883.579l.019.012.009,0,.039.023.006,0a4.3,4.3,0,0,1,1.355,1.061,3.443,3.443,0,0,1,.419,2.518c0,.353-.859.685-1.375.685A.69.69,0,0,1,182.545,136.741Zm25.423-3.994a10.023,10.023,0,0,1-3.992-2.524c-1.79-1.788-3.515-3.618-5.184-5.387l0,0-.008-.008-.053-.057-.007-.007-.006-.007-.049-.052,0,0-.005,0c-1.677-1.778-3.409-3.615-5.185-5.393a2.768,2.768,0,0,1-.31-.412l-.007-.011-.007-.01a2.629,2.629,0,0,0-.309-.408c-.626-.21-1-.508-1.12-.886-.2-.642.386-1.423.7-1.843a1.806,1.806,0,0,1,1.576-.788l0,.005a1.813,1.813,0,0,1,1.575.787,22.71,22.71,0,0,1,1.853,2.2l.012.014,0,.005,0,.005,0,0c.318.41.677.875,1.067,1.342l-.211.205c1.887,1.888,3.8,3.739,5.331,5.226l.008.007.009.008.015.016.014.013.1.1.009.009c1.714,1.664,3.485,3.385,5.229,5.128a4.111,4.111,0,0,1,.685,1.583l0,.007,0,.006v.005l0,.007,0,.005.014.051c.043.148.088.3.133.435a5.511,5.511,0,0,0-.671.3l-.007,0a2.773,2.773,0,0,1-1.016.368A.44.44,0,0,1,207.968,132.746Zm41.39-3.992-.627-.63c.4-.645.775-1.289,1.1-1.858l.027-.046.026-.047.009-.014c.577-1,1.121-1.95,1.774-2.865,1.456-1.874,3.074-3.881,4.373-5.494l0,0,.027-.036.121-.149.049-.061.009-.01c1.465-1.82,2.979-3.7,4.454-5.593a11.142,11.142,0,0,0,2.52-4.7,8.55,8.55,0,0,0-1.261-5.8,39.158,39.158,0,0,0-3.75-5.751l-.005-.008,0-.007-.014-.019c-.31-.417-.579-.782-.846-1.15-.1-.132-.205-.256-.354-.424-.572-.651-1.111-1.266-.068-2.306a1.744,1.744,0,0,1,1.24-.366,4.023,4.023,0,0,1,.443.025,2.509,2.509,0,0,1,1.681.76l4.412,6.935c.218.362.407.722.59,1.071l.015.029,0,.006.037.069.013.026.021.04.005.012a12.156,12.156,0,0,0,.995,1.689,7.838,7.838,0,0,1,.421,6.04,13.469,13.469,0,0,1-2.732,5.094c-.847.953-1.628,1.944-2.383,2.9l0,.006-.024.032-.009.01,0,0c-.725.921-1.546,1.962-2.407,2.931-.959,1.172-2,2.319-2.918,3.332l-.024.028,0,0-.023.023-.016.02c-.964,1.062-1.96,2.16-2.9,3.314-.227.228-.429.454-.6.649l0,.005a5.831,5.831,0,0,1-1.077,1.029,4.378,4.378,0,0,1-1.417.819l-.025.012-.014.006a5.266,5.266,0,0,0-.853.421h0Zm-43.913-6.721a5.364,5.364,0,0,1-1.054-1.011l0,0,0-.005c-.136-.159-.269-.313-.408-.453-2.63-3.068-4.962-5.6-7.562-8.2-.356-.531-.808-1.13-1.206-1.658l0,0,0-.005,0-.005-.014-.019-.013-.018c-.608-.808-1.3-1.724-1.908-2.7a2.58,2.58,0,0,1-.211-2.1,4.155,4.155,0,0,1,1.933-.5h.044l0,.005a3.854,3.854,0,0,1,.752.077c.279,0,.562.377.835.742l0,0a4.741,4.741,0,0,0,.419.512c1.4,1.562,2.774,3.086,4.223,4.7l1.25,1.391.106.12c1.652,1.842,3.582,3.992,5.559,6.188.842.841,1.891,1.887,1.05,3.361a1.582,1.582,0,0,1-1.313.52A4.052,4.052,0,0,1,205.446,122.033Zm-1.888-14.288c-.921-1.022-1.921-2.075-2.8-3l-.014-.017-.048-.049-.089-.094-.014-.014-.1-.108c-.837-.88-1.877-1.973-2.812-3.016-.528-.633-1.1-1.205-1.654-1.759l-.028-.028-.028-.028c-.555-.554-1.128-1.126-1.652-1.757a1.375,1.375,0,0,1,0-2.313,2.582,2.582,0,0,1,1.392-.814,1.259,1.259,0,0,1,.241-.023,1.871,1.871,0,0,1,1.31.623c3.324,3.533,6.489,7.329,9.549,11l.021.024.094.113.01.021a10.255,10.255,0,0,1,.617,1.449,4.153,4.153,0,0,1-2.143.767A2.345,2.345,0,0,1,203.558,107.744Z" transform="translate(-46.863 -29.5)" fill="#141416"/></svg>