<svg xmlns="http://www.w3.org/2000/svg" viewBox="0 0 566.625 231.323">
  <defs>
    <style>
      .cls-1 {
        fill: #ad0008;
        opacity: 0.251;
      }
    </style>
  </defs>
  <path id="Subtraction_4" data-name="Subtraction 4" class="cls-1" d="M20.056,231.324h0C13.444,227.858,6.7,224.373,0,220.967v-79.2c35.005-18.423,70.965-36.028,106.882-52.326,36.067-16.367,73.084-31.866,110.02-46.066,32.286,12.746,64.951,26.746,97.089,41.61-25.338,10.292-50.8,21.2-75.685,32.427-24.862,11.216-49.855,23.068-74.283,35.229s-48.917,24.94-72.784,37.985c-23.917,13.07-47.867,26.763-71.185,40.7ZM0,103.7v0H0V54A53.616,53.616,0,0,1,4.513,32.357C34.48,20.929,65.157,10.232,95.692.564c27.949,8.8,55.633,18.231,82.284,28.026-30.235,10.82-60.562,22.635-90.139,35.119C58.322,76.166,28.77,89.62,0,103.7ZM352.423,69.872h0c-27.1-12.979-54.873-25.435-82.562-37.024C242.123,21.239,213.722,10.188,185.449,0H350.6c29.182,12.25,58.44,25.457,86.961,39.254-27.949,9.367-56.6,19.668-85.141,30.618ZM484.7,24.137h0C467.009,15.832,448.966,7.711,431.065,0H558.793a54.681,54.681,0,0,1,7.833.564c-27.087,7.2-54.652,15.131-81.93,23.573Z" transform="translate(0)"/>
</svg>
