<svg xmlns="http://www.w3.org/2000/svg" viewBox="0 0 386.399 273.087">
  <defs>
    <style>
      .cls-1 {
        fill: #ad0008;
        opacity: 0.251;
      }
    </style>
  </defs>
  <path id="Subtraction_1" data-name="Subtraction 1" class="cls-1" d="M466.731,459.653H306.259c-6.12-3.874-12.343-7.753-18.5-11.531,19.9-14.114,40.362-28,60.808-41.269,20.483-13.3,41.519-26.343,62.524-38.78,21.044-12.46,42.633-24.65,64.167-36.229,21.581-11.6,43.7-22.914,65.735-33.615V409.263c-25.021,16.116-50.008,33.069-74.267,50.389h0ZM251.7,426.7c-31.354-18.223-64.024-35.713-97.1-51.985A1624.537,1624.537,0,0,1,541,186.566v79.4c-25.3,10.951-50.678,22.69-75.43,34.893-24.672,12.164-49.381,25.113-73.44,38.488-24,13.342-48,27.466-71.329,41.981-23.288,14.488-46.536,29.753-69.1,45.372Z" transform="translate(-154.599 -186.565)"/>
</svg>
