<svg xmlns="http://www.w3.org/2000/svg" width="267" height="159.999" viewBox="0 0 267 159.999"><g transform="translate(-540 0)"><path d="M-2933.5-3428a100.334,100.334,0,0,1-32.456-5.356A100.091,100.091,0,0,1-2994-3448.243V-3588h141.5a100.063,100.063,0,0,1,14.345,27.646A100.37,100.37,0,0,1-2833-3528.5a99.874,99.874,0,0,1-7.9,39.119,100.473,100.473,0,0,1-9.266,17.071,101.234,101.234,0,0,1-12.272,14.874,101.225,101.225,0,0,1-14.874,12.272,100.512,100.512,0,0,1-17.071,9.266A99.874,99.874,0,0,1-2933.5-3428Z" transform="translate(3534 3588)" fill="#e57c37"/><ellipse cx="44.5" cy="44" rx="44.5" ry="44" transform="translate(718 61)" fill="#e57c37"/></g></svg>