<svg xmlns="http://www.w3.org/2000/svg" width="264" height="295" viewBox="0 0 264 295"><g transform="translate(-1176 -391)"><ellipse cx="31" cy="30.5" rx="31" ry="30.5" transform="translate(1278 598)" fill="#e57c37"/><path d="M-3007.248-3619h-27.5a14.894,14.894,0,0,1-1.248-6,14.9,14.9,0,0,1,4.393-10.607A14.9,14.9,0,0,1-3021-3640a14.9,14.9,0,0,1,10.606,4.393A14.9,14.9,0,0,1-3006-3625a14.9,14.9,0,0,1-1.248,6Z" transform="translate(4212 4305)" fill="#e57c37"/><path d="M-2923-3386h-.017a116.74,116.74,0,0,1-23.16-2.315,115.153,115.153,0,0,1-21.586-6.642,115.321,115.321,0,0,1-19.534-10.511,115.594,115.594,0,0,1-17.02-13.92,115.058,115.058,0,0,1-14.042-16.872,113.689,113.689,0,0,1-10.6-19.365,112.722,112.722,0,0,1-6.7-21.4A113.884,113.884,0,0,1-3038-3500a113.884,113.884,0,0,1,2.336-22.975,112.722,112.722,0,0,1,6.7-21.4,113.689,113.689,0,0,1,10.6-19.365,115.058,115.058,0,0,1,14.042-16.872,115.594,115.594,0,0,1,17.02-13.92,115.34,115.34,0,0,1,19.534-10.511,115.153,115.153,0,0,1,21.586-6.642A116.83,116.83,0,0,1-2923-3614Z" transform="translate(4363 4005)" fill="#e57c37"/></g></svg>