<svg xmlns="http://www.w3.org/2000/svg" xmlns:xlink="http://www.w3.org/1999/xlink" width="464" height="251" viewBox="0 0 464 251"><defs><clipPath id="a"><rect width="404" height="194" fill="none"/></clipPath></defs><g transform="translate(-5330 -4556)"><rect width="404" height="233" transform="translate(5330 4556)" fill="#1a1a1a" opacity="0"/><g transform="translate(5390 4613)" clip-path="url(#a)"><g transform="translate(-1451 -786)"><rect width="6" height="6" transform="translate(1451 786)" fill="#484848"/></g><g transform="translate(-1385 -786)"><rect width="6" height="6" transform="translate(1451 786)" fill="#484848"/></g><g transform="translate(-1319 -786)"><rect width="6" height="6" transform="translate(1451 786)" fill="#484848"/></g><g transform="translate(-1253 -786)"><rect width="6" height="6" transform="translate(1451 786)" fill="#484848"/></g><g transform="translate(-1187 -786)"><rect width="6" height="6" transform="translate(1451 786)" fill="#484848"/></g><g transform="translate(-1121 -786)"><rect width="6" height="6" transform="translate(1451 786)" fill="#484848"/></g><g transform="translate(-1055 -786)"><rect width="6" height="6" transform="translate(1451 786)" fill="#484848"/></g><g transform="translate(-1451 -724)"><rect width="6" height="6" transform="translate(1451 786)" fill="#484848"/></g><g transform="translate(-1385 -724)"><rect width="6" height="6" transform="translate(1451 786)" fill="#484848"/></g><g transform="translate(-1319 -724)"><rect width="6" height="6" transform="translate(1451 786)" fill="#484848"/></g><g transform="translate(-1253 -724)"><rect width="6" height="6" transform="translate(1451 786)" fill="#484848"/></g><g transform="translate(-1187 -724)"><rect width="6" height="6" transform="translate(1451 786)" fill="#484848"/></g><g transform="translate(-1121 -724)"><rect width="6" height="6" transform="translate(1451 786)" fill="#484848"/></g><g transform="translate(-1055 -724)"><rect width="6" height="6" transform="translate(1451 786)" fill="#484848"/></g><g transform="translate(-1451 -662)"><rect width="6" height="6" transform="translate(1451 786)" fill="#484848"/></g><g transform="translate(-1385 -662)"><rect width="6" height="6" transform="translate(1451 786)" fill="#484848"/></g><g transform="translate(-1319 -662)"><rect width="6" height="6" transform="translate(1451 786)" fill="#484848"/></g><g transform="translate(-1253 -662)"><rect width="6" height="6" transform="translate(1451 786)" fill="#484848"/></g><g transform="translate(-1187 -662)"><rect width="6" height="6" transform="translate(1451 786)" fill="#484848"/></g><g transform="translate(-1121 -662)"><rect width="6" height="6" transform="translate(1451 786)" fill="#484848"/></g><g transform="translate(-1055 -662)"><rect width="6" height="6" transform="translate(1451 786)" fill="#484848"/></g><g transform="translate(-1451 -600)"><rect width="6" height="6" transform="translate(1451 786)" fill="#484848"/></g><g transform="translate(-1385 -600)"><rect width="6" height="6" transform="translate(1451 786)" fill="#484848"/></g><g transform="translate(-1319 -600)"><rect width="6" height="6" transform="translate(1451 786)" fill="#484848"/></g><g transform="translate(-1253 -600)"><rect width="6" height="6" transform="translate(1451 786)" fill="#484848"/></g><g transform="translate(-1187 -600)"><rect width="6" height="6" transform="translate(1451 786)" fill="#484848"/></g><g transform="translate(-1121 -600)"><rect width="6" height="6" transform="translate(1451 786)" fill="#484848"/></g><g transform="translate(-1055 -600)"><rect width="6" height="6" transform="translate(1451 786)" fill="#484848"/></g></g></g></svg>