<svg xmlns="http://www.w3.org/2000/svg" width="634.35" height="194.979" viewBox="0 0 634.35 194.979"><path d="M1896.773-16281.336a3.981,3.981,0,0,1-.623-1.962l-11.567-36.71-3.477-10.893c-.034-1.747.751-3.213,1.755-3.275l1.147-.068,104.923-38.069-511.669-21.124a1.93,1.93,0,0,1-1.5-1.152,4.379,4.379,0,0,1-.474-2.137l-10.64-78.531c0-.039,0-.078,0-.115h51.082L2099-16440.52v84.5l-27.783,10.4,27.783-1.688v54.2l-200.87,12.71a.47.47,0,0,1-.065,0A1.586,1.586,0,0,1,1896.773-16281.336Zm129.455-147.82a.711.711,0,0,0,.727-.691l-1.455-2.414a.671.671,0,0,0-.214-.49.746.746,0,0,0-.515-.205l-199.624-3.312Zm-537.359-16.328a11.7,11.7,0,0,0,.754,2.154c.5,1,1.074,1.51,1.717,1.51l333.807,5.551-335.626-11.883h-.116a.817.817,0,0,0-.1-.006c-.292,0-.516.18-.516,2.453,0-.018,0-.023,0-.023A1.24,1.24,0,0,1,1488.869-16445.484Z" transform="translate(-1464.65 16475.373)" fill="#fff" opacity="0.4"/></svg>