<svg xmlns="http://www.w3.org/2000/svg" xmlns:xlink="http://www.w3.org/1999/xlink" viewBox="0 0 200.057 176.249">
  <defs>
    <style>
      .cls-1 {
        opacity: 0.205;
        fill: url(#linear-gradient);
      }
    </style>
    <linearGradient id="linear-gradient" x1="1.464" y1="1.457" x2="0.067" y2="0.202" gradientUnits="objectBoundingBox">
      <stop offset="0" stop-color="#141414"/>
      <stop offset="1" stop-color="#5c7ec4"/>
    </linearGradient>
  </defs>
  <path id="Intersection_7" data-name="Intersection 7" class="cls-1" d="M-2810.612-945.5q-.39-.82-.772-1.639c-3.119-6.669,7.068-11.149,10.625-4.729,1.2,2.171,2.508,4.278,3.84,6.368Zm-61.382,0c-.723-2.054-1.4-4.124-2.089-6.187-1.206-3.607,2.33-7.06,5.674-7.743,4.028-.822,7.141,2.159,8.232,5.523.844,2.6,2.08,5.524,2.719,8.407Zm-31.969,0c-3.14-4.735-7.2-10.863-9.48-13.728-2.089-2.629-2.056-6.311.667-8.5a6.72,6.72,0,0,1,8.951.772c3.2,3.488,10.608,14.133,13.268,18.012a8.558,8.558,0,0,1,1.456,3.445Zm-81.214,0q-3.255-2.384-6.509-4.769c-2.9-2.12-3.845-5.975-1.715-8.881a6.951,6.951,0,0,1,9.311-1.487l10.147,7.432a6.445,6.445,0,0,1,2.392,7.7Zm151.572-3.6c-4.535-5.327-9.067-12.1-10.371-18.919-1.456-7.616,9.787-10.755,13.36-3.956,1.4,2.669,2.307,5.546,3.66,8.24a74.394,74.394,0,0,0,4.607,7.781c1.848,2.776.112,6.539-2.416,8.131a6.82,6.82,0,0,1-3.628,1.008A6.844,6.844,0,0,1-2833.6-949.1Zm-103.39-3.38c-4.063-2.826-8.041-5.782-12.1-8.613-5.51-3.843-.944-13.082,5.567-10.206a54.249,54.249,0,0,1,15.1,9.879c4.312,4.1-.134,10.054-5.071,10.054A6.044,6.044,0,0,1-2936.993-952.481Zm141.939-16.874a6.158,6.158,0,0,1,.554-6.057v7.436Q-2794.791-968.668-2795.054-969.355Zm-93.078-.573c-3.053-1.768-6.1-3.528-9.094-5.393a6.57,6.57,0,0,1-1.786-9.254c2.089-3.135,6.574-3.382,9.7-1.55,3.042,1.784,6.012,3.659,8.989,5.537a6.487,6.487,0,0,1,1.762,9.131,6.254,6.254,0,0,1-5.361,2.659A8.5,8.5,0,0,1-2888.133-969.928Zm-79.019-10.7a63.426,63.426,0,0,0-9.74-4.612c-3.3-1.325-10.342-7.482-9.091-10.751,1.3-3.4,4.973-4.473,8.424-3.628,4.631,1.137,14.127,5.988,18.217,8.332,3.22,1.847,3.756,6.412,1.762,9.131a6.722,6.722,0,0,1-5.5,2.677A7.813,7.813,0,0,1-2967.152-980.631Zm36.53-4.424q-7.679-4.555-15.355-9.112a6.385,6.385,0,0,1-1.744-9.038c2.2-3,6.3-3.324,9.475-1.513q7.769,4.431,15.541,8.86c3.267,1.863,3.8,6.5,1.785,9.255a6.741,6.741,0,0,1-5.541,2.7A8.193,8.193,0,0,1-2930.622-985.055Zm78.374-.63a29.044,29.044,0,0,1-12.956-13,6.038,6.038,0,0,1,2.341-7.88c2.524-1.54,6.649-1.311,8.567,1.236,1.355,1.8,2.688,3.661,4.167,5.378s3.221,3.216,4.743,4.9a5.836,5.836,0,0,1,.41,7.26,6.854,6.854,0,0,1-5.215,2.565A4.578,4.578,0,0,1-2852.248-985.685Zm34.554-4.831c-1.631-2.732-3.571-5.395-4.311-8.475-.693-2.887,1.176-5.728,3.768-7.019a7.3,7.3,0,0,1,8.216,1.748c2.121,2.348,3.2,5.524,4.509,8.325a6.348,6.348,0,0,1-3.14,8.549,6.01,6.01,0,0,1-2.7.634A7.675,7.675,0,0,1-2817.693-990.517Zm-83.858-10.762c-3.407-3.058-6.519-6.437-9.726-9.685a6.263,6.263,0,0,1,.711-9.065,7.2,7.2,0,0,1,9.543.823c3.218,3.236,6.58,6.386,9.584,9.8a6.2,6.2,0,0,1-.7,8.939,6.27,6.27,0,0,1-3.992,1.422A8.281,8.281,0,0,1-2901.552-1001.279Zm106.759-10.22a5.222,5.222,0,0,1,.292-5.355v5.879Q-2794.647-1011.236-2794.792-1011.5Zm-47.321-3.759a65.989,65.989,0,0,0-8.365-9.437c-2.62-2.447-1.689-6.635.684-8.722,2.742-2.411,6.712-1.462,9.18.794a65.992,65.992,0,0,1,8.472,9.353c2.151,2.885,2.094,6.367-.691,8.814a6.5,6.5,0,0,1-4.249,1.433A6.18,6.18,0,0,1-2842.114-1015.258Zm-104.893-5.374c-4.47-2.315-8.292-5.354-12.481-8.1-6.543-4.287-1.058-14.211,6.266-11.489,5.75,2.136,10.473,6.53,15.056,10.356,4.934,4.116,3.668,11.038-2.548,11.037A13.979,13.979,0,0,1-2947.007-1020.632Zm59.368-2.6a44.209,44.209,0,0,1-10.257-9.37,6.216,6.216,0,0,1,.7-8.878,6.943,6.943,0,0,1,9.346.807,36.1,36.1,0,0,0,3.958,4.191c.331.3.338.307.018.01.177.143.354.286.532.427.364.274.719.561,1.087.831.737.538,1.5,1.046,2.272,1.537a6.359,6.359,0,0,1,1.726,8.946,6.427,6.427,0,0,1-5.417,2.646A7.211,7.211,0,0,1-2887.638-1023.229Zm72.148-11.633c-2.508-4.756-5.158-9.266-8.105-13.793-1.75-2.689-.126-6.278,2.324-7.823a6.829,6.829,0,0,1,8.507,1.228,53.636,53.636,0,0,1,9.75,14.834,6.491,6.491,0,0,1-3.216,8.757,6.915,6.915,0,0,1-2.816.591A7.337,7.337,0,0,1-2815.49-1034.862Zm-105.465-5.99a85.713,85.713,0,0,1-9.829-12.86c-1.79-2.757-.159-6.539,2.406-8.1s6.87-1.369,8.81,1.269a126.831,126.831,0,0,0,9.364,11.052,6.606,6.606,0,0,1-.746,9.5,6.406,6.406,0,0,1-4.285,1.543A8.08,8.08,0,0,1-2920.955-1040.853Zm53.482-1.746c-3.246-3.109-6.1-6.529-9.476-9.535-2.308-2.056-1.714-5.782.122-7.76a6.368,6.368,0,0,1,8.1-.824c3.914,3.025,8.122,6.306,11.048,10.246,2.035,2.745,2.163,6.374-.679,8.659a6.19,6.19,0,0,1-3.927,1.38A7.611,7.611,0,0,1-2867.472-1042.6Zm-32.272-16.207c-.854-1.835-1.716-3.7-2.75-5.448-.213-.361-.437-.715-.665-1.066-.1-.128-.333-.453-.49-.654-.6-.777-5.781-8.5-6.357-9.29-1.983-2.731-2.281-6.025.134-8.548,2.125-2.221,6.265-2.968,8.925-.907,4.291,3.325,12.552,15.085,14.269,20.1,1.269,3.711.473,7.257-3.369,9.169a6.5,6.5,0,0,1-2.908.655A7.6,7.6,0,0,1-2899.744-1058.806Zm99.708-3.452c-2.766-4.061-5.4-8.249-7.827-12.5-1.74-3.047-.261-6.787,2.54-8.552,2.647-1.666,7.326-1.447,9.3,1.342q.769,1.088,1.526,2.186v21.442A9.171,9.171,0,0,1-2800.036-1062.258Zm-37.813-.275a7.094,7.094,0,0,1-4.57-2.3q-2.1-2.846-4.194-5.692a7.079,7.079,0,0,1-1.593-4.719,6.189,6.189,0,0,1,2.293-4.221,6.984,6.984,0,0,1,9.412.811q2.2,2.761,4.406,5.523a6.386,6.386,0,0,1-.715,9.128,7.01,7.01,0,0,1-4.415,1.5C-2837.437-1062.5-2837.646-1062.513-2837.849-1062.533Zm-35.19-13.573c-3.462-4.417-11.119-13.7-13.983-18.468-1.9-3.158.028-7.414,3.249-8.845,3.689-1.64,7.319.176,9.354,3.235,2.76,4.152,10.851,12.52,13.062,16.962,2.423,4.87-2.125,9.619-6.692,9.618A6.2,6.2,0,0,1-2873.039-1076.106Zm22.576-21.136a81.717,81.717,0,0,1-6.479-11.453,6.394,6.394,0,0,1,3.162-8.609,7.147,7.147,0,0,1,9.1,3.148c.936,1.848,1.932,3.668,3.01,5.448a46.878,46.878,0,0,0,2.886,4.35c2.425,3.331,2.252,7.619-1.5,9.907a6.969,6.969,0,0,1-3.657,1.08A8.118,8.118,0,0,1-2850.462-1097.241Zm32.974-5.9c-1.124-4.17-2.617-7.956-3.928-12.065-1.677-5.255,7.042-9.06,10.275-4.521a51.956,51.956,0,0,1,6.823,14.484c1.059,3.328-2.126,6.816-5.372,7.332a7.015,7.015,0,0,1-1.109.089A7.021,7.021,0,0,1-2817.488-1103.142Zm22.351,2.693a5.369,5.369,0,0,1,.636-6.153v7.138Z" transform="translate(2994.557 1121.749)"/>
</svg>
