<svg xmlns="http://www.w3.org/2000/svg" xmlns:xlink="http://www.w3.org/1999/xlink" viewBox="0 0 169.287 352.891">
  <defs>
    <style>
      .cls-1 {
        opacity: 0.398;
        fill: url(#linear-gradient);
      }
    </style>
    <linearGradient id="linear-gradient" x1="1.199" y1="1.338" x2="-0.541" y2="0.209" gradientUnits="objectBoundingBox">
      <stop offset="0" stop-color="#141414"/>
      <stop offset="1" stop-color="#5c7ec4"/>
    </linearGradient>
  </defs>
  <path id="Intersection_6" data-name="Intersection 6" class="cls-1" d="M-2905.047-706.349c-.112-.032-.222-.069-.332-.112a34.873,34.873,0,0,1-7.207-4.152c-1.073-.753-2.279-1.5-3.439-2.3v-13.524a6.81,6.81,0,0,1,4.047.656c2.35,1.17,4.391,3.224,6.457,4.843a39.17,39.17,0,0,1,5.587,4.655h0a6.043,6.043,0,0,1,1.065,7.012,6.291,6.291,0,0,1-5.088,3.072A3.94,3.94,0,0,1-2905.047-706.349Zm15.016-30.218c-.112-.032-.222-.069-.331-.112a34.857,34.857,0,0,1-7.206-4.152c-2.22-1.556-5.009-3.089-6.781-5.125-2.113-2.433-2.6-5.543-.676-8.239a6.316,6.316,0,0,1,8.064-1.8c2.35,1.17,4.391,3.224,6.458,4.843a38.887,38.887,0,0,1,5.585,4.655,6.04,6.04,0,0,1,1.066,7.011,6.289,6.289,0,0,1-5.088,3.072A3.95,3.95,0,0,1-2890.031-736.567Zm35.537-5.353a3.508,3.508,0,0,1-.333-.112,34.8,34.8,0,0,1-7.206-4.151c-2.22-1.558-5.009-3.089-6.78-5.126-2.116-2.433-2.6-5.543-.678-8.239a6.32,6.32,0,0,1,8.064-1.8c2.352,1.17,4.391,3.224,6.458,4.845a39.143,39.143,0,0,1,5.586,4.653,6.043,6.043,0,0,1,1.065,7.012,6.286,6.286,0,0,1-5.086,3.072A3.942,3.942,0,0,1-2854.495-741.92Zm16.83-18.693a4.1,4.1,0,0,1-1.957-1.206c-3.288-3.688-7.494-6.438-10.981-9.913a6.276,6.276,0,0,1-.2-8.738,6.309,6.309,0,0,1,8.738-.2c3.764,3.308,6.334,7.648,9.483,11.481,1.754,2.135,2.252,5.019.164,7.206a5.4,5.4,0,0,1-3.846,1.562A5.093,5.093,0,0,1-2837.665-760.613Zm-78.36-14.8c.807.72,1.623,1.426,2.457,2.1,2.329,1.888,3.317,5,1.535,7.675a5.794,5.794,0,0,1-3.992,2.416Zm37.9,10.214c-.111-.032-.221-.069-.329-.112a34.889,34.889,0,0,1-7.207-4.152c-2.22-1.558-5.008-3.088-6.781-5.125-2.113-2.433-2.6-5.543-.675-8.24a6.32,6.32,0,0,1,8.064-1.8c2.35,1.171,4.391,3.225,6.458,4.844a39.031,39.031,0,0,1,5.585,4.656,6.043,6.043,0,0,1,1.067,7.011,6.288,6.288,0,0,1-5.089,3.072A3.952,3.952,0,0,1-2878.13-765.2Zm61.18-8.326a5.3,5.3,0,0,1-2.268-1.31,99.077,99.077,0,0,1-12.693-14.513c-1.924-2.826-.7-6.962,2.094-8.67,3.122-1.905,6.61-.614,8.668,2.093,3.271,4.3,6.263,8.771,9.75,12.9,1.98,2.346,2.477,5.6.181,8a5.707,5.707,0,0,1-4.127,1.717A5.829,5.829,0,0,1-2816.95-773.523Zm-92.788-12.108a5.836,5.836,0,0,1-1.422-.625,48.448,48.448,0,0,1-4.865-3.533V-805.7c2.071,1.584,3.956,3.508,5.865,5.251a82.442,82.442,0,0,1,6.275,5.86h0c3.535,3.989-.048,9.167-4.36,9.167A5.39,5.39,0,0,1-2909.738-785.631Zm45.15-7.926a5.093,5.093,0,0,1-1.582-.783c-5.646-4.08-11.48-7.987-16.823-12.459-5.361-4.488,1.465-13.705,7.239-9.841,5.8,3.875,11.2,8.35,16.7,12.626,4.522,3.511.408,10.634-4.276,10.634A4.553,4.553,0,0,1-2864.588-793.557Zm-30.845-5.044a5.841,5.841,0,0,1-1.422-.625,83.979,83.979,0,0,1-6.912-5.132,62.647,62.647,0,0,1-7.229-5.9c-5-5.143,2.38-13.088,8.089-9.263a63.162,63.162,0,0,1,7.052,6.1,82.427,82.427,0,0,1,6.274,5.86c3.536,3.989-.046,9.166-4.36,9.167A5.4,5.4,0,0,1-2895.432-798.6Zm95.009-.452a6.991,6.991,0,0,1-2.534-1.348,136.811,136.811,0,0,1-10.545-9.315,6.538,6.538,0,0,1-.209-9.093,6.574,6.574,0,0,1,9.093-.209,136.937,136.937,0,0,1,9.939,9.948,6.1,6.1,0,0,1,.193,8.474,5.692,5.692,0,0,1-4.18,1.793A6.366,6.366,0,0,1-2800.424-799.053Zm-42.084-11.766c-.112-.032-.222-.069-.331-.112a34.882,34.882,0,0,1-7.207-4.152c-2.221-1.557-5.008-3.089-6.781-5.126-2.113-2.432-2.6-5.543-.676-8.238a6.316,6.316,0,0,1,8.064-1.8c2.351,1.17,4.391,3.226,6.457,4.844a39.1,39.1,0,0,1,5.586,4.654,6.042,6.042,0,0,1,1.066,7.011,6.291,6.291,0,0,1-5.088,3.073A3.945,3.945,0,0,1-2842.508-810.819Zm59.152-7.547a4.173,4.173,0,0,1-1.292-.623,33.967,33.967,0,0,1-5.333-4.846c-1.515-1.662-3.531-3.6-4.523-5.609a6.016,6.016,0,0,1,.748-6.935c1.546-1.766,4.919-2.42,6.908-1.051a37.689,37.689,0,0,1,5.027,4.622c.709.7,1.413,1.409,2.132,2.1.36.345.741.671,1.087,1.029.1.1.738.877,1.021,1.213-.017-.022-.031-.043-.048-.065.244.3.21.264.066.087,1.854,2.339,2.457,5.183.578,7.741a6.564,6.564,0,0,1-5.04,2.518A4.817,4.817,0,0,1-2783.356-818.366Zm-132.669-12.908a6.06,6.06,0,0,1,0,4.9Zm28.6-1.466a7.387,7.387,0,0,1-2.571-1.345c-3.406-2.732-6.911-5.339-10.221-8.186-2.584-2.224-2.454-6.528-.2-8.888,2.478-2.6,6.252-2.337,8.884-.2,3.382,2.743,6.56,5.719,9.845,8.576a6.078,6.078,0,0,1,.194,8.505,5.647,5.647,0,0,1-4.157,1.794A6.427,6.427,0,0,1-2887.421-832.741Zm59.169-1.055a5.491,5.491,0,0,1-2.357-1.353c-2.863-2.84-5.942-5.568-8.565-8.634-2.157-2.518-2.469-5.749-.188-8.356,2.155-2.461,6.043-2.239,8.352-.189,3.018,2.677,5.692,5.807,8.479,8.721a5.976,5.976,0,0,1,.187,8.267h0a5.523,5.523,0,0,1-4.184,1.783A6.268,6.268,0,0,1-2828.253-833.8Zm28.752-10.446a5.547,5.547,0,0,1-1.3-.561,33.356,33.356,0,0,1-5.833-4.68,35.475,35.475,0,0,1-5.082-5.414c-3.434-5,3-11.4,8.075-8.425a47.379,47.379,0,0,1,5.563,4.383,37.835,37.835,0,0,1,4.665,4.093c2.107,2.382,2.623,5.593.676,8.239a6.476,6.476,0,0,1-5.149,2.589A5.841,5.841,0,0,1-2799.5-844.242Zm33.264-4.248a4.689,4.689,0,0,1-2.157-1.3c-3.843-4.114-8.2-7.753-11.72-12.156-1.956-2.443-.692-6.25,1.437-8.021a6.186,6.186,0,0,1,8.137.3c3.632,3.59,6.444,8.015,9.79,11.87,1.965,2.263,2.4,5.5.177,7.825a5.764,5.764,0,0,1-4.127,1.69A5.584,5.584,0,0,1-2766.237-848.49Zm-101.737-2.03a6.08,6.08,0,0,1-2.446-1.416c-4.517-4.156-9.487-7.784-14.008-11.911-5.041-4.6,1.372-13.561,7.142-9.707,5.49,3.667,10.375,8.407,15.087,13.01,4.288,4.188.311,10.229-4.317,10.229A5.268,5.268,0,0,1-2867.973-850.52Zm-42-17.267a4.666,4.666,0,0,1-1.089-.471,34.017,34.017,0,0,1-4.963-3.67V-890.5c1.82,2.183,3.454,4.531,5.265,6.721,2.251,2.717,4.779,5.181,6.935,7.974,2.8,3.621-.971,8.2-4.849,8.2A4.7,4.7,0,0,1-2909.974-867.787Zm155.931-.861a5.674,5.674,0,0,1-2.177-1.2,82.586,82.586,0,0,1-5.918-6.254,62.736,62.736,0,0,1-6.094-7.063c-4.033-5.935,4.618-12.477,9.575-7.718a63.222,63.222,0,0,1,5.884,7.235,81.955,81.955,0,0,1,5.162,6.862c2.581,4.2-1.018,8.352-4.936,8.352A5.42,5.42,0,0,1-2754.042-868.648Zm-93.8-.392a5.031,5.031,0,0,1-1.194-.516,122.308,122.308,0,0,1-14.022-9.219c-5.43-4.34,1.536-13.694,7.193-9.777,4.189,2.9,8.154,6.118,12.415,8.915,2.612,1.711,3.851,4.94,2.247,7.833a5.973,5.973,0,0,1-5.152,2.97A5.373,5.373,0,0,1-2847.839-869.04Zm30.231-1.157a7.142,7.142,0,0,1-1.361-.553c-3.021-1.59-5.539-4.419-7.778-6.954a92.009,92.009,0,0,1-6.358-8.084c-3.364-4.778,3.9-10.414,7.867-6.342a83.894,83.894,0,0,0,6.51,6.033c2.225,1.848,5,3.466,6.926,5.607,3.807,4.235.655,10.528-4.173,10.529A5.9,5.9,0,0,1-2817.608-870.2Zm28.229-4.549a5.946,5.946,0,0,1-1.436-.635c-5.031-3.056-9.392-7.407-13.342-11.739a6.178,6.178,0,0,1-.193-8.561,6.127,6.127,0,0,1,8.559-.2c3.786,3.939,8.076,7.152,12.119,10.786,4.3,3.866.521,10.549-4.267,10.55A5.2,5.2,0,0,1-2789.38-874.746ZM-2895.271-885.7a4.633,4.633,0,0,1-2.232-1.453c-3.167-3.631-6.351-7.244-9.5-10.893-3.2-3.705-6.387-7.841-3.56-12.785,3.164-5.523,11.412-2.673,11.186,3.1q.869,1.071,1.726,2.155c1,1.256,1.98,2.524,2.971,3.787q2.973,3.785,5.945,7.572c3.03,3.861-1.2,8.7-5.238,8.7A4.7,4.7,0,0,1-2895.271-885.7Zm114.16-11.009a5.64,5.64,0,0,1-1.45-.657c-4.533-2.849-8.16-7.111-11.619-11.139-1.938-2.258-2.39-5.445-.176-7.766,1.936-2.027,5.783-2.384,7.765-.176,3.328,3.712,7.327,6.3,11.023,9.573,4.222,3.737.493,10.36-4.17,10.36A4.966,4.966,0,0,1-2781.111-896.712Zm-98.707-3.7a5.691,5.691,0,0,1-2.254-1.294c-3.665-3.322-7.334-6.628-10.885-10.077-5.311-5.163,2.589-13.4,7.936-8.306,3.578,3.417,7.019,6.961,10.479,10.5,3.824,3.912.28,9.368-3.931,9.368A4.863,4.863,0,0,1-2879.817-900.408Zm57.945-5.8a7,7,0,0,1-1-.371,101.275,101.275,0,0,1-9.635-4.675,6.227,6.227,0,0,1-2.376-8.288c1.55-3.1,5.392-3.707,8.287-2.378a101.193,101.193,0,0,1,9.292,5.3,5.834,5.834,0,0,1,2.237,7.8,5.553,5.553,0,0,1-4.979,2.869A6.641,6.641,0,0,1-2821.873-906.2Zm-29.839-.8a5.236,5.236,0,0,1-1.335-.6c-4.944-3.087-10.815-5.619-15.086-9.613-5.633-5.267,1.219-13.77,7.73-10.509,5.169,2.588,9.61,7.32,14.178,10.847,4.429,3.418.474,10.062-4.159,10.063A4.8,4.8,0,0,1-2851.711-907Zm91.565-.729a5.505,5.505,0,0,1-1.491-.692c-5.192-3.4-9.23-8.259-12.974-13.143-3.626-4.731,3.943-10.435,7.966-6.422,3.732,3.723,8.012,6.67,11.928,10.154,4.139,3.68.47,10.29-4.1,10.29A4.788,4.788,0,0,1-2760.146-907.73Zm-155.879-22.6a5.151,5.151,0,0,1,0,5.059Zm113.349,3.119a6.124,6.124,0,0,1-1.211-.5c-4.153-2.242-8.918-4.959-12.319-8.251-5.251-5.08,1.139-13.5,7.463-10.141,4.163,2.213,8.227,5.934,11.63,9.184,4.031,3.848.536,9.917-4.076,9.918A5.374,5.374,0,0,1-2802.677-927.215Zm45.6-4.816a6.729,6.729,0,0,1-3.59-2.61,168.819,168.819,0,0,0-10.71-13.573c-4.456-5.082,2.417-12.589,7.356-7.7a182.583,182.583,0,0,1,12.608,13.819c2.278,2.769,2.606,6.529-.411,8.96h0a5.786,5.786,0,0,1-3.661,1.335A5.764,5.764,0,0,1-2757.077-932.031Zm-139.221-4.34a6.127,6.127,0,0,1-.972-.373c-5.384-2.593-10.674-5.932-15.854-8.932a5.99,5.99,0,0,1-2.9-3.5v-3.177a6.248,6.248,0,0,1,8.894-4.129c5.664,2.726,11.85,6.517,16.343,10.934,3.9,3.837.513,9.4-3.973,9.4A5.559,5.559,0,0,1-2896.3-936.371Zm54.06-.667a7.354,7.354,0,0,1-2.586-1.363,64.084,64.084,0,0,1-9.121-8.87c-2.03-2.436-2.573-5.769-.189-8.266,2.045-2.142,6.182-2.56,8.265-.19a58.541,58.541,0,0,0,4.2,4.335q1.106,1.029,2.272,1.994c.788.659,1.113.914,1.694,1.323,2.957,2.086,4.2,5.729,1.9,8.856a5.7,5.7,0,0,1-4.679,2.433A6.356,6.356,0,0,1-2842.238-937.038Zm58.86-7.244a5.26,5.26,0,0,1-1.362-.618c-4.46-2.821-9.426-5.8-13.1-9.616a6.523,6.523,0,0,1-.207-9.065c2.56-2.681,6.333-2.332,9.06-.207,3.835,2.989,7.208,6.645,10.976,9.745,4.227,3.476.464,9.945-4.056,9.945A4.724,4.724,0,0,1-2783.378-944.282Zm-88.288-1.337a5.765,5.765,0,0,1-1.277-.538q-4.936-2.817-9.814-5.723a6.478,6.478,0,0,1-2.473-8.627,6.4,6.4,0,0,1,8.626-2.474c3.271,1.909,6.534,3.83,9.772,5.794a6.409,6.409,0,0,1,2.456,8.571,6.454,6.454,0,0,1-5.608,3.232A6.1,6.1,0,0,1-2871.666-945.619Zm44.89-15.908a6.711,6.711,0,0,1-2.342-1.237c-2.253-1.8-4.237-3.933-6.323-5.923a72.9,72.9,0,0,1-6.127-6.113c-1.645-1.994-2.108-4.4-.544-6.6a5.037,5.037,0,0,1,6.46-1.445,56.741,56.741,0,0,1,7.725,5.556,65.627,65.627,0,0,1,6.974,5.975c4.148,4.377.415,10.012-4.223,10.013A5.78,5.78,0,0,1-2826.776-961.528Zm52.784-10.13a7.025,7.025,0,0,1-2.273-1.154,71.87,71.87,0,0,0-10.071-6.61,5.98,5.98,0,0,1-1.881-8.764,6.011,6.011,0,0,1,8.926-.811c3.386,2.915,6.928,5.621,10.239,8.633a5.286,5.286,0,0,1,.167,7.382,4.806,4.806,0,0,1-3.552,1.549A5.642,5.642,0,0,1-2773.992-971.658Zm-85.79-4.127a6.357,6.357,0,0,1-2.571-1.428c-1.427-1.321-2.917-2.578-4.281-3.964-5.8-5.9-5.273-9.2-3.073-11.713,2.241-2.563,9.3.464,11.7,2.683q2.141,1.98,4.28,3.965a6.347,6.347,0,0,1,.2,8.826,5.748,5.748,0,0,1-4.385,1.895A6.791,6.791,0,0,1-2859.781-975.785Zm-48.839-1.538a7.474,7.474,0,0,1-1.312-.52c-2.075-1.051-4.1-2.2-6.092-3.409v-14.936c3.989,2.577,8.056,5.022,12.042,7.607,5.628,3.649,2.5,11.5-2.953,11.5A6.1,6.1,0,0,1-2908.621-977.324Zm97.6-3.459a6.766,6.766,0,0,1-2.494-1.336c-4.328-3.657-8.056-8.25-11.964-12.352-5.05-5.3,2.568-13.353,7.876-8.244,4.08,3.928,8.648,7.673,12.28,12.016,2.065,2.467,2.6,5.858.192,8.387a5.668,5.668,0,0,1-4.155,1.776A6.29,6.29,0,0,1-2811.02-980.782Zm-74.84-6.093a6.546,6.546,0,0,1-2.5-1.349c-1.67-1.459-3.257-3.023-5.008-4.378-4.693-3.637-5.789-9.105-3.742-11.442,2.179-2.5,6.285-1.952,11.962,2.832,1.7,1.429,3.339,2.919,5.009,4.378,2.5,2.192,2.235,6.077.19,8.415a5.369,5.369,0,0,1-4.115,1.8A6.54,6.54,0,0,1-2885.86-986.875Zm42.77-12.375a6.871,6.871,0,0,1-2.594-1.445c-4.738-4.093-8.969-8.781-13.335-13.26-5.361-5.5,2.512-13.711,8.221-8.608,4.664,4.17,9.528,8.192,13.821,12.747,4.35,4.613.367,10.792-4.508,10.793A5.8,5.8,0,0,1-2843.09-999.25Zm52.795-1.132a6.133,6.133,0,0,1-2.3-1.235c-1.714-1.474-3.4-2.982-5.069-4.5-3.727-2.213-6.792-5.973-9.169-9.4-3.478-5.011,3.893-10.486,8.093-6.524,1.389,1.309,2.839,2.574,4.331,3.763.121.1.543.421.655.513.351.252.709.5,1.067.738a13.847,13.847,0,0,1,2.88,2.194,7.075,7.075,0,0,1,1.479,2.595c1.094.907,2.186,1.815,3.263,2.742,2.31,1.988,2.036,5.582.175,7.707a4.883,4.883,0,0,1-3.75,1.646A6,6,0,0,1-2790.3-1000.382Zm-83.4-15.669a4.4,4.4,0,0,1-.418-.143,46.222,46.222,0,0,1-8.565-5.055,82.094,82.094,0,0,1-7.771-5.535c-2.911-2.5-4.221-6.377-1.878-9.83a7.164,7.164,0,0,1,9.83-1.881,89.13,89.13,0,0,1,7.754,6.814c2.273,2.111,4.833,4.153,6.612,6.711,1.407,2.021,1.855,4.53.391,6.683a5.732,5.732,0,0,1-4.626,2.418A4.811,4.811,0,0,1-2873.693-1016.051Zm42.815-1.664a5.9,5.9,0,0,1-2.592-1.606q-5.92-6.059-11.921-12.038c-5.467-5.419,2.73-13.987,8.25-8.636q6.08,5.9,12.267,11.676c4.56,4.282.208,10.8-4.579,10.8A5.146,5.146,0,0,1-2830.878-1017.716Zm-75.392-1.435a5.37,5.37,0,0,1-2.4-1.423c-2.331-2.411-4.877-4.653-7.353-6.951v-17.248a6.574,6.574,0,0,1,4.184,1.857c4.181,4.16,7.606,9.157,11.591,13.523a6.219,6.219,0,0,1,.2,8.62,6.27,6.27,0,0,1-4.508,1.858A6.2,6.2,0,0,1-2906.27-1019.15Zm95.939-9.234a6.311,6.311,0,0,1-1.258-.511c-2.282-1.226-4.01-3.151-5.84-4.945a30.662,30.662,0,0,1-4.868-5.481c-2.264-3.63,1.29-8.656,5.493-7.439a25.615,25.615,0,0,1,6.5,3.239c2.11,1.331,4.533,2.6,6.126,4.552,2.024,2.479,2.683,5.539.679,8.266a6.3,6.3,0,0,1-5.087,2.565A6.329,6.329,0,0,1-2810.331-1028.384Zm-59.977-18.78a7.1,7.1,0,0,1-1.142-.44c-5.548-2.685-12.12-5.775-15.686-11q-.163-.239-.3-.483h20.245c.5.355,1.012.692,1.548,1.005,5.757,3.373,2.435,11.161-3,11.162A6.027,6.027,0,0,1-2870.308-1047.164Zm52.939-6.989a6.378,6.378,0,0,1-2.426-1.351c-1.422-1.236-2.855-2.426-4.3-3.587h14.624a6.72,6.72,0,0,1-6.334,5.158A5.652,5.652,0,0,1-2817.369-1054.153Zm-29.062-.764a4.61,4.61,0,0,1-1.269-.58c-1.73-1.134-3.41-2.337-5.049-3.595h13.613a6,6,0,0,1-.536,1.29,6.3,6.3,0,0,1-5.344,3.079A5.129,5.129,0,0,1-2846.431-1054.917Zm-54.177-1.482a4.17,4.17,0,0,1-1.282-.614c-1.066-.759-1.982-1.426-2.852-2.078h10.732q-.115.193-.243.373a6.414,6.414,0,0,1-5,2.5A4.9,4.9,0,0,1-2900.608-1056.4Z" transform="translate(2916.025 1059.091)"/>
</svg>
