<svg xmlns="http://www.w3.org/2000/svg" viewBox="0 0 263 251"><defs><style>.a{fill:#d6594e;opacity:0.243;}</style></defs><path class="a" d="M-4386.193-904.5a2.77,2.77,0,0,1-1.334-.8.227.227,0,0,1-.022-.023,44.035,44.035,0,0,1,.288-61.938,44.043,44.043,0,0,1,61.916-.309c.007.007.014.015.022.022,1.049,1.186,1.282,2.107.021,3.381l-58.956,58.955a2.944,2.944,0,0,1-1.3.714Zm-81.306-98.255V-1155.5h176.8q-.312,1.507-.658,3A130.435,130.435,0,0,1-4288-1123a130,130,0,0,1-130,130A129.645,129.645,0,0,1-4467.5-1002.756Zm205.548-48.278a2.347,2.347,0,0,1-1.946-1.209l-14.484-28.428a2.294,2.294,0,0,1,.125-2.263,2.266,2.266,0,0,1,2.03-1.035l31.853,1.674a2.25,2.25,0,0,1,1.945,1.209,2.3,2.3,0,0,1-.126,2.262l-17.366,26.754a2.272,2.272,0,0,1-1.889,1.04C-4261.856-1051.03-4261.9-1051.031-4261.951-1051.034Zm.335-6.772,13.1-20.177-24-1.224Zm49.65-25.729-60.62-35a5.042,5.042,0,0,1-2.475-4.314,4.969,4.969,0,0,1,2.5-4.33l49.068-28.319h18.993v68.339a4.988,4.988,0,0,1-2.44,3.525,5.6,5.6,0,0,1-2.69.71A4.645,4.645,0,0,1-4211.965-1083.535Zm-48.086-39.311,45.639,26.35-.013-52.777Z" transform="translate(4467.499 1155.5)"/></svg>