<svg xmlns="http://www.w3.org/2000/svg" viewBox="0 0 262.5 261"><defs><style>.a{fill:#ee6559;opacity:0.517;}</style></defs><path class="a" d="M-4409.786-1050.5l-11.222-39.159a3.13,3.13,0,0,1,.708-3.109,3.2,3.2,0,0,1,3.037-.861l43.093,10.737a3.151,3.151,0,0,1,2.283,2.2,3.262,3.262,0,0,1-.709,3.109l-26.148,27.079Zm5.6-3.5,23.231-24.058-32.5-8.094Zm84.621-37.7a109.682,109.682,0,0,1-55.7-15.177l-.066-.04c-3.271-2.25-4.4-4.346-2.105-8.21l102.935-171.309v185.173a111.108,111.108,0,0,1-45.06,9.564ZM-4537-1174.5a78.5,78.5,0,0,1,78.5-78.5,78.5,78.5,0,0,1,78.5,78.5,78.5,78.5,0,0,1-78.5,78.5A78.5,78.5,0,0,1-4537-1174.5Zm158.078-82.905a40.892,40.892,0,0,1,19.337-54.094h2.319a2.907,2.907,0,0,1,.721,1.015l32.716,70.162a1.939,1.939,0,0,1-1.115,2.826l-.025.011a40.635,40.635,0,0,1-16.874,3.672A40.9,40.9,0,0,1-4378.923-1257.406Zm64.319-29.032a1.745,1.745,0,0,1-.206-1.708l9.457-22.287a1.72,1.72,0,0,1,1.382-1.041,1.779,1.779,0,0,1,1.614.647l14.573,19.34a1.743,1.743,0,0,1,.206,1.708,1.718,1.718,0,0,1-1.382,1.041l-24.029,2.947a1.9,1.9,0,0,1-.252.017A1.677,1.677,0,0,1-4314.6-1286.437Zm4.144-3.123,18.1-2.248-10.972-14.56Z" transform="translate(4537 1311.5)"/></svg>