<svg xmlns="http://www.w3.org/2000/svg" width="332" height="60" viewBox="0 0 332 60"><g transform="translate(-540 -30)"><path d="M0,0H60a0,0,0,0,1,0,0V56a4,4,0,0,1-4,4H4a4,4,0,0,1-4-4V0A0,0,0,0,1,0,0Z" transform="translate(587 30)" fill="#7ab3ff"/><path d="M0,0H32a0,0,0,0,1,0,0V56a4,4,0,0,1-4,4H0a0,0,0,0,1,0,0V0A0,0,0,0,1,0,0Z" transform="translate(540 30)" fill="#7ab3ff"/><path d="M0,0H60a0,0,0,0,1,0,0V56a4,4,0,0,1-4,4H4a4,4,0,0,1-4-4V0A0,0,0,0,1,0,0Z" transform="translate(662 30)" fill="#7ab3ff"/><path d="M0,0H60a0,0,0,0,1,0,0V56a4,4,0,0,1-4,4H4a4,4,0,0,1-4-4V0A0,0,0,0,1,0,0Z" transform="translate(737 30)" fill="#7ab3ff"/><path d="M0,0H60a0,0,0,0,1,0,0V56a4,4,0,0,1-4,4H4a4,4,0,0,1-4-4V0A0,0,0,0,1,0,0Z" transform="translate(812 30)" fill="#7ab3ff"/></g></svg>