<svg xmlns="http://www.w3.org/2000/svg" width="60" height="340" viewBox="0 0 60 340"><g transform="translate(-1380 -390)"><path d="M4,0H60a0,0,0,0,1,0,0V60a0,0,0,0,1,0,0H4a4,4,0,0,1-4-4V4A4,4,0,0,1,4,0Z" transform="translate(1380 390)" fill="#7ab3ff"/><path d="M4,0H60a0,0,0,0,1,0,0V60a0,0,0,0,1,0,0H4a4,4,0,0,1-4-4V4A4,4,0,0,1,4,0Z" transform="translate(1380 540)" fill="#7ab3ff"/><path d="M4,0H60a0,0,0,0,1,0,0V60a0,0,0,0,1,0,0H4a4,4,0,0,1-4-4V4A4,4,0,0,1,4,0Z" transform="translate(1380 465)" fill="#7ab3ff"/><path d="M4,0H60a0,0,0,0,1,0,0V60a0,0,0,0,1,0,0H4a4,4,0,0,1-4-4V4A4,4,0,0,1,4,0Z" transform="translate(1380 615)" fill="#7ab3ff"/><path d="M4,0H60a0,0,0,0,1,0,0V40a0,0,0,0,1,0,0H0a0,0,0,0,1,0,0V4A4,4,0,0,1,4,0Z" transform="translate(1380 690)" fill="#7ab3ff"/></g></svg>