<svg xmlns="http://www.w3.org/2000/svg" viewBox="0 0 351.753 280.045"><defs><style>.a{fill:none;stroke:#48afe5;stroke-width:2px;opacity:0.25;}</style></defs><path class="a" d="M-2898.132,309.118a25.551,25.551,0,0,1-9.153-4.97c-6.58-5.8-8.2-15.214-8.627-24-.361-7.424-.714-14.532-2.757-21.025a30.383,30.383,0,0,0-10.377-15.06c-5.08-3.859-10.973-6.806-16.157-10.6V168.862c1.588,6.658,2.4,13.613,3.582,20.189.693,3.366,1.361,6.954,3.89,9.226,2.565,2.366,6.468,2.86,10.031,2.415,5.3-.651,10.748-3.8,12.667-8.761,2.161-5.468-.123-12.619-5.506-15.129-2.179-1.016-4.6-1.519-6.742-2.442a16.525,16.525,0,0,1-8.956-9.4,16.937,16.937,0,0,1,.561-13.081c2.245-4.648,7.576-7.546,12.667-7.591,5.5-.087,10.424,2.911,14.226,6.634a66.539,66.539,0,0,1,4.623,4.809,77.51,77.51,0,0,1,16.994,30.316c1.369,4.929,2.976,10.516,2.611,15.651-.349,5.767-1.679,11.466-2.473,17.182-1.057,7.621-.618,15.549,2.39,22.648,3.309,7.628,9.361,13.727,15.709,19.184,3.53,2.972,7.246,5.875,9.82,9.728,6.366,9.6,3.467,23.853-5.391,31.972-6.114,5.6-14.476,8.376-22.753,8.376A35.852,35.852,0,0,1-2898.132,309.118Zm83.634-76.006c-11.956,0-23.957-4.537-32.169-13.281-5.375-5.705-8.692-11.308-8.881-19.434-.046-6.262,1.337-12.406,1.959-18.591a77.89,77.89,0,0,0,.225-14.874c-.376-5.716-1.618-11.756-5.4-16.018-4.828-5.372-12.492-6.839-19.268-9.374-11.535-4.209-23.781-13.586-29.985-24.2-5.771-9.713-6.979-21.511-5.384-32.627,1.142-7.971,4.01-16.465,10.056-22.071,6.235-5.674,16.548-6.874,24.612-5.765a23.067,23.067,0,0,1,6.665,1.937c8.324,3.569,12.905,12.649,16.111,21.166,5.387,14.215,12.354,29.558,29.331,31.466,6.758.733,13.559-.465,20.129-2.005,4.305-1.035,8.543-2.257,12.917-1.934,4.341.229,8.921,2.287,10.955,6.123,3.172,6.082-.807,13.277-4.54,19.1-4.4,6.922-8.5,14.057-10.759,21.9a50.9,50.9,0,0,0,6.523,41.9c4.812,7.081,11.58,15.152,7.868,22.784a15.632,15.632,0,0,1-4.947,5.418,43.035,43.035,0,0,1-26.01,8.385Zm74.372-92.178c-13.282-16.024-13.057-36.751-.922-53.406a71.009,71.009,0,0,1,20-18.135c6.219-3.966,11.976-7.445,17.05-12.8,5.424-5.772,11.01-15.078,11.38-23.848h96.146q-.905,1.189-1.788,2.389c-5.244,7.23-8.78,15.646-14.057,22.782-8.907,12.074-2.913,28.835-9.48,42.079a25.959,25.959,0,0,1-13.486,12.358c-5.417,2.078-11.961,2.225-16.7-1.157-9.159-6.457-7.942-22.118-17.71-27.607a15.038,15.038,0,0,0-12.259-.646A24.063,24.063,0,0,0-2692,90.428a35.34,35.34,0,0,0-7.674,18.969c-.852,9.355,1.98,19.18-1.479,28.1a22.123,22.123,0,0,1-12.812,12.751,19.024,19.024,0,0,1-5.974.942C-2727.519,151.19-2735.162,146.948-2740.126,140.935ZM-2945.2,37.425a7.663,7.663,0,0,0,1.939.047c2.427-.351,4.732-1.616,7.048-2.565s5.117-1.436,7.177-.164c2.7,1.57,3.017,5.073,2.719,8.055-1.951,18.908-19.033,35.129-18.643,54.035.165,6.007,2,11.935,1.28,17.839a15.53,15.53,0,0,1-1.519,5.051ZM-2801.12,79.49c-7.7-.391-15.011-2.943-22.274-5.94a61.428,61.428,0,0,1-19.1-12.416c-3.572-3.382-6.135-5.748-6.974-10.976-.719-4.315.005-9.048,2.927-12.133,2.733-3.017,7-4.145,11.08-4.352,4.109-.112,8.116.664,12.235.868,4.379.32,8.952,0,12.833-1.8h82.558c.285,6.854-3.955,13.268-8.643,18.219-9.412,9.811-21.533,16.564-34.014,21.745-9.155,3.729-18.629,6.835-28.464,6.835Q-2800.036,79.54-2801.12,79.49ZM-2893.3,40.251a26.173,26.173,0,0,1-4.972-7.509h17.717q-.439,1.528-.846,3.072c-.572,2.229-1.169,4.682-2.681,6.083a4.411,4.411,0,0,1-3.12,1.2A9.413,9.413,0,0,1-2893.3,40.251Z" transform="translate(2946.202 -31.742)"/></svg>