<svg xmlns="http://www.w3.org/2000/svg" xmlns:xlink="http://www.w3.org/1999/xlink" viewBox="0 0 337.729 266.898"><defs><style>.a{opacity:0.225;fill:url(#a);}</style><linearGradient id="a" x1="0.064" y1="-0.039" x2="0.807" y2="1.001" gradientUnits="objectBoundingBox"><stop offset="0" stop-color="#59d178"/><stop offset="1" stop-color="#61d87f"/></linearGradient></defs><path class="a" d="M-2727.333-1915.279a3.706,3.706,0,0,1-.628-3.163,3.893,3.893,0,0,1,2.736-2.932l29.785-9.091v15.186Zm-89.815,0-18.03-16.861a3.692,3.692,0,0,1-1.192-3.759,3.892,3.892,0,0,1,2.736-2.931l34.415-10.5a3.766,3.766,0,0,1,3.91.9,3.766,3.766,0,0,1,1.116,3.741l-6.79,29.412Zm-79.028,0a3.731,3.731,0,0,1-.488-2.967,3.891,3.891,0,0,1,2.736-2.931l34.415-10.5a3.768,3.768,0,0,1,3.91.9,3.764,3.764,0,0,1,1.115,3.741l-2.715,11.759Zm-109.38-3.924-26.311-24.6a3.694,3.694,0,0,1-1.191-3.759,3.89,3.89,0,0,1,2.736-2.931l34.415-10.5a3.768,3.768,0,0,1,3.909.9,3.763,3.763,0,0,1,1.115,3.741l-8.1,35.108a3.981,3.981,0,0,1-2.66,2.949,4.552,4.552,0,0,1-1.169.158A4.118,4.118,0,0,1-3005.556-1919.2Zm148.786-24.361-26.311-24.6a3.694,3.694,0,0,1-1.191-3.759,3.89,3.89,0,0,1,2.736-2.931l34.415-10.5a3.768,3.768,0,0,1,3.91.9,3.766,3.766,0,0,1,1.116,3.741l-8.105,35.108a3.98,3.98,0,0,1-2.66,2.949,4.549,4.549,0,0,1-1.169.157A4.12,4.12,0,0,1-2856.77-1943.564Zm142.394-24.8a3.688,3.688,0,0,1-1.191-3.758,3.892,3.892,0,0,1,2.735-2.932l17.392-5.308v29.706Zm-82.1,7.147-26.31-24.6a3.692,3.692,0,0,1-1.192-3.759,3.892,3.892,0,0,1,2.736-2.931l34.415-10.5a3.766,3.766,0,0,1,3.909.9,3.766,3.766,0,0,1,1.116,3.741l-8.105,35.108a3.981,3.981,0,0,1-2.66,2.949,4.554,4.554,0,0,1-1.168.157A4.12,4.12,0,0,1-2796.476-1961.217Zm60.3-17.654-26.311-24.6a3.693,3.693,0,0,1-1.191-3.759,3.89,3.89,0,0,1,2.736-2.931l34.415-10.5a3.768,3.768,0,0,1,3.91.9,3.765,3.765,0,0,1,1.115,3.742l-8.1,35.107a3.98,3.98,0,0,1-2.66,2.949,4.558,4.558,0,0,1-1.17.158A4.117,4.117,0,0,1-2736.18-1978.871Zm-168.6-.263-26.311-24.6a3.689,3.689,0,0,1-1.191-3.758,3.893,3.893,0,0,1,2.736-2.932l34.415-10.5a3.767,3.767,0,0,1,3.91.9,3.768,3.768,0,0,1,1.115,3.742l-8.105,35.107a3.977,3.977,0,0,1-2.66,2.949,4.56,4.56,0,0,1-1.169.158A4.117,4.117,0,0,1-2904.778-1979.133Zm60.4-18.112-26.31-24.6a3.692,3.692,0,0,1-1.192-3.759,3.891,3.891,0,0,1,2.736-2.931l34.415-10.5a3.768,3.768,0,0,1,3.909.9,3.766,3.766,0,0,1,1.116,3.741l-8.105,35.108a3.981,3.981,0,0,1-2.66,2.949,4.558,4.558,0,0,1-1.17.158A4.118,4.118,0,0,1-2844.377-1997.245Zm142.394-24.8a3.688,3.688,0,0,1-1.191-3.758,3.892,3.892,0,0,1,2.735-2.932l5-1.526v14.335Zm-21.8-10.507-26.31-24.6a3.691,3.691,0,0,1-1.192-3.759,3.891,3.891,0,0,1,2.736-2.931l34.415-10.5a3.768,3.768,0,0,1,3.909.9,3.768,3.768,0,0,1,1.116,3.742l-8.105,35.107a3.981,3.981,0,0,1-2.66,2.949,4.567,4.567,0,0,1-1.17.158A4.118,4.118,0,0,1-2723.787-2032.551Zm-108.2-18.375-26.31-24.6a3.692,3.692,0,0,1-1.191-3.759,3.891,3.891,0,0,1,2.736-2.931l34.415-10.5a3.768,3.768,0,0,1,3.91.9,3.766,3.766,0,0,1,1.116,3.741l-8.105,35.108a3.979,3.979,0,0,1-2.66,2.949,4.571,4.571,0,0,1-1.17.158A4.116,4.116,0,0,1-2831.984-2050.926Zm60.3-17.653-26.311-24.6a3.69,3.69,0,0,1-1.191-3.759,3.889,3.889,0,0,1,2.735-2.931l34.416-10.5a3.767,3.767,0,0,1,3.909.9,3.767,3.767,0,0,1,1.116,3.741l-8.105,35.108a3.979,3.979,0,0,1-2.66,2.949,4.555,4.555,0,0,1-1.169.158A4.117,4.117,0,0,1-2771.689-2068.578Zm60.295-17.653-26.31-24.6a3.689,3.689,0,0,1-1.191-3.758,3.893,3.893,0,0,1,2.736-2.932l34.415-10.5a3.768,3.768,0,0,1,3.91.9,3.768,3.768,0,0,1,1.116,3.742l-8.105,35.107a3.981,3.981,0,0,1-2.66,2.949,4.571,4.571,0,0,1-1.17.158A4.118,4.118,0,0,1-2711.394-2086.231Zm-168.6-.263-26.31-24.6a3.692,3.692,0,0,1-1.191-3.759,3.894,3.894,0,0,1,2.736-2.932l34.415-10.5a3.766,3.766,0,0,1,3.91.9,3.768,3.768,0,0,1,1.116,3.742l-8.105,35.108a3.978,3.978,0,0,1-2.66,2.948,4.57,4.57,0,0,1-1.17.158A4.116,4.116,0,0,1-2879.992-2086.494Zm60.4-18.112-26.31-24.6a3.692,3.692,0,0,1-1.192-3.759,3.892,3.892,0,0,1,2.736-2.931l34.416-10.5a3.767,3.767,0,0,1,3.909.9,3.766,3.766,0,0,1,1.116,3.741l-8.105,35.108a3.978,3.978,0,0,1-2.66,2.949,4.55,4.55,0,0,1-1.169.158A4.118,4.118,0,0,1-2819.591-2104.606Zm60.3-17.653-26.311-24.6a3.691,3.691,0,0,1-1.191-3.759,3.89,3.89,0,0,1,2.735-2.931l34.416-10.5a3.767,3.767,0,0,1,3.909.9,3.764,3.764,0,0,1,1.116,3.741l-8.105,35.108a3.977,3.977,0,0,1-2.66,2.949,4.544,4.544,0,0,1-1.168.158A4.121,4.121,0,0,1-2759.3-2122.259Zm-108.3-17.916-26.31-24.6a3.69,3.69,0,0,1-1.192-3.759,3.894,3.894,0,0,1,2.736-2.932l34.415-10.5a3.766,3.766,0,0,1,3.91.9,3.768,3.768,0,0,1,1.116,3.742l-8.105,35.107a3.977,3.977,0,0,1-2.66,2.949,4.55,4.55,0,0,1-1.169.158A4.118,4.118,0,0,1-2867.6-2140.175Z" transform="translate(3033.169 2182.177)"/></svg>