<svg xmlns="http://www.w3.org/2000/svg" xmlns:xlink="http://www.w3.org/1999/xlink" viewBox="0 0 344.479 265.612"><defs><style>.a{opacity:0.486;fill:url(#a);}.b{opacity:0.428;fill:url(#b);}</style><linearGradient id="a" x1="0.5" x2="0.5" y2="1" gradientUnits="objectBoundingBox"><stop offset="0" stop-color="#6171eb"/><stop offset="1" stop-color="#9ca5ea"/></linearGradient><linearGradient id="b" x1="0.5" x2="0.5" y2="1" gradientUnits="objectBoundingBox"><stop offset="0" stop-color="#61a6eb"/><stop offset="1" stop-color="#9ca5ea"/></linearGradient></defs><g transform="translate(-1095.021 -399.888)"><path class="a" d="M-4480.528-1036.469a96.441,96.441,0,0,1,8.45-22c16.023-30.259,82.219-58.946,86.063-100.72s57.875-87.562,146.812-94.281c20.4-1.541,37.09-5.454,50.7-10.571v227.57Z" transform="translate(5628 1701.969)"/><path class="b" d="M-4502.225-1036.5c22.342-13.677,47.984-33.284,64.913-58.469,35.827-53.3,121.64-46.914,153.816-73.273s19.875-47.172,45.993-83.641c24.26-32.318,52.834-46.049,79.757-50.229V-1036.5Z" transform="translate(5597.246 1702)"/></g></svg>