<svg xmlns="http://www.w3.org/2000/svg" xmlns:xlink="http://www.w3.org/1999/xlink" width="344.479" height="265.612" viewBox="0 0 344.479 265.612"><defs><linearGradient id="a" x1="0.246" x2="0.939" y2="0.842" gradientUnits="objectBoundingBox"><stop offset="0"/><stop offset="1" stop-color="#ebebeb"/></linearGradient></defs><g transform="translate(-1096.021 -633.888)"><path d="M-4480.528-1036.469a96.441,96.441,0,0,1,8.45-22c16.023-30.259,82.219-58.946,86.063-100.72s57.875-87.562,146.812-94.281c20.4-1.541,37.09-5.454,50.7-10.571v227.57Z" transform="translate(5629 1935.969)" opacity="0.059" fill="url(#a)"/><path d="M-4502.225-1036.5c22.342-13.677,47.984-33.284,64.913-58.469,35.827-53.3,121.64-46.914,153.816-73.273s19.875-47.172,45.993-83.641c24.26-32.318,52.834-46.049,79.757-50.229V-1036.5Z" transform="translate(5598.246 1936)" opacity="0.068" fill="url(#a)"/></g></svg>