<svg xmlns="http://www.w3.org/2000/svg" xmlns:xlink="http://www.w3.org/1999/xlink" width="329.954" height="229.377" viewBox="0 0 329.954 229.377"><defs><linearGradient id="a" x1="0.5" x2="0.5" y2="1" gradientUnits="objectBoundingBox"><stop offset="0" stop-color="#fff"/><stop offset="1" stop-color="#4e4e4e"/></linearGradient><linearGradient id="b" x1="0.246" x2="0.939" y2="0.842" gradientUnits="objectBoundingBox"><stop offset="0"/><stop offset="1" stop-color="#ebebeb"/></linearGradient></defs><g transform="translate(-540.834 0.212)"><path d="M-4356.732-1095.878c-1.483-20.719,1.69-52.969-91.658-88.1-89.376-33.632-91.471-120.219-91.487-127.526H-4310.5v329.953C-4367.929-1012.494-4355.26-1075.315-4356.732-1095.878Z" transform="translate(1852.335 -4310.712) rotate(-90)" opacity="0.148" fill="url(#a)"/><path d="M-4317.273-1028.541c-82.8-27.151-62.469-104.812-64.45-119.867s-5.4-43.7-84.266-60.136c-67.43-14.055-59.146-79.71-55.328-98.45H-4310.5v279.953A33.708,33.708,0,0,1-4317.273-1028.541Z" transform="translate(1847.827 -4310.712) rotate(-90)" opacity="0.063" fill="url(#b)"/></g></svg>